<svg width="100" height="72" viewBox="0 0 100 72" fill="none" xmlns="http://www.w3.org/2000/svg">
<path d="M67.3401 1.9C67.0242 1.52123 66.6329 1.21244 66.1911 0.993303C65.7492 0.774165 65.2666 0.649492 64.7739 0.62723C64.2813 0.604969 63.7893 0.685608 63.3296 0.864006C62.8698 1.04241 62.4522 1.31465 62.1035 1.66338C61.7547 2.01212 61.4825 2.42969 61.3041 2.88947C61.1257 3.34926 61.045 3.84117 61.0673 4.33385C61.0896 4.82653 61.2142 5.30917 61.4334 5.75099C61.6525 6.19282 61.9613 6.58413 62.3401 6.9L87.8501 32.44H3.53008C2.61984 32.4883 1.7628 32.8839 1.13557 33.5453C0.508333 34.2067 0.158691 35.0835 0.158691 35.995C0.158691 36.9065 0.508333 37.7833 1.13557 38.4447C1.7628 39.1061 2.61984 39.5017 3.53008 39.55H87.8501L62.3001 65.06C61.657 65.7335 61.2982 66.6288 61.2982 67.56C61.2982 68.4912 61.657 69.3865 62.3001 70.06C62.628 70.389 63.0176 70.65 63.4466 70.8281C63.8756 71.0062 64.3356 71.0978 64.8001 71.0978C65.2646 71.0978 65.7245 71.0062 66.1535 70.8281C66.5825 70.65 66.9721 70.389 67.3001 70.06L98.9001 38.46C99.2364 38.1363 99.504 37.748 99.6867 37.3184C99.8695 36.8888 99.9636 36.4268 99.9636 35.96C99.9636 35.4932 99.8695 35.0311 99.6867 34.6016C99.504 34.172 99.2364 33.7837 98.9001 33.46L67.3401 1.9Z" fill="#ECECEC"/>
</svg>
