<svg width="100" height="72" viewBox="0 0 100 72" fill="none" xmlns="http://www.w3.org/2000/svg">
<path d="M32.6236 1.9C32.9394 1.52123 33.3307 1.21244 33.7726 0.993303C34.2144 0.774165 34.697 0.649492 35.1897 0.62723C35.6824 0.604969 36.1743 0.685608 36.6341 0.864006C37.0939 1.04241 37.5114 1.31465 37.8602 1.66338C38.2089 2.01212 38.4811 2.42969 38.6595 2.88947C38.8379 3.34926 38.9186 3.84117 38.8963 4.33385C38.8741 4.82653 38.7494 5.30917 38.5302 5.75099C38.3111 6.19282 38.0023 6.58413 37.6235 6.9L12.1135 32.44H96.4335C97.3438 32.4883 98.2008 32.8839 98.8281 33.5453C99.4553 34.2067 99.8049 35.0835 99.8049 35.995C99.8049 36.9065 99.4553 37.7833 98.8281 38.4447C98.2008 39.1061 97.3438 39.5017 96.4335 39.55H12.1135L37.6635 65.06C38.3066 65.7335 38.6655 66.6288 38.6655 67.56C38.6655 68.4912 38.3066 69.3865 37.6635 70.06C37.3356 70.389 36.946 70.65 36.517 70.8281C36.088 71.0062 35.628 71.0978 35.1635 71.0978C34.699 71.0978 34.2391 71.0062 33.8101 70.8281C33.3811 70.65 32.9915 70.389 32.6635 70.06L1.06355 38.46C0.727216 38.1363 0.459666 37.748 0.276917 37.3184C0.0941665 36.8888 -2.28882e-05 36.4268 -2.28882e-05 35.96C-2.28882e-05 35.4932 0.0941665 35.0311 0.276917 34.6016C0.459666 34.172 0.727216 33.7837 1.06355 33.46L32.6236 1.9Z" fill="#ECECEC"/>
</svg>
