<svg width="82" height="90" viewBox="0 0 82 90" fill="none" xmlns="http://www.w3.org/2000/svg">
<path d="M65 90H17C7.6 90 0 82.4 0 73V28C0 18.6 7.6 11 17 11V4C17 1.8 18.8 0 21 0C23.2 0 25 1.8 25 4V11H57V4C57 1.8 58.8 0 61 0C63.2 0 65 1.8 65 4V11C74.4 11 82 18.6 82 28V73C82 82.4 74.4 90 65 90ZM8 37V73C8 78 12 82 17 82H65C70 82 74 78 74 73V37H8ZM8 29H74V28C74 23 70 19 65 19H17C12 19 8 23 8 28V29ZM61 73C58.2 73 56 70.8 56 68C56 65.2 58.2 63 61 63C63.8 63 66 65.2 66 68C66 70.8 63.8 73 61 73ZM41 73C38.2 73 36 70.8 36 68C36 65.2 38.2 63 41 63C43.8 63 46 65.2 46 68C46 70.8 43.8 73 41 73ZM21 73C18.2 73 16 70.8 16 68C16 65.2 18.2 63 21 63C23.8 63 26 65.2 26 68C26 70.8 23.8 73 21 73ZM61 55C58.2 55 56 52.8 56 50C56 47.2 58.2 45 61 45C63.8 45 66 47.2 66 50C66 52.8 63.8 55 61 55ZM41 55C38.2 55 36 52.8 36 50C36 47.2 38.2 45 41 45C43.8 45 46 47.2 46 50C46 52.8 43.8 55 41 55ZM21 55C18.2 55 16 52.8 16 50C16 47.2 18.2 45 21 45C23.8 45 26 47.2 26 50C26 52.8 23.8 55 21 55Z" fill="#ECECEC"/>
</svg>
