<svg width="80" height="82" viewBox="0 0 80 82" fill="none" xmlns="http://www.w3.org/2000/svg">
<path d="M47.8789 39.7621H59.0899C62.5001 39.7621 65.2696 36.9925 65.2696 33.5823V22.3713C65.2696 18.9611 62.5001 16.1917 59.0899 16.1917H47.8789C44.4687 16.1917 41.6992 18.9611 41.6992 22.3713V33.5823C41.6992 36.9925 44.4687 39.7621 47.8789 39.7621ZM50.9805 25.461H56V30.4805H50.9805V25.461Z" fill="#ECECEC"/>
<path d="M65.2705 61.2109V48.4609C65.2705 45.9023 63.1924 43.8203 60.6299 43.8203C58.0713 43.8203 55.9893 45.8984 55.9893 48.4609V56.5703H47.8799C45.3213 56.5703 43.2393 58.6484 43.2393 61.2109C43.2393 63.7695 45.3174 65.8515 47.8799 65.8515H60.6299C63.1885 65.8515 65.2705 63.7734 65.2705 61.2109Z" fill="#ECECEC"/>
<path d="M32.1212 16.1909H20.9102C17.5 16.1909 14.7305 18.9604 14.7305 22.3706V33.5816C14.7305 36.9918 17.5 39.7613 20.9102 39.7613H32.1212C35.5314 39.7613 38.3009 36.9918 38.3009 33.5816V22.3706C38.3009 18.9604 35.5314 16.1909 32.1212 16.1909ZM29.0196 30.4799H24.0001V25.4604H29.0196V30.4799Z" fill="#ECECEC"/>
<path d="M32.1212 42.281H20.9102C17.5 42.281 14.7305 45.0505 14.7305 48.4607V59.6717C14.7305 63.0819 17.5 65.8514 20.9102 65.8514H32.1212C35.5314 65.8514 38.3009 63.0819 38.3009 59.6717V48.4607C38.3009 45.0505 35.5314 42.281 32.1212 42.281ZM29.0196 56.57H24.0001V51.5505H29.0196V56.57Z" fill="#ECECEC"/>
<path d="M69.1798 0.648438H58.3398C55.7812 0.648438 53.6992 2.72654 53.6992 5.28904C53.6992 7.84764 55.7773 9.92964 58.3398 9.92964H69.1798C70.0197 9.92964 70.711 10.621 70.711 11.4608V22.2888C70.711 24.8474 72.7891 26.9294 75.3516 26.9294C77.9102 26.9294 79.9922 24.8513 79.9922 22.2888V11.4608C79.9922 5.49994 75.1406 0.659837 69.1912 0.659837L69.1798 0.648438Z" fill="#ECECEC"/>
<path d="M4.66045 26.8789C7.21905 26.8789 9.30105 24.8008 9.30105 22.2383V11.3983C9.30105 10.5585 9.99246 9.86714 10.8323 9.86714H21.6723C24.2309 9.86714 26.3129 7.78904 26.3129 5.22654C26.3129 2.66794 24.2348 0.585938 21.6723 0.585938H10.8323C4.87135 0.585938 0.03125 5.43754 0.03125 11.3869V22.2269C0.03125 24.7855 2.10935 26.8675 4.67185 26.8675L4.66045 26.8789Z" fill="#ECECEC"/>
<path d="M21.6602 72.078H10.8202C9.98037 72.078 9.28901 71.3866 9.28901 70.5468V59.7068C9.28901 57.1482 7.21091 55.0662 4.64841 55.0662C2.08981 55.0662 0.0078125 57.1443 0.0078125 59.7068V70.5468C0.0078125 76.5077 4.85941 81.3478 10.8088 81.3478H21.6488C24.2074 81.3478 26.2894 79.2697 26.2894 76.7072C26.2894 74.1486 24.2113 72.0666 21.6488 72.0666L21.6602 72.078Z" fill="#ECECEC"/>
<path d="M75.3399 55.1211C72.7813 55.1211 70.6993 57.1992 70.6993 59.7617V70.5897C70.6993 71.4295 70.0079 72.1209 69.1681 72.1209H58.3281C55.7695 72.1209 53.6875 74.199 53.6875 76.7615C53.6875 79.3201 55.7656 81.4021 58.3281 81.4021H69.1681C75.129 81.4021 79.9691 76.5505 79.9691 70.5931V59.7651C79.9691 57.2065 77.891 55.1245 75.3285 55.1245L75.3399 55.1211Z" fill="#ECECEC"/>
<path d="M53.2188 47.66C53.2188 44.3983 50.5704 41.7498 47.3086 41.7498C44.0469 41.7498 41.3984 44.3982 41.3984 47.66C41.3984 50.9217 44.0468 53.5702 47.3086 53.5702C50.5703 53.5702 53.2188 50.9218 53.2188 47.66Z" fill="#ECECEC"/>
</svg>
