<svg width="62" height="96" viewBox="0 0 62 96" fill="none" xmlns="http://www.w3.org/2000/svg">
<path d="M60.3998 25.4L33.6998 1.49995C32.1998 0.0999511 29.8998 0.0999511 28.3998 1.49995L1.59981 25.4C0.799806 26.2 0.299805 27.1999 0.299805 28.4V91.5C0.299805 93.7 2.0998 95.5 4.2998 95.5H57.6998C59.8998 95.5 61.6998 93.7 61.6998 91.5V28.4C61.6998 27.3 61.1998 26.2 60.3998 25.4ZM34.6998 72.6V77.3C34.6998 79.3 33.0998 81 30.9998 81C28.8998 81 27.2998 79.4 27.2998 77.3V72.6C23.0998 72.4 19.2998 70 17.2998 66.2C16.3998 64.4 16.9998 62.1999 18.7998 61.2999C20.5998 60.3999 22.7998 61 23.6998 62.8C24.4998 64.3 26.1998 65.3 27.8998 65.3H33.7998C36.3998 65.3 38.4998 63.1999 38.4998 60.5999C38.4998 59.2999 37.9998 58.1999 37.0998 57.2999C36.1998 56.3999 34.9998 55.9 33.7998 55.9H27.8998C21.2998 55.9 15.8998 50.5 15.8998 43.9C15.8998 40.7 17.1998 37.7 19.3998 35.4C21.4998 33.3 24.2998 32.1 27.1998 31.9V27.1C27.1998 25.1 28.7998 23.4 30.8998 23.4C32.9998 23.4 34.5998 25 34.5998 27.1V31.9C38.7998 32.1 42.4998 34.5 44.4998 38.2C45.4998 40 44.7998 42.2 42.9998 43.2C41.1998 44.2 38.9998 43.5 37.9998 41.7C37.1998 40.1 35.5998 39.2 33.7998 39.2H27.8998C26.6998 39.2 25.3998 39.6999 24.5998 40.5999C23.6998 41.4999 23.1998 42.7 23.1998 43.9C23.1998 46.5 25.2998 48.5999 27.8998 48.5999H33.7998C36.9998 48.5999 39.9998 49.8999 42.2998 52.0999C44.5998 54.3999 45.7998 57.3999 45.7998 60.5999C45.9998 66.9999 40.9998 72.2 34.6998 72.6Z" fill="#ECECEC"/>
</svg>
