<svg width="16" height="14" viewBox="0 0 16 14" fill="none" xmlns="http://www.w3.org/2000/svg">
<path d="M4 1C4.26512 1.0003 4.5193 1.10576 4.70677 1.29323C4.89424 1.4807 4.9997 1.73488 5 2V12C4.9997 12.2651 4.89424 12.5193 4.70677 12.7068C4.5193 12.8942 4.26512 12.9997 4 13H2C1.73488 12.9997 1.4807 12.8942 1.29323 12.7068C1.10576 12.5193 1.0003 12.2651 1 12V2C1.0003 1.73488 1.10576 1.4807 1.29323 1.29323C1.4807 1.10576 1.73488 1.0003 2 1H4ZM4 0H2C1.46957 0 0.960859 0.210714 0.585786 0.585786C0.210714 0.960859 0 1.46957 0 2V12C0 12.5304 0.210714 13.0391 0.585786 13.4142C0.960859 13.7893 1.46957 14 2 14H4C4.53043 14 5.03914 13.7893 5.41421 13.4142C5.78929 13.0391 6 12.5304 6 12V2C6 1.46957 5.78929 0.960859 5.41421 0.585786C5.03914 0.210714 4.53043 0 4 0ZM16 2.5C16 2.43433 15.9871 2.36929 15.962 2.30861C15.9369 2.24793 15.9001 2.1928 15.8536 2.14636C15.8072 2.09992 15.7521 2.0631 15.6914 2.03798C15.6307 2.01287 15.5657 1.99996 15.5 2H8.5C8.36739 2 8.24021 2.05268 8.14645 2.14645C8.05268 2.24021 8 2.36739 8 2.5C8 2.63261 8.05268 2.75979 8.14645 2.85355C8.24021 2.94732 8.36739 3 8.5 3H15.5C15.5657 3.00004 15.6307 2.98713 15.6914 2.96202C15.7521 2.9369 15.8072 2.90008 15.8536 2.85364C15.9001 2.8072 15.9369 2.75207 15.962 2.69139C15.9871 2.63071 16 2.56567 16 2.5ZM16 5.5C16 5.43433 15.9871 5.36929 15.962 5.30861C15.9369 5.24793 15.9001 5.1928 15.8536 5.14636C15.8072 5.09992 15.7521 5.0631 15.6914 5.03798C15.6307 5.01287 15.5657 4.99996 15.5 5H8.5C8.36739 5 8.24021 5.05268 8.14645 5.14645C8.05268 5.24021 8 5.36739 8 5.5C8 5.63261 8.05268 5.75979 8.14645 5.85355C8.24021 5.94732 8.36739 6 8.5 6H15.5C15.5657 6.00004 15.6307 5.98713 15.6914 5.96202C15.7521 5.9369 15.8072 5.90008 15.8536 5.85364C15.9001 5.8072 15.9369 5.75207 15.962 5.69139C15.9871 5.63071 16 5.56567 16 5.5ZM16 8.5C16 8.43433 15.9871 8.36929 15.962 8.30861C15.9369 8.24793 15.9001 8.1928 15.8536 8.14636C15.8072 8.09992 15.7521 8.0631 15.6914 8.03798C15.6307 8.01287 15.5657 7.99996 15.5 8H8.5C8.36739 8 8.24021 8.05268 8.14645 8.14645C8.05268 8.24021 8 8.36739 8 8.5C8 8.63261 8.05268 8.75979 8.14645 8.85355C8.24021 8.94732 8.36739 9 8.5 9H15.5C15.5657 9.00004 15.6307 8.98713 15.6914 8.96202C15.7521 8.9369 15.8072 8.90008 15.8536 8.85364C15.9001 8.8072 15.9369 8.75207 15.962 8.69139C15.9871 8.63071 16 8.56567 16 8.5ZM16 11.5C16 11.4343 15.9871 11.3693 15.962 11.3086C15.9369 11.2479 15.9001 11.1928 15.8536 11.1464C15.8072 11.0999 15.7521 11.0631 15.6914 11.038C15.6307 11.0129 15.5657 11 15.5 11H8.5C8.36739 11 8.24021 11.0527 8.14645 11.1464C8.05268 11.2402 8 11.3674 8 11.5C8 11.6326 8.05268 11.7598 8.14645 11.8536C8.24021 11.9473 8.36739 12 8.5 12H15.5C15.5657 12 15.6307 11.9871 15.6914 11.962C15.7521 11.9369 15.8072 11.9001 15.8536 11.8536C15.9001 11.8072 15.9369 11.7521 15.962 11.6914C15.9871 11.6307 16 11.5657 16 11.5Z" fill="#ECECEC"/>
</svg>
