<svg width="60" height="61" viewBox="0 0 60 61" fill="none" xmlns="http://www.w3.org/2000/svg">
<path d="M30.0004 9.80103C24.6449 9.81274 19.5124 11.9455 15.7344 15.7385C11.9532 19.5315 9.83207 24.6721 9.83987 30.0275C9.84768 35.383 11.9805 40.5155 15.7696 44.2975C19.5626 48.0827 24.6993 50.2037 30.0546 50.1998C35.4101 50.1959 40.5426 48.067 44.3276 44.2779C48.1128 40.4927 50.2378 35.356 50.2378 30.0009C50.23 24.6415 48.0933 19.5009 44.2964 15.7159C40.5034 11.9268 35.3589 9.80182 29.9994 9.80182L30.0004 9.80103ZM39.8598 39.02C39.5512 39.3872 39.098 39.5981 38.6215 39.6021C38.2387 39.5982 37.8715 39.4614 37.5785 39.2192L28.9808 32.0004C28.6058 31.6997 28.3909 31.2426 28.3987 30.7621V22.0004C28.3987 21.1059 29.1253 20.3793 30.0198 20.3793C30.9144 20.3793 31.6409 21.1059 31.6409 22.0004V30.0004L39.6409 36.7621C40.3128 37.3286 40.4183 38.3246 39.8792 39.0199L39.8598 39.02Z" fill="#ECECEC"/>
<path d="M54.8396 13.6211V8.1406C54.8396 7.24607 54.113 6.5195 53.2185 6.5195C52.3239 6.5195 51.6013 7.24606 51.6013 8.1406V9.1601C45.1599 2.5078 36.0113 -0.796898 26.8043 0.203102C17.6012 1.2031 9.37428 6.3945 4.51528 14.2731C-0.348016 22.152 -1.29722 31.8351 1.93718 40.5111C5.17158 49.183 12.2342 55.8781 21.0662 58.6521C29.8982 61.4216 39.5192 59.9607 47.1282 54.6873C54.7372 49.4139 59.4872 40.9253 59.9992 31.6793C60.0265 30.7848 59.3234 30.0387 58.4289 30.0113C57.5344 29.9801 56.7883 30.6832 56.7609 31.5777C56.2843 39.8824 51.9797 47.4917 45.1129 52.1797C38.2418 56.8672 29.5899 58.1016 21.6829 55.5195C13.7806 52.9375 7.52288 46.8359 4.74188 38.9965C1.96458 31.1606 2.98408 22.4765 7.49578 15.4925C12.0114 8.512 19.5118 4.0195 27.8008 3.3365C36.086 2.649 44.2228 5.8521 49.8208 12.0006H47.8208C46.9263 12.0006 46.1997 12.7272 46.1997 13.6217C46.1997 14.5162 46.9262 15.2389 47.8208 15.2389H53.3208C54.1763 15.1881 54.8396 14.4766 54.8396 13.6211Z" fill="#ECECEC"/>
</svg>
