<svg width="80" height="86" viewBox="0 0 80 86" fill="none" xmlns="http://www.w3.org/2000/svg">
<path d="M77.953 47.9382L46.031 16.0322C45.0779 15.0478 43.7498 14.501 42.3591 14.501H37.781C36.656 6.71979 29.9685 0.812988 21.937 0.812988C13.1089 0.812988 5.93704 8.00049 5.93704 16.813C5.93704 19.813 6.78079 22.6099 8.21824 25.0161L2.03074 31.2036C1.04636 32.1723 0.515137 33.4848 0.515137 34.8598V80.0158C0.515137 82.8752 2.84324 85.1877 5.68704 85.1877H38.187C41.0464 85.1877 43.3589 82.8596 43.3589 80.0158V73.9689L47.6401 78.2501C48.6557 79.2657 49.9682 79.7657 51.2963 79.7657C52.6244 79.7657 53.9525 79.2657 54.9525 78.2501L77.9365 55.2661C78.9053 54.2973 79.4521 52.9849 79.4521 51.6099C79.4521 50.2349 78.9209 48.9224 77.9365 47.9537L77.953 47.9382ZM9.06204 16.8132C9.06204 9.70379 14.8432 3.93819 21.937 3.93819C28.2339 3.93819 33.499 8.46939 34.593 14.5002H29.6086C28.218 14.5002 26.9211 15.0471 25.9367 16.0158L21.2805 20.672H14.6867C13.3117 20.672 11.9992 21.2032 11.0305 22.1876L10.4993 22.7188C9.57741 20.9532 9.04619 18.9376 9.04619 16.8126L9.06204 16.8132ZM40.25 80.0162C40.25 81.1412 39.3282 82.0631 38.2031 82.0631H5.70314C4.57814 82.0631 3.65624 81.1412 3.65624 80.0162V34.8602C3.65624 34.3133 3.87499 33.7977 4.24999 33.4071L10.1094 27.5477C13.0469 30.7821 17.25 32.8289 21.9534 32.8289C22.8128 32.8289 23.5159 32.1258 23.5159 31.2664C23.5159 30.407 22.8128 29.7039 21.9534 29.7039C18.1253 29.7039 14.6878 28.0164 12.3284 25.3445L13.2815 24.3914C13.6565 24.0164 14.1878 23.7976 14.7346 23.7976H29.2186C29.7655 23.7976 30.2811 24.0164 30.6717 24.3914L39.6873 33.407C40.0779 33.7976 40.2811 34.3132 40.2811 34.8601V80.0161L40.25 80.0162ZM75.75 53.0472L52.766 76.0312C51.9692 76.8281 50.6722 76.8281 49.8598 76.0312L43.3598 69.5312V34.8432C43.3598 33.4682 42.8286 32.1557 41.8442 31.187L32.8286 22.1714C31.8443 21.187 30.5474 20.6558 29.1724 20.6558H25.7036L28.1411 18.2183C28.5318 17.8277 29.0474 17.6089 29.5942 17.6089H42.3442C42.8911 17.6089 43.4067 17.8277 43.7817 18.2183L75.7197 50.1403C76.1104 50.5309 76.3135 51.0465 76.3135 51.5934C76.3135 52.1402 76.0947 52.6559 75.7197 53.0465L75.75 53.0472Z" fill="#ECECEC"/>
<path d="M35.6559 48.8751L27.609 47.0313L23.3746 39.9375C22.8121 39 21.2496 39 20.6871 39.9375L16.4527 47.0313L8.40579 48.8751C7.87454 49.0001 7.43704 49.3907 7.26519 49.922C7.09331 50.4376 7.21831 51.0158 7.57769 51.4376L12.9996 57.6564L12.2652 65.8752C12.2183 66.4221 12.4527 66.9533 12.9058 67.2814C13.3433 67.6095 13.937 67.672 14.437 67.4533L22.0308 64.2189L29.6246 67.4533C29.8277 67.5314 30.0309 67.5783 30.234 67.5783C30.5621 67.5783 30.8746 67.4845 31.1559 67.2814C31.5934 66.9533 31.8434 66.422 31.7965 65.8752L31.0621 57.6564L36.484 51.4376C36.8434 51.0157 36.9684 50.4532 36.7965 49.922C36.6246 49.4064 36.1871 49.0001 35.6559 48.8751ZM28.2653 56.0939C27.984 56.422 27.8434 56.8439 27.8903 57.2658L28.4528 63.547L22.6403 61.0626C22.4372 60.9845 22.234 60.9376 22.0309 60.9376C21.8278 60.9376 21.609 60.9845 21.4215 61.0626L15.609 63.547L16.1715 57.2658C16.2028 56.8439 16.0778 56.422 15.7965 56.0939L11.6403 51.3439L17.7965 49.9377C18.2184 49.8439 18.5778 49.5783 18.7965 49.2189L22.0309 43.7971L25.2653 49.2189C25.4841 49.5783 25.8434 49.8439 26.2653 49.9377L32.4215 51.3439L28.2653 56.0939Z" fill="#ECECEC"/>
</svg>
