<svg width="128" height="128" viewBox="0 0 128 128" fill="none" xmlns="http://www.w3.org/2000/svg">
<path d="M126 110H122V78C122 77.4696 121.789 76.9609 121.414 76.5858C121.039 76.2107 120.53 76 120 76H108C107.47 76 106.961 76.2107 106.586 76.5858C106.211 76.9609 106 77.4696 106 78V110H94V64C94 63.4696 93.7893 62.9609 93.4142 62.5858C93.0391 62.2107 92.5304 62 92 62H80C79.4696 62 78.9609 62.2107 78.5858 62.5858C78.2107 62.9609 78 63.4696 78 64V110H74V106C74 105.47 73.7893 104.961 73.4142 104.586C73.0391 104.211 72.5304 104 72 104C71.4696 104 70.9609 104.211 70.5858 104.586C70.2107 104.961 70 105.47 70 106V110H66V64C66 63.4696 65.7893 62.9609 65.4142 62.5858C65.0391 62.2107 64.5304 62 64 62H52C51.4696 62 50.9609 62.2107 50.5858 62.5858C50.2107 62.9609 50 63.4696 50 64V110H38V78C38 77.4696 37.7893 76.9609 37.4142 76.5858C37.0391 76.2107 36.5304 76 36 76H24C23.4696 76 22.9609 76.2107 22.5858 76.5858C22.2107 76.9609 22 77.4696 22 78V110H18V2C18 1.46957 17.7893 0.960859 17.4142 0.585786C17.0391 0.210714 16.5304 0 16 0C15.4696 0 14.9609 0.210714 14.5858 0.585786C14.2107 0.960859 14 1.46957 14 2V12H10C9.46957 12 8.96086 12.2107 8.58579 12.5858C8.21071 12.9609 8 13.4696 8 14C8 14.5304 8.21071 15.0391 8.58579 15.4142C8.96086 15.7893 9.46957 16 10 16H14V26H10C9.46957 26 8.96086 26.2107 8.58579 26.5858C8.21071 26.9609 8 27.4696 8 28C8 28.5304 8.21071 29.0391 8.58579 29.4142C8.96086 29.7893 9.46957 30 10 30H14V40H10C9.46957 40 8.96086 40.2107 8.58579 40.5858C8.21071 40.9609 8 41.4696 8 42C8 42.5304 8.21071 43.0391 8.58579 43.4142C8.96086 43.7893 9.46957 44 10 44H14V54H10C9.46957 54 8.96086 54.2107 8.58579 54.5858C8.21071 54.9609 8 55.4696 8 56C8 56.5304 8.21071 57.0391 8.58579 57.4142C8.96086 57.7893 9.46957 58 10 58H14V68H10C9.46957 68 8.96086 68.2107 8.58579 68.5858C8.21071 68.9609 8 69.4696 8 70C8 70.5304 8.21071 71.0391 8.58579 71.4142C8.96086 71.7893 9.46957 72 10 72H14V82H10C9.46957 82 8.96086 82.2107 8.58579 82.5858C8.21071 82.9609 8 83.4696 8 84C8 84.5304 8.21071 85.0391 8.58579 85.4142C8.96086 85.7893 9.46957 86 10 86H14V96H10C9.46957 96 8.96086 96.2107 8.58579 96.5858C8.21071 96.9609 8 97.4696 8 98C8 98.5304 8.21071 99.0391 8.58579 99.4142C8.96086 99.7893 9.46957 100 10 100H14V110H2C1.46957 110 0.960859 110.211 0.585786 110.586C0.210714 110.961 0 111.47 0 112C0 112.53 0.210714 113.039 0.585786 113.414C0.960859 113.789 1.46957 114 2 114H14V126C14 126.53 14.2107 127.039 14.5858 127.414C14.9609 127.789 15.4696 128 16 128C16.5304 128 17.0391 127.789 17.4142 127.414C17.7893 127.039 18 126.53 18 126V114H28V117C28 117.53 28.2107 118.039 28.5858 118.414C28.9609 118.789 29.4696 119 30 119C30.5304 119 31.0391 118.789 31.4142 118.414C31.7893 118.039 32 117.53 32 117V114H42V117C42 117.53 42.2107 118.039 42.5858 118.414C42.9609 118.789 43.4696 119 44 119C44.5304 119 45.0391 118.789 45.4142 118.414C45.7893 118.039 46 117.53 46 117V114H56V117C56 117.53 56.2107 118.039 56.5858 118.414C56.9609 118.789 57.4696 119 58 119C58.5304 119 59.0391 118.789 59.4142 118.414C59.7893 118.039 60 117.53 60 117V114H70V117C70 117.53 70.2107 118.039 70.5858 118.414C70.9609 118.789 71.4696 119 72 119C72.5304 119 73.0391 118.789 73.4142 118.414C73.7893 118.039 74 117.53 74 117V114H84V117C84 117.53 84.2107 118.039 84.5858 118.414C84.9609 118.789 85.4696 119 86 119C86.5304 119 87.0391 118.789 87.4142 118.414C87.7893 118.039 88 117.53 88 117V114H98V117C98 117.53 98.2107 118.039 98.5858 118.414C98.9609 118.789 99.4696 119 100 119C100.53 119 101.039 118.789 101.414 118.414C101.789 118.039 102 117.53 102 117V114H112V117C112 117.53 112.211 118.039 112.586 118.414C112.961 118.789 113.47 119 114 119C114.53 119 115.039 118.789 115.414 118.414C115.789 118.039 116 117.53 116 117V114H126C126.53 114 127.039 113.789 127.414 113.414C127.789 113.039 128 112.53 128 112C128 111.47 127.789 110.961 127.414 110.586C127.039 110.211 126.53 110 126 110ZM26 110V80H34V110H26ZM54 110V66H62V110H54ZM82 110V66H90V110H82ZM110 110V80H118V110H110Z" fill="#ECECEC"/>
<path d="M47.77 40.6807C41.4536 44.9707 34.9214 49.4062 26.6138 51.0371C26.1263 51.1328 25.6918 51.4066 25.3951 51.805C25.0983 52.2035 24.9605 52.6981 25.0083 53.1926C25.0562 53.6871 25.2864 54.1461 25.6541 54.4802C26.0218 54.8143 26.5007 54.9996 26.9975 55C27.1276 55.0001 27.2575 54.9877 27.3852 54.9629C36.4936 53.1738 43.3686 48.5049 50.0171 43.9902C54.2547 41.1129 58.3461 38.336 62.6985 36.6481C62.2381 35.4868 62.001 34.2492 61.9995 33C61.9995 32.8716 62.014 32.7469 62.0188 32.6196C57.0062 34.418 52.4705 37.489 47.77 40.6807Z" fill="#ECECEC"/>
<path d="M116.964 53.3789C117.065 52.8581 116.954 52.3187 116.657 51.8793C116.359 51.44 115.9 51.1367 115.379 51.0361C106.856 49.3916 100.302 44.917 93.9641 40.5898C90.1982 37.8383 86.1859 35.4409 81.9785 33.4282C81.9219 34.795 81.5831 36.1352 80.9834 37.3647C84.7303 39.2453 88.3174 41.4286 91.7093 43.8926C98.0716 48.2383 105.283 53.1631 114.621 54.9639C114.879 55.014 115.145 55.0128 115.402 54.9603C115.66 54.9077 115.904 54.8049 116.122 54.6576C116.339 54.5104 116.526 54.3217 116.67 54.1022C116.815 53.8828 116.915 53.637 116.964 53.3789Z" fill="#ECECEC"/>
<path d="M78 33C78 31.8133 77.6481 30.6533 76.9888 29.6666C76.3295 28.6799 75.3925 27.9109 74.2961 27.4567C73.1997 27.0026 71.9933 26.8838 70.8295 27.1153C69.6656 27.3468 68.5965 27.9182 67.7574 28.7574C66.9182 29.5965 66.3468 30.6656 66.1153 31.8295C65.8838 32.9933 66.0026 34.1997 66.4567 35.2961C66.9109 36.3925 67.6799 37.3295 68.6666 37.9888C69.6533 38.6481 70.8133 39 72 39C73.5908 38.9983 75.1159 38.3656 76.2407 37.2407C77.3656 36.1159 77.9983 34.5908 78 33ZM72 35C71.6044 35 71.2178 34.8827 70.8889 34.6629C70.56 34.4432 70.3036 34.1308 70.1522 33.7654C70.0009 33.3999 69.9613 32.9978 70.0384 32.6098C70.1156 32.2219 70.3061 31.8655 70.5858 31.5858C70.8655 31.3061 71.2219 31.1156 71.6098 31.0384C71.9978 30.9613 72.3999 31.0009 72.7654 31.1522C73.1308 31.3036 73.4432 31.56 73.6629 31.8889C73.8827 32.2178 74 32.6044 74 33C73.9993 33.5302 73.7884 34.0385 73.4135 34.4135C73.0385 34.7884 72.5302 34.9993 72 35Z" fill="#ECECEC"/>
<path d="M74 76C74 75.4696 73.7893 74.9609 73.4142 74.5858C73.0391 74.2107 72.5304 74 72 74C71.4696 74 70.9609 74.2107 70.5858 74.5858C70.2107 74.9609 70 75.4696 70 76V80C70 80.5304 70.2107 81.0391 70.5858 81.4142C70.9609 81.7893 71.4696 82 72 82C72.5304 82 73.0391 81.7893 73.4142 81.4142C73.7893 81.0391 74 80.5304 74 80V76Z" fill="#ECECEC"/>
<path d="M74 56C74 55.4696 73.7893 54.9609 73.4142 54.5858C73.0391 54.2107 72.5304 54 72 54C71.4696 54 70.9609 54.2107 70.5858 54.5858C70.2107 54.9609 70 55.4696 70 56V60C70 60.5304 70.2107 61.0391 70.5858 61.4142C70.9609 61.7893 71.4696 62 72 62C72.5304 62 73.0391 61.7893 73.4142 61.4142C73.7893 61.0391 74 60.5304 74 60V56Z" fill="#ECECEC"/>
<path d="M72 94C71.4696 94 70.9609 94.2107 70.5858 94.5858C70.2107 94.9609 70 95.4696 70 96V100C70 100.53 70.2107 101.039 70.5858 101.414C70.9609 101.789 71.4696 102 72 102C72.5304 102 73.0391 101.789 73.4142 101.414C73.7893 101.039 74 100.53 74 100V96C74 95.4696 73.7893 94.9609 73.4142 94.5858C73.0391 94.2107 72.5304 94 72 94Z" fill="#ECECEC"/>
<path d="M74 46C74 45.4696 73.7893 44.9609 73.4142 44.5858C73.0391 44.2107 72.5304 44 72 44C71.4696 44 70.9609 44.2107 70.5858 44.5858C70.2107 44.9609 70 45.4696 70 46V50C70 50.5304 70.2107 51.0391 70.5858 51.4142C70.9609 51.7893 71.4696 52 72 52C72.5304 52 73.0391 51.7893 73.4142 51.4142C73.7893 51.0391 74 50.5304 74 50V46Z" fill="#ECECEC"/>
<path d="M74 86C74 85.4696 73.7893 84.9609 73.4142 84.5858C73.0391 84.2107 72.5304 84 72 84C71.4696 84 70.9609 84.2107 70.5858 84.5858C70.2107 84.9609 70 85.4696 70 86V90C70 90.5304 70.2107 91.0391 70.5858 91.4142C70.9609 91.7893 71.4696 92 72 92C72.5304 92 73.0391 91.7893 73.4142 91.4142C73.7893 91.0391 74 90.5304 74 90V86Z" fill="#ECECEC"/>
<path d="M74 66C74 65.4696 73.7893 64.9609 73.4142 64.5858C73.0391 64.2107 72.5304 64 72 64C71.4696 64 70.9609 64.2107 70.5858 64.5858C70.2107 64.9609 70 65.4696 70 66V70C70 70.5304 70.2107 71.0391 70.5858 71.4142C70.9609 71.7893 71.4696 72 72 72C72.5304 72 73.0391 71.7893 73.4142 71.4142C73.7893 71.0391 74 70.5304 74 70V66Z" fill="#ECECEC"/>
</svg>
