<svg width="76" height="94" viewBox="0 0 76 94" fill="none" xmlns="http://www.w3.org/2000/svg">
<path d="M38 93.3789C37.3984 93.3789 36.8047 93.2031 36.3008 92.875L1.78078 70.477V70.4731C0.894061 69.8989 0.35498 68.9106 0.35498 67.852V26.082C0.366699 25.5976 0.491701 25.125 0.714361 24.6992V24.6953L0.718266 24.6914V24.6875L0.722173 24.6836V24.6797L0.726079 24.6758L0.733891 24.6601L0.729986 24.668C0.835456 24.4687 0.964366 24.2851 1.1089 24.1133V24.1094L1.12062 24.0976V24.0937L1.12843 24.0859H1.13233L1.12843 24.0937C1.31984 23.8711 1.54249 23.6797 1.78859 23.5195L36.3006 1.12452C37.3358 0.452635 38.6678 0.452635 39.699 1.12452L74.211 23.5195C74.4571 23.6797 74.6797 23.8711 74.8711 24.0937H74.875L74.8829 24.1015V24.1055L74.8946 24.1172V24.1211L74.8907 24.1133C75.0352 24.2851 75.1641 24.4687 75.2735 24.668L75.2813 24.6836L75.2852 24.6875V24.6914L75.2891 24.6953V24.6992L75.293 24.7031V24.707L75.2891 24.6992C75.5118 25.125 75.6329 25.5976 75.6446 26.082V67.855V67.8511C75.6446 68.9097 75.1094 69.898 74.2188 70.4722L39.6988 92.8742C39.1949 93.2023 38.6015 93.3789 38 93.3789ZM41.125 50.2419V84.4999L69.395 66.1559V31.8979L41.125 50.2419ZM6.60498 66.1559L34.875 84.4999V50.2419L6.60498 31.8979V66.1559ZM9.22198 26.1482L37.999 44.8162L66.776 26.1442L37.999 7.47222L9.22198 26.1482Z" fill="#ECECEC"/>
</svg>
