<svg width="369" height="370" viewBox="0 0 369 370" fill="none" xmlns="http://www.w3.org/2000/svg">
<path fill-rule="evenodd" clip-rule="evenodd" d="M184.1 272.5C172.2 272.5 160.8 270.2 149.9 265.6C139.5 261.2 130.1 254.8 122 246.8C113.9 238.8 107.6 229.4 103.2 218.9C98.5998 208.1 96.2998 196.6 96.2998 184.7C96.2998 172.8 98.5998 161.4 103.2 150.5C107.6 140.1 114 130.7 122 122.6C130 114.5 139.4 108.2 149.9 103.8C160.7 99.1999 172.2 96.8999 184.1 96.8999C196 96.8999 207.4 99.1999 218.3 103.8C228.7 108.2 238.1 114.6 246.2 122.6C254.3 130.6 260.6 140 265 150.5C269.6 161.3 271.9 172.8 271.9 184.7C271.9 196.6 269.6 208 265 218.9C260.6 229.3 254.2 238.7 246.2 246.8C238.2 254.9 228.8 261.2 218.3 265.6C207.5 270.2 196 272.5 184.1 272.5ZM184.1 108.5C163.7 108.5 144.6 116.4 130.2 130.8C115.8 145.2 107.9 164.4 107.9 184.7C107.9 205 115.8 224.2 130.2 238.6C144.6 253 163.8 260.9 184.1 260.9C204.4 260.9 223.6 253 238 238.6C252.4 224.2 260.3 205 260.3 184.7C260.3 164.4 252.4 145.2 238 130.8C223.6 116.4 204.5 108.5 184.1 108.5Z" fill="#ECECEC"/>
<path fill-rule="evenodd" clip-rule="evenodd" d="M184.3 369.1C169.4 369.1 157.3 357 157.3 342.1C157.3 327.2 169.4 315.1 184.3 315.1C199.2 315.1 211.3 327.2 211.3 342.1C211.3 356.9 199.2 369.1 184.3 369.1ZM184.3 326.5C175.7 326.5 168.8 333.5 168.8 342C168.8 350.5 175.8 357.5 184.3 357.5C192.8 357.5 199.8 350.5 199.8 342C199.8 333.4 192.8 326.5 184.3 326.5Z" fill="#ECECEC"/>
<path fill-rule="evenodd" clip-rule="evenodd" d="M184.1 326.3C180.9 326.3 178.3 323.7 178.3 320.5V266.5C178.3 263.3 180.9 260.7 184.1 260.7C187.3 260.7 189.9 263.3 189.9 266.5V320.5C189.9 323.8 187.3 326.3 184.1 326.3Z" fill="#ECECEC"/>
<path fill-rule="evenodd" clip-rule="evenodd" d="M184.3 54.5C169.4 54.5 157.3 42.4 157.3 27.5C157.3 12.6 169.4 0.5 184.3 0.5C199.2 0.5 211.3 12.6 211.3 27.5C211.3 42.4 199.2 54.5 184.3 54.5ZM184.3 11.9C175.7 11.9 168.8 18.9 168.8 27.4C168.8 35.9 175.8 42.9 184.3 42.9C192.8 42.9 199.8 35.9 199.8 27.4C199.8 18.9 192.8 11.9 184.3 11.9Z" fill="#ECECEC"/>
<path fill-rule="evenodd" clip-rule="evenodd" d="M184.1 108.4C180.9 108.4 178.3 105.8 178.3 102.6V48.9001C178.3 45.7001 180.9 43.1001 184.1 43.1001C187.3 43.1001 189.9 45.7001 189.9 48.9001V102.6C189.9 105.8 187.3 108.4 184.1 108.4Z" fill="#ECECEC"/>
<path fill-rule="evenodd" clip-rule="evenodd" d="M341.5 211.8C326.6 211.8 314.5 199.7 314.5 184.8C314.5 169.9 326.6 157.8 341.5 157.8C356.4 157.8 368.5 169.9 368.5 184.8C368.6 199.6 356.4 211.8 341.5 211.8ZM341.5 169.2C332.9 169.2 326 176.2 326 184.7C326 193.2 333 200.2 341.5 200.2C350 200.2 357 193.2 357 184.7C357.1 176.2 350.1 169.2 341.5 169.2Z" fill="#ECECEC"/>
<path fill-rule="evenodd" clip-rule="evenodd" d="M320.1 190.6H266.1C262.9 190.6 260.3 188 260.3 184.8C260.3 181.6 262.9 179 266.1 179H320.1C323.3 179 325.9 181.6 325.9 184.8C325.9 188.1 323.3 190.6 320.1 190.6Z" fill="#ECECEC"/>
<path fill-rule="evenodd" clip-rule="evenodd" d="M27 211.8C12.1 211.8 0 199.7 0 184.8C0 169.9 12.1 157.8 27 157.8C41.9 157.8 54 169.9 54 184.8C54 199.6 41.9 211.8 27 211.8ZM27 169.2C18.4 169.2 11.5 176.2 11.5 184.7C11.5 193.2 18.5 200.2 27 200.2C35.5 200.2 42.5 193.2 42.5 184.7C42.5 176.2 35.6 169.2 27 169.2Z" fill="#ECECEC"/>
<path fill-rule="evenodd" clip-rule="evenodd" d="M102.1 190.6H48.4001C45.2001 190.6 42.6001 188 42.6001 184.8C42.6001 181.6 45.2001 179 48.4001 179H102.1C105.3 179 107.9 181.6 107.9 184.8C107.9 188 105.3 190.6 102.1 190.6Z" fill="#ECECEC"/>
<path fill-rule="evenodd" clip-rule="evenodd" d="M295.5 323C288.3 323 281.5 320.2 276.4 315.1C271.3 310 268.5 303.2 268.5 296C268.5 288.8 271.3 282 276.4 276.9C281.5 271.8 288.3 269 295.5 269C302.7 269 309.5 271.8 314.6 276.9C319.7 282 322.5 288.8 322.5 296C322.5 303.2 319.7 310 314.6 315.1C309.5 320.2 302.7 323 295.5 323ZM295.5 280.4C291.3 280.4 287.5 282 284.5 285C281.5 288 279.9 291.8 279.9 296C279.9 300.2 281.5 304 284.5 307C287.5 310 291.3 311.6 295.5 311.6C299.7 311.6 303.5 310 306.5 307C309.5 304 311.1 300.2 311.1 296C311.1 291.8 309.5 288 306.5 285C303.5 282 299.6 280.4 295.5 280.4Z" fill="#ECECEC"/>
<path fill-rule="evenodd" clip-rule="evenodd" d="M280.2 286.6C278.7 286.6 277.2 286 276.1 284.9L238 246.8C235.7 244.5 235.7 240.9 238 238.7C240.3 236.4 243.9 236.4 246.1 238.7L284.3 276.9C286.6 279.2 286.6 282.8 284.3 285C283.2 286.1 281.7 286.6 280.2 286.6Z" fill="#ECECEC"/>
<path fill-rule="evenodd" clip-rule="evenodd" d="M73 100.6C65.8 100.6 59 97.8001 53.9 92.7001C48.8 87.6001 46 80.8001 46 73.6001C46 66.4001 48.8 59.6001 53.9 54.5001C59 49.4001 65.8 46.6001 73 46.6001C80.2 46.6001 87 49.4001 92.1 54.5001C97.2 59.6001 100 66.4001 100 73.6001C100 80.8001 97.2 87.6001 92.1 92.7001C87.1 97.8001 80.3 100.6 73 100.6ZM73 58.0001C68.8 58.0001 65 59.6001 62 62.6001C59 65.6001 57.4 69.4001 57.4 73.6001C57.4 77.8001 59 81.6001 62 84.6001C65 87.6001 68.8 89.2001 73 89.2001C77.2 89.2001 81 87.6001 84 84.6001C87 81.6001 88.6 77.8001 88.6 73.6001C88.6 69.4001 87 65.6001 84 62.6001C81.1 59.6001 77.2 58.0001 73 58.0001Z" fill="#ECECEC"/>
<path fill-rule="evenodd" clip-rule="evenodd" d="M126.1 132.5C124.6 132.5 123.1 131.9 122 130.8L83.9999 92.8001C81.6999 90.5001 81.6999 86.9001 83.9999 84.7001C86.2999 82.4001 89.8999 82.4001 92.0999 84.7001L130.1 122.7C132.4 125 132.4 128.6 130.1 130.8C129 132 127.5 132.5 126.1 132.5Z" fill="#ECECEC"/>
<path fill-rule="evenodd" clip-rule="evenodd" d="M295.5 100.6C288.3 100.6 281.5 97.8001 276.4 92.7001C271.3 87.6001 268.5 80.8001 268.5 73.6001C268.5 66.4001 271.3 59.6001 276.4 54.5001C281.5 49.4001 288.3 46.6001 295.5 46.6001C302.7 46.6001 309.5 49.4001 314.6 54.5001C319.7 59.6001 322.5 66.4001 322.5 73.6001C322.5 80.8001 319.7 87.6001 314.6 92.7001C309.5 97.8001 302.7 100.6 295.5 100.6ZM295.5 58.0001C291.3 58.0001 287.5 59.6001 284.5 62.6001C281.5 65.6001 279.9 69.4001 279.9 73.6001C279.9 77.8001 281.5 81.6001 284.5 84.6001C287.5 87.6001 291.3 89.2001 295.5 89.2001C299.7 89.2001 303.5 87.6001 306.5 84.6001C309.5 81.6001 311.1 77.8001 311.1 73.6001C311.1 69.4001 309.5 65.6001 306.5 62.6001C303.5 59.6001 299.6 58.0001 295.5 58.0001Z" fill="#ECECEC"/>
<path fill-rule="evenodd" clip-rule="evenodd" d="M242.2 132.7C240.7 132.7 239.2 132.1 238.1 131C235.8 128.7 235.8 125.1 238.1 122.9L276.3 84.7001C278.6 82.4001 282.2 82.4001 284.4 84.7001C286.7 87.0001 286.7 90.6001 284.4 92.8001L246.3 131C245.2 132.2 243.7 132.7 242.2 132.7Z" fill="#ECECEC"/>
<path fill-rule="evenodd" clip-rule="evenodd" d="M73 323C65.8 323 59 320.2 53.9 315.1C48.8 310 46 303.2 46 296C46 288.8 48.8 282 53.9 276.9C59 271.8 65.8 269 73 269C80.2 269 87 271.8 92.1 276.9C97.2 282 100 288.8 100 296C100 303.2 97.2 310 92.1 315.1C87.1 320.2 80.3 323 73 323ZM73 280.4C68.8 280.4 65 282 62 285C59 288 57.4 291.8 57.4 296C57.4 300.2 59 304 62 307C65 310 68.8 311.6 73 311.6C77.2 311.6 81 310 84 307C87 304 88.6 300.2 88.6 296C88.6 291.8 87 288 84 285C81.1 282 77.2 280.4 73 280.4Z" fill="#ECECEC"/>
<path fill-rule="evenodd" clip-rule="evenodd" d="M88.3001 286.6C86.8001 286.6 85.3001 286 84.2001 284.9C81.9001 282.6 81.9001 279 84.2001 276.8L122.2 238.8C124.5 236.5 128.1 236.5 130.3 238.8C132.6 241.1 132.6 244.7 130.3 246.9L92.3001 284.9C91.3001 286.1 89.8001 286.6 88.3001 286.6Z" fill="#ECECEC"/>
</svg>
