<svg width="354" height="180" viewBox="0 0 354 180" fill="none" xmlns="http://www.w3.org/2000/svg">
<path fill-rule="evenodd" clip-rule="evenodd" d="M49.8999 31.4458H39.0497C17.9368 31.4458 0.795898 48.587 0.795898 69.6999V141C0.795898 162.113 17.9368 179.254 39.0497 179.254H314.95C336.063 179.254 353.204 162.113 353.204 141V69.6999C353.204 48.587 336.063 31.4458 314.95 31.4458H304.1V5.21982C304.1 2.65332 302.016 0.569824 299.45 0.569824H290.15C287.584 0.569824 285.5 2.65332 285.5 5.21982V31.4458H225.566V5.21982C225.566 2.65332 223.483 0.569824 220.916 0.569824H211.616C209.05 0.569824 206.966 2.65332 206.966 5.21982V31.4458H147.033V5.21982C147.033 2.65332 144.949 0.569824 142.383 0.569824H133.083C130.517 0.569824 128.433 2.65332 128.433 5.21982V31.4458H68.4999V5.21982C68.4999 2.65332 66.4161 0.569824 63.8499 0.569824H54.5499C51.9834 0.569824 49.8999 2.65332 49.8999 5.21982V31.4458ZM304.1 36.6538V41.6449C311.468 45.136 316.568 52.6415 316.568 61.329C316.568 73.3434 306.814 83.0976 294.8 83.0976C282.786 83.0976 273.031 73.3434 273.031 61.329C273.031 52.6415 278.132 45.136 285.5 41.6449V36.6538H225.566V41.6449C232.935 45.136 238.035 52.6415 238.035 61.329C238.035 73.3434 228.281 83.0976 216.266 83.0976C204.252 83.0976 194.498 73.3434 194.498 61.329C194.498 52.6415 199.598 45.136 206.966 41.6449V36.6538H147.033V41.6449C154.401 45.136 159.502 52.6415 159.502 61.329C159.502 73.3434 149.747 83.0976 137.733 83.0976C125.719 83.0976 115.965 73.3434 115.965 61.329C115.965 52.6415 121.065 45.136 128.433 41.6449V36.6538H68.4999V41.6449C75.8679 45.136 80.9681 52.6415 80.9681 61.329C80.9681 73.3434 71.214 83.0976 59.1999 83.0976C47.1855 83.0976 37.4314 73.3434 37.4314 61.329C37.4314 52.6415 42.5316 45.136 49.8999 41.6449V36.6538H39.0497C20.8113 36.6538 6.0039 51.4612 6.0039 69.6999V141C6.0039 159.239 20.8113 174.046 39.0497 174.046H314.95C333.188 174.046 347.996 159.239 347.996 141V69.6996C347.996 51.4612 333.188 36.6538 314.95 36.6538H304.1ZM273.272 99.5415C272.829 98.682 271.943 98.1418 270.976 98.1418C270.009 98.1418 269.123 98.682 268.68 99.5415L265.766 105.197L259.707 103.258C258.786 102.964 257.777 103.208 257.094 103.892C256.41 104.576 256.166 105.584 256.46 106.505L258.399 112.565L252.743 115.479C251.884 115.921 251.344 116.807 251.344 117.774C251.344 118.741 251.884 119.627 252.743 120.07L258.399 122.984C258.399 122.984 256.46 129.043 256.46 129.043C256.166 129.965 256.41 130.973 257.094 131.657C257.777 132.34 258.786 132.585 259.707 132.29L265.766 130.351L268.68 136.007C269.123 136.867 270.009 137.407 270.976 137.407C271.943 137.407 272.829 136.867 273.272 136.007L276.186 130.351L282.245 132.29C283.166 132.585 284.174 132.34 284.858 131.657C285.542 130.973 285.787 129.965 285.492 129.043L283.553 122.984C283.553 122.984 289.209 120.07 289.209 120.07C290.068 119.627 290.609 118.741 290.609 117.774C290.609 116.807 290.068 115.921 289.209 115.479L283.553 112.565L285.492 106.505C285.787 105.584 285.542 104.576 284.858 103.892C284.174 103.208 283.166 102.964 282.245 103.258L276.186 105.197L273.272 99.5415ZM320.321 99.5415C319.878 98.682 318.992 98.1418 318.025 98.1418C317.058 98.1418 316.172 98.682 315.73 99.5415L312.816 105.197L306.756 103.258C305.835 102.964 304.827 103.208 304.143 103.892C303.459 104.576 303.215 105.584 303.51 106.505L305.448 112.565L299.793 115.479C298.933 115.921 298.393 116.807 298.393 117.774C298.393 118.741 298.933 119.627 299.793 120.07L305.448 122.984C305.448 122.984 303.51 129.043 303.51 129.043C303.215 129.965 303.459 130.973 304.143 131.657C304.827 132.34 305.835 132.585 306.756 132.29L312.816 130.351L315.73 136.007C316.172 136.867 317.058 137.407 318.025 137.407C318.992 137.407 319.878 136.867 320.321 136.007L323.235 130.351L329.295 132.29C330.216 132.585 331.224 132.34 331.908 131.657C332.591 130.973 332.836 129.965 332.541 129.043L330.602 122.984C330.602 122.984 336.258 120.07 336.258 120.07C337.118 119.627 337.658 118.741 337.658 117.774C337.658 116.807 337.118 115.921 336.258 115.479L330.602 112.565L332.541 106.505C332.836 105.584 332.591 104.576 331.908 103.892C331.224 103.208 330.216 102.964 329.295 103.258L323.235 105.197L320.321 99.5415ZM55.5793 109.261C55.5793 103.126 50.5981 98.1448 44.4625 98.1448H27.437C21.3014 98.1448 16.3202 103.126 16.3202 109.261V126.287C16.3202 132.423 21.3014 137.404 27.437 137.404H44.4625C50.5981 137.404 55.5793 132.423 55.5793 126.287V109.261ZM196.58 109.261C196.58 103.126 191.599 98.1448 185.464 98.1448H168.438C162.303 98.1448 157.321 103.126 157.321 109.261V126.287C157.321 132.423 162.303 137.404 168.438 137.404H185.464C191.599 137.404 196.58 132.423 196.58 126.287V109.261ZM243.581 109.261C243.581 103.126 238.599 98.1448 232.464 98.1448H215.438C209.303 98.1448 204.322 103.126 204.322 109.261V126.287C204.322 132.423 209.303 137.404 215.438 137.404H232.464C238.599 137.404 243.581 132.423 243.581 126.287V109.261ZM102.58 109.261C102.58 103.126 97.5983 98.1448 91.463 98.1448H74.4373C68.302 98.1448 63.3208 103.126 63.3208 109.261V126.287C63.3208 132.423 68.302 137.404 74.4373 137.404H91.463C97.5983 137.404 102.58 132.423 102.58 126.287V109.261ZM149.58 109.261C149.58 103.126 144.599 98.1448 138.463 98.1448H121.438C115.302 98.1448 110.321 103.126 110.321 109.261V126.287C110.321 132.423 115.302 137.404 121.438 137.404H138.463C144.599 137.404 149.58 132.423 149.58 126.287V109.261ZM50.3713 109.261V126.287C50.3713 129.548 47.7238 132.196 44.4625 132.196H27.437C24.1759 132.196 21.5282 129.548 21.5282 126.287V109.261C21.5282 106 24.1759 103.353 27.437 103.353H44.4625C47.7238 103.353 50.3713 106 50.3713 109.261ZM144.372 109.261V126.287C144.372 129.548 141.724 132.196 138.463 132.196H121.438C118.176 132.196 115.529 129.548 115.529 126.287V109.261C115.529 106 118.176 103.353 121.438 103.353H138.463C141.724 103.353 144.372 106 144.372 109.261ZM97.3716 109.261V126.287C97.3716 129.548 94.7241 132.196 91.463 132.196H74.4373C71.1762 132.196 68.5288 129.548 68.5288 126.287V109.261C68.5288 106 71.1762 103.353 74.4373 103.353H91.463C94.7241 103.353 97.3716 106 97.3716 109.261ZM191.372 109.261V126.287C191.372 129.548 188.725 132.196 185.464 132.196H168.438C165.177 132.196 162.529 129.548 162.529 126.287V109.261C162.529 106 165.177 103.353 168.438 103.353H185.464C188.725 103.353 191.372 106 191.372 109.261ZM238.373 109.261V126.287C238.373 129.548 235.725 132.196 232.464 132.196H215.438C212.177 132.196 209.53 129.548 209.53 126.287V109.261C209.53 106 212.177 103.353 215.438 103.353H232.464C235.725 103.353 238.373 106 238.373 109.261ZM318.025 106.363L319.645 109.506C320.222 110.627 321.526 111.167 322.727 110.783L326.094 109.705L325.017 113.072C324.633 114.274 325.172 115.577 326.294 116.155L329.436 117.774L326.294 119.393C325.172 119.971 324.633 121.275 325.017 122.476L326.094 125.843L322.727 124.766C321.526 124.382 320.222 124.921 319.645 126.043L318.025 129.185L316.406 126.043C315.828 124.921 314.525 124.382 313.324 124.766L309.956 125.843L311.034 122.476C311.418 121.275 310.878 119.971 309.757 119.393L306.614 117.774L309.757 116.155C310.878 115.577 311.418 114.274 311.034 113.072L309.956 109.705L313.324 110.783C314.525 111.167 315.828 110.627 316.406 109.506L318.025 106.363ZM270.976 106.363L272.595 109.506C273.173 110.627 274.476 111.167 275.678 110.783L279.045 109.705L277.968 113.072C277.583 114.274 278.123 115.577 279.244 116.155L282.387 117.774L279.244 119.393C278.123 119.971 277.583 121.275 277.968 122.476L279.045 125.843L275.678 124.766C274.476 124.382 273.173 124.921 272.595 126.043L270.976 129.185L269.357 126.043C268.779 124.921 267.476 124.382 266.274 124.766L262.907 125.843L263.984 122.476C264.369 121.275 263.829 119.971 262.707 119.393L259.565 117.774L262.707 116.155C263.829 115.577 264.369 114.274 263.984 113.072L262.907 109.705L266.274 110.783C267.476 111.167 268.779 110.627 269.357 109.506L270.976 106.363Z" fill="#ECECEC"/>
</svg>
