<svg width="84" height="84" viewBox="0 0 84 84" fill="none" xmlns="http://www.w3.org/2000/svg">
<path d="M42.0001 0.3165V0.320406H41.9962C18.9802 0.320406 0.324219 18.9764 0.324219 41.9964C0.324219 65.0124 18.9802 83.6724 42.0002 83.6724C65.0162 83.6724 83.6762 65.0124 83.6762 41.9964C83.6762 18.9764 65.0161 0.3165 42.0001 0.3165ZM22.2891 9.7579C21.504 11.2462 20.7813 12.8204 20.1172 14.4727C19.1211 14.1602 18.1524 13.8282 17.2149 13.4727C18.793 12.0977 20.4883 10.8555 22.2813 9.7579H22.2891ZM61.7151 9.7579C63.5081 10.8517 65.2073 12.0977 66.7854 13.4727H66.7815C65.844 13.8243 64.8792 14.1602 63.8831 14.4727C63.2152 12.8243 62.4925 11.2461 61.7073 9.7579H61.7151ZM43.9451 4.2579H43.949C47.8435 4.45321 51.5818 5.24228 55.078 6.5313H55.0702C56.9725 9.0235 58.6913 12.0508 60.1405 15.5274H60.1327C55.2382 16.7422 49.7887 17.4844 43.9417 17.6212L43.9451 4.2579ZM40.0428 4.2579L40.0545 17.6209V17.6248C34.2068 17.4842 28.7615 16.742 23.8665 15.5271H23.8587C25.3079 12.0505 27.0228 9.02711 28.9212 6.53491L28.929 6.531C32.4251 5.238 36.1486 4.4532 40.0428 4.2579ZM14.1798 16.4259C15.6603 17.0314 17.1954 17.59 18.7892 18.0939L18.7931 18.0978C16.6173 24.6837 15.3322 32.2108 15.1525 40.0508L4.26153 40.0391C4.72247 30.9414 8.39823 22.7111 14.1756 16.4261L14.1798 16.4259ZM22.5001 19.1525V19.1564H22.504C27.9649 20.547 33.914 21.3673 40.059 21.5119H40.0551V40.0509H19.0391C19.2188 32.254 20.4845 25.1715 22.5001 19.1525ZM61.4921 19.1525V19.1564H61.496C63.5155 25.172 64.7772 32.2544 64.9569 40.0514H43.9409V21.5164L43.937 21.5203C50.0815 21.368 56.0311 20.547 61.4921 19.1525ZM69.8163 16.4259H69.8202C75.5975 22.7071 79.2772 30.9569 79.7382 40.0509V40.0548L68.8472 40.0509C68.6636 32.2111 67.3784 24.6879 65.2066 18.0979L65.2027 18.1018C66.7965 17.5901 68.3358 17.0314 69.8163 16.4259ZM40.0543 43.9419V62.4769H40.0465C33.9059 62.6214 27.9565 63.4378 22.4995 64.8324V64.8363C20.4839 58.8168 19.2222 51.7383 19.0386 43.9453L19.0347 43.9492L40.0543 43.9419ZM64.9523 43.938V43.9419H64.9562V43.9458C64.7765 51.7349 63.5109 58.8168 61.4953 64.8328V64.8367C56.0383 63.4383 50.0893 62.6219 43.9483 62.4773H43.9405V43.9423L64.9523 43.938ZM15.1513 43.9419V43.9458C15.331 51.7817 16.6161 59.3048 18.7919 65.8948H18.788C17.1942 66.4026 15.6552 66.9612 14.1747 67.5667C8.39742 61.2815 4.72162 53.0357 4.26062 43.9417L15.1513 43.9419ZM79.7293 43.938V43.9419H79.7371V43.9458C79.2762 53.0356 75.5965 61.2818 69.8191 67.5628L69.8152 67.5667C68.3386 66.9573 66.7996 66.4026 65.2097 65.8948L65.2058 65.8987C67.3777 59.3049 68.6628 51.7817 68.8464 43.9457H68.8386L79.7293 43.938ZM20.1163 69.52C20.7843 71.1723 21.5108 72.7505 22.296 74.2427L22.2921 74.2466C20.4952 73.1411 18.796 71.895 17.214 70.52H17.2179C18.1554 70.1606 19.1202 69.8325 20.1124 69.52H20.1163ZM63.8783 69.5161L63.8861 69.52C64.8822 69.8286 65.8509 70.1645 66.7884 70.52H66.7845C65.1986 71.895 63.4993 73.1411 61.7025 74.2427V74.2466C62.4877 72.7466 63.2142 71.1685 63.8783 69.5161ZM43.9403 66.3677L43.9481 66.3716C49.7958 66.5005 55.2451 67.2466 60.1431 68.4614L60.1353 68.4653C58.6861 71.938 56.9673 74.9692 55.065 77.4653H55.0572C51.565 78.7505 47.8306 79.5356 43.9402 79.7348L43.9403 66.3677ZM40.0458 66.3638V66.3677L40.0536 66.3716V79.7346C36.163 79.5354 32.4286 78.7502 28.9326 77.4612L28.9287 77.4651C27.0264 74.969 25.3076 71.9417 23.8584 68.469H23.8545C28.7529 67.2463 34.1988 66.5005 40.0458 66.3638Z" fill="#ECECEC"/>
</svg>
