<svg width="327" height="324" viewBox="0 0 327 324" fill="none" xmlns="http://www.w3.org/2000/svg">
<path d="M35.5765 0.842773H101.036C110.796 0.842773 119.666 4.82277 126.086 11.2428C132.506 17.6628 136.486 26.5228 136.486 36.2928V101.753C136.486 111.513 132.506 120.383 126.086 126.793C119.666 133.213 110.806 137.193 101.036 137.193H35.5765C25.8165 137.193 16.9465 133.213 10.5265 126.793C4.10646 120.373 0.126465 111.513 0.126465 101.753V36.2928C0.126465 26.5228 4.10646 17.6628 10.5265 11.2428C16.9465 4.82277 25.8065 0.842773 35.5765 0.842773ZM258.366 186.803C277.126 186.803 294.166 194.473 306.516 206.823C318.866 219.173 326.536 236.223 326.536 254.973C326.536 273.733 318.866 290.773 306.516 303.123C294.166 315.473 277.116 323.143 258.366 323.143C239.606 323.143 222.566 315.473 210.216 303.123C197.866 290.773 190.196 273.723 190.196 254.973C190.196 236.213 197.866 219.173 210.216 206.823C222.566 194.473 239.616 186.803 258.366 186.803ZM295.706 217.633C286.116 208.043 272.906 202.093 258.366 202.093C243.836 202.093 230.616 208.043 221.026 217.633C211.436 227.223 205.486 240.443 205.486 254.973C205.486 269.513 211.436 282.723 221.026 292.313C230.616 301.903 243.836 307.853 258.366 307.853C272.896 307.853 286.116 301.903 295.706 292.313C305.296 282.723 311.246 269.513 311.246 254.973C311.246 240.443 305.296 227.223 295.706 217.633ZM35.5765 186.803H101.036C110.796 186.803 119.666 190.783 126.086 197.203C132.506 203.623 136.486 212.483 136.486 222.243V287.703C136.486 297.473 132.506 306.333 126.086 312.753C119.666 319.173 110.806 323.153 101.036 323.153H35.5765C25.8165 323.153 16.9465 319.173 10.5265 312.753C4.10646 306.333 0.126465 297.473 0.126465 287.703V222.243C0.126465 212.483 4.10646 203.613 10.5265 197.203C16.9465 190.783 25.8065 186.803 35.5765 186.803ZM101.036 202.103H35.5765C30.0365 202.103 24.9965 204.363 21.3465 208.013C17.6965 211.663 15.4365 216.703 15.4365 222.243V287.703C15.4365 293.243 17.6965 298.283 21.3465 301.933C24.9965 305.583 30.0365 307.843 35.5765 307.843H101.036C106.576 307.843 111.616 305.583 115.266 301.933C118.916 298.283 121.176 293.243 121.176 287.703V222.243C121.176 216.703 118.916 211.663 115.266 208.013C111.616 204.363 106.576 202.103 101.036 202.103ZM225.626 0.842773H291.086C300.856 0.842773 309.716 4.82277 316.136 11.2428C322.556 17.6628 326.536 26.5228 326.536 36.2928V101.753C326.536 111.513 322.556 120.383 316.136 126.793C309.716 133.213 300.856 137.193 291.086 137.193H225.626C215.866 137.193 206.996 133.213 200.576 126.793C194.156 120.373 190.176 111.513 190.176 101.753V36.2928C190.176 26.5228 194.156 17.6628 200.576 11.2428C206.986 4.82277 215.856 0.842773 225.616 0.842773H225.626ZM291.086 16.1428H225.626C220.086 16.1428 215.046 18.4028 211.396 22.0528C207.746 25.7028 205.486 30.7428 205.486 36.2828V101.743C205.486 107.283 207.746 112.323 211.396 115.973C215.046 119.623 220.086 121.883 225.626 121.883H291.086C296.626 121.883 301.666 119.623 305.316 115.973C308.966 112.323 311.226 107.283 311.226 101.743V36.2828C311.226 30.7428 308.966 25.7028 305.316 22.0528C301.666 18.4028 296.626 16.1428 291.086 16.1428ZM101.026 16.1428H35.5665C30.0265 16.1428 24.9865 18.4028 21.3365 22.0528C17.6865 25.7028 15.4265 30.7428 15.4265 36.2828V101.743C15.4265 107.283 17.6865 112.323 21.3365 115.973C24.9865 119.623 30.0265 121.883 35.5665 121.883H101.026C106.566 121.883 111.606 119.623 115.256 115.973C118.906 112.323 121.166 107.283 121.166 101.743V36.2828C121.166 30.7428 118.906 25.7028 115.256 22.0528C111.606 18.4028 106.566 16.1428 101.026 16.1428Z" fill="#ECECEC"/>
</svg>
