<svg width="94" height="90" viewBox="0 0 94 90" fill="none" xmlns="http://www.w3.org/2000/svg">
<path fill-rule="evenodd" clip-rule="evenodd" d="M0.140641 1.76562C0.140641 1.3125 0.507831 0.945312 0.960951 0.945312C1.41407 0.945312 1.78126 1.3125 1.78126 1.76562V6.98832H4.97266C5.4336 6.98832 5.80469 7.35941 5.80469 7.82035C5.80469 8.28129 5.4336 8.65238 4.97266 8.65238H1.77736V19.3754H4.96876C5.4297 19.3754 5.80079 19.7465 5.80079 20.2074C5.80079 20.6684 5.4297 21.0394 4.96876 21.0394L1.77736 21.0434V31.7663H4.96876C5.4297 31.7663 5.80079 32.1374 5.80079 32.5984C5.80079 33.0593 5.4297 33.4304 4.96876 33.4304L1.77736 33.4343V44.1573H4.96876C5.4297 44.1573 5.80079 44.5284 5.80079 44.9893C5.80079 45.4503 5.4297 45.8214 4.96876 45.8214L1.77736 45.8253V56.5483H4.96876C5.4297 56.5483 5.80079 56.9194 5.80079 57.3803C5.80079 57.8413 5.4297 58.2123 4.96876 58.2123L1.77736 58.2162V68.9392H4.96876C5.4297 68.9392 5.80079 69.3103 5.80079 69.7713C5.80079 70.2322 5.4297 70.6033 4.96876 70.6033L1.77736 70.6072V81.3302H4.96876C5.4297 81.3302 5.80079 81.7013 5.80079 82.1622C5.80079 82.6232 5.4297 82.9943 4.96876 82.9943L1.77736 82.9982V87.4005L13.9494 87.4044V84.2091C13.9494 83.7482 14.3205 83.3771 14.7814 83.3771C15.2423 83.3771 15.6134 83.7482 15.6134 84.2091V87.4005H26.3364V81.631C26.3364 81.17 26.7075 80.799 27.1684 80.799C27.6294 80.799 28.0005 81.17 28.0005 81.631V87.4005L38.7305 87.4044V84.2091C38.7305 83.7482 39.1016 83.3771 39.5625 83.3771C40.0235 83.3771 40.3945 83.7482 40.3945 84.2091V87.4005H51.1175V81.631C51.1175 81.1701 51.4886 80.799 51.9496 80.799C52.4105 80.799 52.7816 81.1701 52.7816 81.631V87.4005L63.5116 87.4044V84.2091C63.5116 83.7482 63.8827 83.3771 64.3436 83.3771C64.8046 83.3771 65.1757 83.7482 65.1757 84.2091V87.4005H75.8987V81.631C75.8987 81.1701 76.2697 80.799 76.7307 80.799C77.1916 80.799 77.5627 81.1701 77.5627 81.631V87.4005H88.2857L88.2935 84.2091C88.2935 83.7482 88.6646 83.3771 89.1256 83.3771C89.5865 83.3771 89.9576 83.7482 89.9576 84.2091V87.4005H93.0553C93.5084 87.4005 93.8756 87.7677 93.8756 88.2208C93.8756 88.6739 93.5084 89.0411 93.0553 89.0411H89.278C89.2272 89.0489 89.1764 89.0567 89.1217 89.0567C89.0671 89.0567 89.0163 89.0528 88.9655 89.0411H76.8915C76.8407 89.0489 76.7899 89.0567 76.7352 89.0567C76.6806 89.0567 76.6298 89.0528 76.579 89.0411H64.501C64.4502 89.0489 64.3994 89.0567 64.3447 89.0567C64.2901 89.0567 64.2393 89.0528 64.1885 89.0411H52.1105C52.0597 89.0489 52.0089 89.0567 51.9542 89.0567C51.8996 89.0567 51.8488 89.0528 51.798 89.0411H39.72C39.6692 89.0489 39.6184 89.0567 39.5637 89.0567C39.5091 89.0567 39.4583 89.0528 39.4075 89.0411H27.3295C27.2787 89.0489 27.2279 89.0567 27.1732 89.0567C27.1186 89.0567 27.0678 89.0528 27.017 89.0411H14.939C14.8882 89.0489 14.8374 89.0567 14.7827 89.0567C14.7281 89.0567 14.6773 89.0528 14.6265 89.0411H0.958494C0.505374 89.0411 0.138184 88.6739 0.138184 88.2208V82.3185C0.130371 82.2716 0.126465 82.2209 0.126465 82.1662C0.126465 82.1115 0.130371 82.0607 0.14209 82.0099V69.9319C0.130371 69.8811 0.126465 69.8304 0.126465 69.7757C0.126465 69.721 0.130371 69.6702 0.14209 69.6194V57.5414C0.130371 57.4906 0.126465 57.4399 0.126465 57.3852C0.126465 57.3305 0.130371 57.2797 0.14209 57.2289V45.1509C0.130371 45.1001 0.126465 45.0494 0.126465 44.9947C0.126465 44.94 0.130371 44.8892 0.14209 44.8384V32.7604C0.130371 32.7096 0.126465 32.6589 0.126465 32.6042C0.126465 32.5495 0.130371 32.4987 0.14209 32.4479V20.3699C0.130371 20.3191 0.126465 20.2684 0.126465 20.2137C0.126465 20.159 0.130371 20.1082 0.14209 20.0574V7.97942C0.130371 7.92864 0.126465 7.87786 0.126465 7.82317C0.126465 7.76848 0.130371 7.7177 0.14209 7.66692L0.140641 1.76562ZM88.2886 76.8166C88.2886 77.094 88.4254 77.3518 88.6558 77.508C89.2105 77.8791 89.9566 77.4846 89.9566 76.8166V73.4846C89.9566 73.2073 89.8199 72.9495 89.5894 72.7932C89.0347 72.4221 88.2886 72.8166 88.2886 73.4846V76.8166ZM88.2886 68.4846C88.2886 68.762 88.4254 69.0198 88.6558 69.176C89.2105 69.5471 89.9566 69.1526 89.9566 68.4846V65.1526C89.9566 64.8753 89.8199 64.6175 89.5894 64.4612C89.0347 64.0901 88.2886 64.4847 88.2886 65.1526V68.4846ZM88.2886 60.1526C88.2886 60.43 88.4254 60.6878 88.6558 60.844C89.2105 61.2151 89.9566 60.8206 89.9566 60.1526V56.8206C89.9566 56.5433 89.8199 56.2855 89.5894 56.1292C89.0347 55.7581 88.2886 56.1526 88.2886 56.8206V60.1526ZM82.5464 21.0436C82.8238 21.0436 83.0816 20.9069 83.2378 20.6764C83.6089 20.1217 83.2144 19.3756 82.5464 19.3756H80.2847C80.0074 19.3756 79.7496 19.5124 79.5933 19.7428C79.2222 20.2975 79.6168 21.0436 80.2847 21.0436H82.5464ZM75.2847 21.0436C75.5621 21.0436 75.8199 20.9069 75.9762 20.6764C76.3472 20.1217 75.9527 19.3756 75.2847 19.3756H71.9527C71.6754 19.3756 71.4176 19.5124 71.2613 19.7428C70.8902 20.2975 71.2848 21.0436 71.9527 21.0436H75.2847ZM66.9527 21.0436C67.2301 21.0436 67.4879 20.9069 67.6441 20.6764C68.0152 20.1217 67.6207 19.3756 66.9527 19.3756H63.6207C63.3434 19.3756 63.0856 19.5124 62.9293 19.7428C62.5582 20.2975 62.9528 21.0436 63.6207 21.0436H66.9527ZM58.6207 21.0436C58.8981 21.0436 59.1559 20.9069 59.3122 20.6764C59.6832 20.1217 59.2887 19.3756 58.6207 19.3756H55.2887C55.0114 19.3756 54.7536 19.5124 54.5973 19.7428C54.2262 20.2975 54.6208 21.0436 55.2887 21.0436H58.6207ZM50.2887 21.0436C50.5661 21.0436 50.8239 20.9069 50.9802 20.6764C51.3512 20.1217 50.9567 19.3756 50.2887 19.3756H46.9567C46.6794 19.3756 46.4216 19.5124 46.2653 19.7428C45.8942 20.2975 46.2888 21.0436 46.9567 21.0436H50.2887ZM41.9567 21.0436C42.2341 21.0436 42.4919 20.9069 42.6482 20.6764C43.0192 20.1217 42.6247 19.3756 41.9567 19.3756L38.6247 19.3795C38.3474 19.3795 38.0896 19.5163 37.9333 19.7467C37.5622 20.3014 37.9568 21.0475 38.6247 21.0475L41.9567 21.0436ZM33.6247 21.0436C33.9021 21.0436 34.1599 20.9069 34.3162 20.6764C34.6872 20.1217 34.2927 19.3756 33.6247 19.3756H30.2927C30.0154 19.3756 29.7576 19.5124 29.6013 19.7428C29.2302 20.2975 29.6248 21.0436 30.2927 21.0436H33.6247ZM25.2927 21.0436C25.5701 21.0436 25.8279 20.9069 25.9841 20.6764C26.3552 20.1217 25.9607 19.3756 25.2927 19.3756H21.9607C21.6834 19.3756 21.4256 19.5124 21.2693 19.7428C20.8982 20.2975 21.2928 21.0436 21.9607 21.0436H25.2927ZM16.9607 21.0436C17.2381 21.0436 17.4959 20.9069 17.6521 20.6764C18.0232 20.1217 17.6287 19.3756 16.9607 19.3756H13.6287C13.3514 19.3756 13.0936 19.5124 12.9373 19.7428C12.5662 20.2975 12.9608 21.0436 13.6287 21.0436H16.9607ZM80.9447 35.6056C78.8627 35.6056 77.1752 37.2931 77.1752 39.3751C77.1752 41.4571 78.8627 43.1446 80.9447 43.1446C83.0267 43.1446 84.7142 41.4571 84.7142 39.3751C84.7103 37.2931 83.0228 35.6056 80.9447 35.6056ZM17.3977 58.7076C15.3157 58.7076 13.6282 60.3951 13.6282 62.4771C13.6282 64.5591 15.3157 66.2466 17.3977 66.2466C19.4797 66.2466 21.1672 64.5591 21.1672 62.4771C21.1633 60.3951 19.4758 58.7076 17.3977 58.7076ZM42.3627 40.9736C40.2807 40.9736 38.5932 42.6611 38.5932 44.7431C38.5932 46.8251 40.2807 48.5126 42.3627 48.5126C44.4447 48.5126 46.1322 46.8251 46.1322 44.7431C46.1322 42.6611 44.4447 40.9736 42.3627 40.9736ZM55.3467 53.4896C53.2647 53.4896 51.5772 55.1771 51.5772 57.2591C51.5772 59.3411 53.2647 61.0286 55.3467 61.0286C57.4287 61.0286 59.1162 59.3411 59.1162 57.2591C59.1123 55.1771 57.4287 53.4896 55.3467 53.4896ZM21.2917 58.6888C21.6785 59.0873 22.0027 59.5443 22.2566 60.0443L38.4676 48.5283C38.0809 48.1299 37.7566 47.6768 37.5027 47.1728L21.2917 58.6888ZM46.7917 47.8878C46.4675 48.3409 46.0769 48.7433 45.6315 49.0792L50.8698 54.169C51.1863 53.712 51.573 53.3018 52.0143 52.962L46.7917 47.8878ZM59.2877 53.5167C59.6706 53.9191 59.9909 54.38 60.237 54.8839L77.003 43.1139C76.6202 42.7116 76.2998 42.2506 76.0537 41.7467L59.2877 53.5167Z" fill="#ECECEC"/>
</svg>
