<svg width="90" height="90" viewBox="0 0 90 90" fill="none" xmlns="http://www.w3.org/2000/svg">
<path d="M89.3998 0.0998466C89.0998 -0.0001534 88.6998 -0.000153124 88.3998 0.299847L0.299847 88.3998C-0.000153124 88.6998 -0.0001534 89.0998 0.0998466 89.3998C0.199847 89.7998 0.499847 89.9998 0.899847 89.9998H89.0998C89.5998 89.9998 89.9998 89.5998 89.9998 89.0998V0.899847C89.9998 0.499847 89.7998 0.199847 89.3998 0.0998466ZM88.1998 88.1998H81.2999V83.6998C81.2999 83.1998 80.8998 82.7999 80.3998 82.7999C79.8998 82.7999 79.4998 83.1998 79.4998 83.6998V88.1998H72.7999V83.6998C72.7999 83.1998 72.3998 82.7999 71.8998 82.7999C71.3998 82.7999 70.9998 83.1998 70.9998 83.6998V88.1998H64.2999V83.6998C64.2999 83.1998 63.8998 82.7999 63.3998 82.7999C62.8998 82.7999 62.4998 83.1998 62.4998 83.6998V88.1998H55.7998V83.6998C55.7998 83.1998 55.3998 82.7999 54.8998 82.7999C54.3998 82.7999 53.9998 83.1998 53.9998 83.6998V88.1998H47.2998V83.6998C47.2998 83.1998 46.8998 82.7999 46.3998 82.7999C45.8998 82.7999 45.4998 83.1998 45.4998 83.6998V88.1998H38.7998V83.6998C38.7998 83.1998 38.3998 82.7999 37.8998 82.7999C37.3998 82.7999 36.9998 83.1998 36.9998 83.6998V88.1998H30.2998V83.6998C30.2998 83.1998 29.8998 82.7999 29.3998 82.7999C28.8998 82.7999 28.4998 83.1998 28.4998 83.6998V88.1998H21.7998V83.6998C21.7998 83.1998 21.3998 82.7999 20.8998 82.7999C20.3998 82.7999 19.9998 83.1998 19.9998 83.6998V88.1998H2.99985L88.1998 3.09985V88.1998Z" fill="#ECECEC"/>
<path d="M39.2997 74.9997H74.0997C74.5997 74.9997 74.9997 74.5997 74.9997 74.0997V39.2997C74.9997 38.8997 74.7997 38.5997 74.3997 38.4997C74.0997 38.3997 73.6997 38.3997 73.3997 38.6997L38.6997 73.4997C38.3997 73.7997 38.3997 74.1997 38.4997 74.4997C38.5997 74.7997 38.9997 74.9997 39.2997 74.9997ZM73.1997 41.4997V73.1997H41.4997L73.1997 41.4997Z" fill="#ECECEC"/>
</svg>
