<svg width="110" height="86" viewBox="0 0 110 86" fill="none" xmlns="http://www.w3.org/2000/svg">
<path d="M1.33835e-06 42.0994C1.33835e-06 39.0406 1.16969 36.1677 3.33289 34.0045L35.0541 2.26867C37.4448 -0.122107 41.321 -0.122107 43.7068 2.26867C46.1001 4.65944 46.0952 8.5527 43.7068 10.9459L17.8317 36.8113H103.922C107.303 36.8137 110 39.5863 110 42.9705C110 42.9779 110 43.0317 110 43.039C110 46.4209 107.303 49.213 103.922 49.213H17.8292L43.6995 75.0637C46.0927 77.4569 46.0927 81.3379 43.6995 83.7287C41.3087 86.1243 37.4326 86.1219 35.0418 83.7262L3.33289 51.9879C1.16725 49.8296 1.33835e-06 46.9494 1.33835e-06 43.8906C1.33835e-06 43.5896 1.33835e-06 42.4004 1.33835e-06 42.0994Z" fill="#ECECEC"/>
</svg>
