<svg width="23" height="26" viewBox="0 0 23 26" fill="none" xmlns="http://www.w3.org/2000/svg">
<path fill-rule="evenodd" clip-rule="evenodd" d="M10.3658 1C10.7374 1 11.0386 1.30124 11.0386 1.67283V5.74344C13.8269 6.02314 16.179 8.02368 16.8702 10.7887L17.85 14.7086C17.85 14.7086 17.85 14.7086 17.85 14.7086C18.1756 16.0108 18.9748 17.145 20.0917 17.8897C21.2701 18.6754 20.7137 20.5122 19.2978 20.5122H1.43398C0.0178492 20.5122 -0.538349 18.6754 0.640012 17.8897C1.75687 17.145 2.55609 16.0109 2.88162 14.7086L3.86151 10.7887C4.55271 8.02368 6.90481 6.02315 9.69306 5.74344V1.67283C9.69306 1.30124 9.99428 1 10.3658 1ZM10.3658 7.05551C7.90679 7.05551 5.7633 8.72924 5.16689 11.1151L4.187 15.035C3.78027 16.662 2.78172 18.079 1.38642 19.0094C1.35691 19.029 1.35201 19.0435 1.35007 19.0494C1.34641 19.0608 1.3444 19.0809 1.35188 19.1056C1.35935 19.1303 1.37219 19.1459 1.38153 19.1533C1.38647 19.1572 1.39851 19.1665 1.43398 19.1665H19.2978C19.3332 19.1665 19.3452 19.1573 19.3502 19.1533C19.3595 19.1459 19.3723 19.1303 19.3798 19.1056C19.3873 19.0809 19.3853 19.0608 19.3816 19.0494C19.3797 19.0434 19.3748 19.0291 19.3453 19.0094C17.9501 18.079 16.9514 16.6621 16.5447 15.035L15.5648 11.1151C14.9684 8.72924 12.8249 7.05551 10.3658 7.05551Z" fill="#F1FFE7"/>
<path fill-rule="evenodd" clip-rule="evenodd" d="M7.17233 22.3636C7.50711 22.2719 7.85121 22.4749 7.94091 22.8169C8.08393 23.3623 8.3991 23.8442 8.83745 24.1878C9.27583 24.5315 9.81303 24.7178 10.3656 24.7178C10.9181 24.7178 11.4553 24.5315 11.8937 24.1878C12.3321 23.8442 12.6472 23.3623 12.7902 22.817C12.8799 22.4749 13.224 22.2719 13.5588 22.3635C13.8936 22.4552 14.0923 22.8067 14.0026 23.1488C13.7881 23.9668 13.3153 24.6897 12.6577 25.2052C12.0002 25.7207 11.1944 26.0001 10.3656 26.0001C9.53675 26.0001 8.73099 25.7207 8.07341 25.2052C7.41581 24.6897 6.94308 23.9668 6.72857 23.1488C6.63887 22.8068 6.83755 22.4552 7.17233 22.3636Z" fill="#C2E7DA"/>
<circle cx="17" cy="6" r="6" fill="#C1292E"/>
<path d="M15.8388 4.2V3.168H17.7668V9H16.6148V4.2H15.8388Z" fill="white"/>
</svg>
