<svg width="96" height="96" viewBox="0 0 96 96" fill="none" xmlns="http://www.w3.org/2000/svg">
<path d="M61.3002 1.2002C60.3002 0.200195 58.8002 0.200195 57.8002 1.2002C56.8002 2.2002 56.8002 3.7002 57.8002 4.7002L61.4002 8.3002H8.9002L12.5002 4.7002C13.5002 3.7002 13.5002 2.2002 12.5002 1.2002C11.5002 0.200195 10.0002 0.200195 9.0002 1.2002L1.2002 9.0002C0.200195 10.0002 0.200195 11.5002 1.2002 12.5002L9.0002 20.3002C9.5002 20.8002 10.1002 21.0002 10.7002 21.0002C11.3002 21.0002 12.0002 20.8002 12.4002 20.3002C13.4002 19.3002 13.4002 17.8002 12.4002 16.8002L8.8002 13.2002H61.4002L57.8002 16.8002C56.8002 17.8002 56.8002 19.3002 57.8002 20.3002C58.3002 20.8002 58.9002 21.0002 59.5002 21.0002C60.1002 21.0002 60.8002 20.8002 61.2002 20.3002L69.0002 12.5002C70.0002 11.5002 70.0002 10.0002 69.0002 9.0002L61.3002 1.2002Z" fill="#F1FFE7"/>
<path d="M91.3001 83.4003L87.7001 87.0003V34.5003L91.3001 38.1003C91.8001 38.6003 92.4001 38.8003 93.0001 38.8003C93.6001 38.8003 94.3001 38.6003 94.7001 38.1003C95.7001 37.1003 95.7001 35.6003 94.7001 34.6003L86.9001 26.8003C85.9001 25.8003 84.4001 25.8003 83.4001 26.8003L75.6001 34.6003C74.6001 35.6003 74.6001 37.1003 75.6001 38.1003C76.6001 39.1003 78.1001 39.1003 79.1001 38.1003L82.7001 34.5003V87.1003L79.1001 83.5003C78.1001 82.5003 76.6001 82.5003 75.6001 83.5003C74.6001 84.5003 74.6001 86.0003 75.6001 87.0003L83.4001 94.8003C83.9001 95.3003 84.5001 95.5003 85.1001 95.5003C85.7001 95.5003 86.4001 95.3003 86.8001 94.8003L94.6001 87.0003C95.6001 86.0003 95.6001 84.5003 94.6001 83.5003C93.8001 82.5003 92.3001 82.5003 91.3001 83.4003Z" fill="#F1FFE7"/>
<path d="M66.1003 27.4004H4.30029C2.90029 27.4004 1.80029 28.5004 1.80029 29.9004V91.8004C1.80029 93.2004 2.90029 94.3004 4.30029 94.3004H66.2003C67.6003 94.3004 68.7003 93.2004 68.7003 91.8004V29.9004C68.6003 28.5004 67.5003 27.4004 66.1003 27.4004ZM63.7003 89.3004H6.70029V32.3004H63.6003V89.3004H63.7003Z" fill="#F1FFE7"/>
</svg>
