<svg width="42" height="51" viewBox="0 0 42 51" fill="none" xmlns="http://www.w3.org/2000/svg">
<path d="M18.2318 50.5039C23.2295 47.724 32.9101 40.2708 27.2712 23.3505C23.7311 12.7302 24.5281 5.71261 25.4321 2.03855C25.6015 1.35029 25.8272 0.835794 25.2623 0.221857C24.6975 -0.39208 23.5803 0.462942 23.5803 0.462942C18.5026 3.19355 9.04718 10.7551 14.6469 27.5578C18.4351 38.9222 17.332 46.1782 16.281 49.5884C16.281 49.5884 16.0042 50.3867 16.4094 50.755C16.8146 51.1234 17.4591 50.9337 18.2318 50.5039Z" fill="#F1FFE7"/>
<path d="M34.2202 43.3821C37.7959 41.3932 44.722 36.0607 40.6875 23.9549C38.1547 16.3565 38.7249 11.3357 39.3718 8.70704C39.4929 8.21462 39.6544 7.84651 39.2503 7.40727C38.8462 6.96802 38.0469 7.57975 38.0469 7.57975C34.414 9.5334 27.649 14.9434 31.6554 26.9651C34.3656 35.0959 33.5764 40.2872 32.8245 42.7271C32.8245 42.7271 32.6264 43.2983 32.9163 43.5618C33.2062 43.8254 33.6674 43.6896 34.2202 43.3821Z" fill="#F1FFE7"/>
<path d="M3.79348 43.3821C7.36911 41.3932 14.2953 36.0607 10.2608 23.9549C7.72798 16.3565 8.29819 11.3357 8.94501 8.70704C9.06618 8.21462 9.22765 7.84651 8.82354 7.40727C8.41943 6.96802 7.62012 7.57975 7.62012 7.57975C3.98722 9.5334 -2.77779 14.9434 1.22861 26.9651C3.93889 35.0959 3.14966 40.2872 2.39774 42.7271C2.39774 42.7271 2.19967 43.2983 2.48958 43.5618C2.77948 43.8254 3.24062 43.6896 3.79348 43.3821Z" fill="#F1FFE7"/>
</svg>
