<svg width="47" height="42" viewBox="0 0 47 42" fill="none" xmlns="http://www.w3.org/2000/svg">
<path d="M37.1736 24.0197V10.0332C37.1736 9.60517 36.8268 9.25879 36.3991 9.25879C35.9715 9.25879 35.6247 9.60517 35.6247 10.0332V24.0197C32.5734 24.4069 30.2036 27.0167 30.2036 30.1687C30.5454 38.3878 42.2543 38.3853 42.5947 30.1687C42.5947 27.0167 40.2249 24.4069 37.1736 24.0197Z" fill="#F1FFE7"/>
<path d="M41.0455 21.2471V4.61206C40.8293 -1.53772 31.9679 -1.53701 31.7522 4.61211V6.77274C19.1688 -3.76367 -0.0757331 5.47362 0.000224164 21.65C-0.0707225 36.8441 17.1308 46.2888 29.9168 37.8666C36.2832 43.3651 46.5404 38.6599 46.4665 30.1685C46.4666 26.4203 44.3524 22.9741 41.0455 21.2471ZM23.9304 38.8656C25.6969 34.1037 20.4167 30.9137 16 31.7562C15.4037 31.8724 14.9236 31.9576 14.1414 31.7485C12.9642 31.4232 12.3292 30.7572 11.7096 30.1067C9.55805 27.5665 7.00859 28.3751 4.50735 31.4775C2.03962 27.8435 0.961996 22.8512 1.85877 18.3584C4.08179 21.5856 7.90314 22.9771 11.8956 21.5956C14.999 20.4607 14.7484 18.2289 17.3631 16.9333C19.0514 16.1512 20.608 16.3836 21.9865 16.5927C23.334 16.794 24.6119 16.9876 25.4095 15.9111C26.184 14.8502 25.6884 13.6343 25.1075 12.2248C24.1873 10.3528 23.4634 7.02336 24.5344 4.59656C27.2217 5.40972 29.6845 6.85791 31.7522 8.86374V21.2471C26.035 24.1167 24.554 32.0442 28.7861 36.7514C27.2682 37.7117 25.6341 38.4164 23.9304 38.8656ZM36.3989 38.6875C27.2732 38.5639 24.6152 26.3412 32.8521 22.4319C33.123 22.308 33.3011 22.0293 33.3011 21.7272V4.61206C33.4235 0.52445 39.37 0.511734 39.4966 4.61211V21.7272C39.4966 22.0293 39.6748 22.308 39.9458 22.432C48.1818 26.3369 45.523 38.5683 36.3989 38.6875Z" fill="#F1FFE7"/>
</svg>
