<svg width="97" height="91" viewBox="0 0 97 91" fill="none" xmlns="http://www.w3.org/2000/svg">
<path d="M94.3799 43.3799L48.4999 10.6099L2.61988 43.3799L0.879883 40.9399L48.4999 6.91992L96.1199 40.9399L94.3799 43.3799Z" fill="#F1FFE7"/>
<path d="M16.6099 22.1298H13.6099V0.589844H29.9599V15.4498H26.9599V3.58984H16.6099V22.1298Z" fill="#F1FFE7"/>
<path d="M48.4998 77.0499C43.9898 77.0499 40.3198 73.3799 40.3198 68.8699C40.3198 64.3599 43.9898 60.6899 48.4998 60.6899C53.0098 60.6899 56.6798 64.3599 56.6798 68.8699C56.6798 73.3799 53.0098 77.0499 48.4998 77.0499ZM48.4998 63.6899C45.6398 63.6899 43.3198 66.0099 43.3198 68.8699C43.3198 71.7299 45.6398 74.0499 48.4998 74.0499C51.3598 74.0499 53.6798 71.7299 53.6798 68.8699C53.6798 66.0099 51.3598 63.6899 48.4998 63.6899Z" fill="#F1FFE7"/>
<path d="M63.3599 90.4098H33.6499V88.9098C33.6499 80.7198 40.3099 74.0498 48.5099 74.0498C56.7099 74.0498 63.3699 80.7198 63.3699 88.9098V90.4098H63.3599ZM36.7399 87.4098H60.2699C59.5299 81.5798 54.5399 77.0498 48.5099 77.0498C42.4799 77.0498 37.4899 81.5698 36.7499 87.4098H36.7399Z" fill="#F1FFE7"/>
<path d="M83.3901 90.41H68.5301V87.41H80.3901V68.87C80.3901 62.33 75.0701 57.01 68.5301 57.01C65.8601 57.01 63.3501 57.87 61.2501 59.5C60.4901 60.09 59.8001 60.77 59.2101 61.52L56.8501 59.67C57.5901 58.73 58.4501 57.87 59.4001 57.13C62.0201 55.09 65.1801 54 68.5201 54C76.7101 54 83.3801 60.67 83.3801 68.86V90.4L83.3901 90.41Z" fill="#F1FFE7"/>
<path d="M68.54 57.02C62.19 57.02 57.02 51.85 57.02 45.5C57.02 39.15 62.19 33.98 68.54 33.98C74.89 33.98 80.06 39.15 80.06 45.5C80.06 51.85 74.89 57.02 68.54 57.02ZM68.54 36.99C63.84 36.99 60.02 40.81 60.02 45.51C60.02 50.21 63.84 54.03 68.54 54.03C73.24 54.03 77.06 50.21 77.06 45.51C77.06 40.81 73.24 36.99 68.54 36.99Z" fill="#F1FFE7"/>
<path d="M28.4599 90.4098H13.6099V68.8698C13.6099 60.6798 20.2799 54.0098 28.4699 54.0098C31.8099 54.0098 34.9599 55.0898 37.5899 57.1398C38.5399 57.8798 39.3999 58.7298 40.1399 59.6698L37.7799 61.5298C37.1899 60.7798 36.4999 60.0998 35.7499 59.5098C33.6499 57.8798 31.1399 57.0098 28.4699 57.0098C21.9299 57.0098 16.6099 62.3298 16.6099 68.8698V87.4098H28.4699V90.4098H28.4599Z" fill="#F1FFE7"/>
<path d="M28.4599 57.02C22.1099 57.02 16.9399 51.85 16.9399 45.5C16.9399 39.15 22.1099 33.98 28.4599 33.98C34.8099 33.98 39.9799 39.15 39.9799 45.5C39.9799 51.85 34.8099 57.02 28.4599 57.02ZM28.4599 36.99C23.7599 36.99 19.9399 40.81 19.9399 45.51C19.9399 50.21 23.7599 54.03 28.4599 54.03C33.1599 54.03 36.9799 50.21 36.9799 45.51C36.9799 40.81 33.1599 36.99 28.4599 36.99Z" fill="#F1FFE7"/>
</svg>
