<svg width="92" height="80" viewBox="0 0 92 80" fill="none" xmlns="http://www.w3.org/2000/svg">
<path d="M3.08002 48.3299L5.00002 46.5399C7.41335 44.2533 9.80335 41.9466 12.17 39.6199C16.9234 34.9533 21.59 30.2199 26.17 25.4199C28.58 22.8799 31.01 20.3299 33.29 17.6499C38.73 23.9999 44.64 29.9999 50.59 35.9299C50.7511 36.0686 50.9588 36.1411 51.1712 36.1328C51.3836 36.1244 51.585 36.0358 51.7346 35.8849C51.8843 35.7339 51.9712 35.5318 51.9778 35.3194C51.9843 35.1069 51.9101 34.8998 51.77 34.7399C45.68 28.5699 39.77 22.2099 33.77 15.9899C33.7018 15.9123 33.6169 15.8513 33.5216 15.8114C33.4263 15.7716 33.3231 15.754 33.22 15.7599C33.0295 15.7673 32.8497 15.8501 32.72 15.9899C27.72 21.0599 22.91 26.3999 17.9 31.4999L16.16 33.2699C16.16 31.2699 16 29.2699 16.16 27.2199C16.1574 27.0731 16.0972 26.9333 15.9925 26.8304C15.8878 26.7275 15.7468 26.6699 15.6 26.6699H15C15.07 26.5299 15.13 26.3899 15.19 26.2499C15.307 25.9568 15.3908 25.6516 15.44 25.3399C15.9087 25.5339 16.3547 25.7787 16.77 26.0699C17.23 26.3999 17.83 25.6399 17.38 25.2799C15.8806 24.2199 14.0622 23.7079 12.23 23.8299C10.2874 23.8298 8.37098 24.2781 6.63002 25.1399C6.07002 25.4399 6.57002 26.2799 7.12002 25.9799C7.62449 25.7154 8.15369 25.5011 8.70002 25.3399C8.7328 25.7958 8.83393 26.2441 9.00002 26.6699L8.41002 26.5899C8.32772 26.569 8.24178 26.5667 8.15849 26.5833C8.0752 26.5998 7.99666 26.6348 7.92861 26.6856C7.86056 26.7364 7.80472 26.8017 7.76517 26.8769C7.72562 26.952 7.70336 27.0351 7.70002 27.1199C7.52002 32.0199 7.45002 36.9299 7.56002 41.8299C5.97335 43.3899 4.37002 44.9366 2.75002 46.4699C1.59002 47.5699 0.53002 48.5799 0.38002 50.2599C0.32522 50.9427 0.428418 51.6289 0.68161 52.2654C0.934802 52.9018 1.33118 53.4714 1.84002 53.9299C1.99191 54.0719 2.19208 54.1509 2.40002 54.1509C2.60796 54.1509 2.80813 54.0719 2.96002 53.9299C4.43002 52.4999 5.88002 51.0499 7.32002 49.5999C7.32002 51.5299 7.23002 53.4699 7.22002 55.3999C7.22002 58.0599 7.22002 60.7099 7.22002 63.3999C7.22002 66.0899 7.22002 68.5799 7.22002 71.1699C7.22002 73.4799 7.12002 75.8499 7.31002 78.1699C6.01002 78.2499 4.70002 78.3299 3.40002 78.4399C3.28451 78.4631 3.18061 78.5256 3.10596 78.6168C3.03131 78.7079 2.99052 78.8221 2.99052 78.9399C2.99052 79.0577 3.03131 79.1719 3.10596 79.2631C3.18061 79.3542 3.28451 79.4167 3.40002 79.4399C9.58002 79.5899 15.76 79.4399 21.94 79.3399C28.12 79.2399 34.42 79.1999 40.66 79.1799C44.17 79.1799 47.73 79.3599 51.24 79.1799C51.4602 79.1799 51.6713 79.0925 51.8269 78.9368C51.9826 78.7812 52.07 78.57 52.07 78.3499C52.07 78.1298 51.9826 77.9187 51.8269 77.763C51.6713 77.6074 51.4602 77.5199 51.24 77.5199C50.07 77.4399 48.89 77.4199 47.71 77.4199C47.6 68.4699 47.91 59.5099 47.64 50.5599C47.64 50.4194 47.5842 50.2845 47.4848 50.1852C47.3854 50.0858 47.2506 50.0299 47.11 50.0299C42.46 49.8199 37.8 50.2299 33.11 50.0299C32.9525 50.0349 32.8028 50.0997 32.6913 50.2112C32.5798 50.3227 32.515 50.4724 32.51 50.6299C32.51 55.1899 32.51 59.7499 32.51 64.3199C32.51 68.7399 32.45 73.1899 32.68 77.5999H32.61C26.37 77.6666 20.1267 77.7833 13.88 77.9499C12.22 77.9499 10.55 78.0499 8.88002 78.1299C8.96002 75.8899 8.82002 73.6099 8.81002 71.3699C8.81002 68.7299 8.81002 66.0999 8.81002 63.4599C8.81002 60.8199 8.81002 58.2399 8.81002 55.6299C8.81002 53.2099 8.63002 50.8099 8.55002 48.3899C14.76 42.0999 20.82 35.6599 27.03 29.3899C29.01 27.3299 31 25.3199 33 23.3599C38.9 29.1199 44.82 34.8599 50.62 40.7199C50.7646 40.8658 50.9611 40.9483 51.1665 40.9492C51.3718 40.9501 51.5692 40.8695 51.715 40.7249C51.8609 40.5804 51.9434 40.3838 51.9443 40.1785C51.9452 39.9731 51.8646 39.7758 51.72 39.6299C45.72 33.6299 39.65 27.6299 33.54 21.7399C33.4715 21.6661 33.3877 21.6081 33.2944 21.5701C33.2011 21.5321 33.1006 21.5149 33 21.5199C32.8978 21.5142 32.7956 21.5309 32.7006 21.5689C32.6056 21.6069 32.52 21.6653 32.45 21.7399C24.33 29.5999 16.6 37.8799 8.68002 45.9999C6.61002 48.1099 4.52002 50.1899 2.43002 52.2699C2.18684 51.9123 2.02884 51.5037 1.96817 51.0756C1.9075 50.6474 1.94576 50.211 2.08002 49.7999C2.2762 49.2295 2.62148 48.7219 3.08002 48.3299ZM9.89002 25.8599C9.82136 25.6067 9.76793 25.3496 9.73002 25.0899C10.5113 24.9338 11.3038 24.8402 12.1 24.8099C12.893 24.776 13.687 24.85 14.46 25.0299C14.4227 25.3312 14.3384 25.6248 14.21 25.8999C14.045 26.1548 13.9234 26.4353 13.85 26.7299C12.6 26.7799 11.36 26.8299 10.12 26.7299C10.0889 26.4297 10.0113 26.1362 9.89002 25.8599ZM8.80002 27.7399C10.8647 27.9847 12.9491 28.0149 15.02 27.8299C15 29.9999 15.1 32.2099 15 34.3999C12.82 36.5999 10.6334 38.7799 8.44002 40.9399C8.71002 36.5499 8.81002 32.1399 8.80002 27.7399ZM33.8 64.2299C33.76 59.8699 33.7367 55.5133 33.73 51.1599C38 51.3199 42.28 51.0599 46.55 51.0299C46.44 59.7999 46.43 68.5899 46.55 77.3599C45.03 77.3599 43.5 77.4299 41.99 77.4299L33.83 77.4999C34 73.0899 33.8 68.6399 33.76 64.2299H33.8Z" fill="#F1FFE7"/>
<path d="M0.859897 0.539922C0.79317 0.56258 0.732391 0.599953 0.68206 0.649275C0.631728 0.698597 0.593131 0.758605 0.569126 0.82486C0.545121 0.891114 0.536321 0.961919 0.543379 1.03203C0.550436 1.10215 0.57317 1.16978 0.609897 1.22992C1.73207 2.8712 2.37287 4.7936 2.4599 6.77992C2.5899 8.66992 2.1799 10.6799 3.3599 12.3299C4.51408 13.6712 5.98539 14.7025 7.6399 15.3299C9.14965 15.9907 10.4128 17.1103 11.2499 18.5299C11.3299 19.8599 11.3399 21.1899 11.3399 22.5299C11.3627 22.7407 11.4626 22.9357 11.6205 23.0773C11.7783 23.219 11.9828 23.2973 12.1949 23.2973C12.4069 23.2973 12.6115 23.219 12.7693 23.0773C12.9271 22.9357 13.0271 22.7407 13.0499 22.5299C13.1001 21.6306 13.1001 20.7292 13.0499 19.8299C13.0603 19.767 13.0603 19.7028 13.0499 19.6399C13.0115 18.6386 13.1573 17.6387 13.4799 16.6899C13.8633 15.8331 14.1972 14.955 14.4799 14.0599C15.2384 11.5638 15.0643 8.8772 13.9899 6.49992C11.5999 1.68992 5.9899 0.639922 1.1299 0.419922C1.02764 0.422962 0.930676 0.466058 0.859897 0.539922ZM12.9999 7.88992C13.6921 10.1987 13.5469 12.6777 12.5899 14.8899C12.5399 15.0099 12.4899 15.1299 12.4299 15.2499C11.627 11.4561 9.66279 8.00644 6.8099 5.37992C6.3299 4.96992 5.6399 5.62992 6.0999 6.07992C8.12284 8.05889 9.60349 10.5243 10.3999 13.2399C10.6625 14.1215 10.863 15.0203 10.9999 15.9299C10.6033 15.5556 10.1713 15.2207 9.7099 14.9299C7.9999 13.8999 5.8599 13.4299 4.5299 11.8699C3.86779 10.9759 3.56453 9.86639 3.6799 8.75992C3.70821 7.7581 3.66476 6.75554 3.5499 5.75992C3.36755 4.17755 2.81608 2.66013 1.9399 1.32992C6.2699 1.78992 11.4599 3.40992 12.9999 7.88992Z" fill="#F1FFE7"/>
<path d="M43.6599 66.3198C44.0599 66.3198 44.4599 66.3698 44.8599 66.3198C45.0615 66.3198 45.2548 66.2397 45.3973 66.0972C45.5399 65.9547 45.6199 65.7614 45.6199 65.5598C45.6199 65.3582 45.5399 65.1649 45.3973 65.0224C45.2548 64.8799 45.0615 64.7998 44.8599 64.7998C44.4599 64.7998 44.0599 64.7998 43.6599 64.7998C43.469 64.7998 43.2859 64.8757 43.1508 65.0107C43.0158 65.1457 42.9399 65.3288 42.9399 65.5198C42.9399 65.7108 43.0158 65.8939 43.1508 66.0289C43.2859 66.1639 43.469 66.2398 43.6599 66.2398V66.3198Z" fill="#F1FFE7"/>
<path d="M14.4399 65.4H13.2899C13.152 65.4 13.0197 65.4548 12.9222 65.5523C12.8247 65.6498 12.7699 65.7821 12.7699 65.92C12.7699 66.69 12.6999 67.48 12.7699 68.25C12.7503 68.4526 12.8 68.6558 12.9107 68.8265C13.0215 68.9973 13.1869 69.1254 13.3799 69.19C14.0945 69.3286 14.8255 69.3623 15.5499 69.29C16.3799 69.29 17.2099 69.29 18.0399 69.29C21.3699 69.29 24.6899 69.11 28.0399 68.85C28.1628 68.8474 28.2798 68.7967 28.3658 68.7089C28.4518 68.621 28.4999 68.503 28.4999 68.38C28.4199 67.44 28.3999 66.5 28.3799 65.55C28.3799 65.4875 28.3674 65.4255 28.3432 65.3678C28.3189 65.3101 28.2834 65.2579 28.2387 65.2141C28.194 65.1703 28.141 65.1359 28.0828 65.1129C28.0246 65.0899 27.9624 65.0787 27.8999 65.08C27.6499 65.08 27.3999 65.08 27.1499 65.08C27.2699 60.66 26.8899 56.25 27.2599 51.84C27.2599 51.6906 27.2012 51.5471 27.0965 51.4405C26.9917 51.3339 26.8493 51.2726 26.6999 51.27C24.6999 51.31 22.6999 51.3334 20.6999 51.34C18.7495 51.2398 16.7945 51.2799 14.8499 51.46C14.7831 51.4669 14.719 51.4901 14.6633 51.5276C14.6076 51.5651 14.5619 51.6157 14.5303 51.6749C14.4987 51.7342 14.4821 51.8003 14.4821 51.8674C14.482 51.9346 14.4984 52.0007 14.5299 52.06C14.5165 56.54 14.4865 60.9867 14.4399 65.4ZM26.1799 65.07C25.2575 65.01 24.3322 65.01 23.4099 65.07H21.4099C21.4799 64.1714 21.4799 63.2687 21.4099 62.37C21.4099 61.29 21.3499 60.21 21.3299 59.13C21.3099 58.05 21.3299 57.13 21.3299 56.13C21.3299 55.85 21.3299 55.58 21.2499 55.3L23.7199 55.21C24.4643 55.2196 25.2087 55.1895 25.9499 55.12C25.8999 58.49 26.1499 61.78 26.1799 65.07ZM20.2699 55.42C20.2699 55.69 20.2699 55.95 20.3299 56.22C20.3899 57.22 20.3299 58.22 20.3299 59.22C20.3299 60.22 20.3299 61.38 20.3299 62.46C20.3049 63.3677 20.335 64.276 20.4199 65.18L15.5899 65.25C15.5899 62.0167 15.5565 58.7934 15.4899 55.58C17.0699 55.51 18.6699 55.47 20.2699 55.42ZM15.2199 68.28H14.2799H13.8399C13.8501 68.207 13.8501 68.133 13.8399 68.06C13.9002 67.5451 13.9002 67.0249 13.8399 66.51L15.3399 66.43C15.417 66.428 15.4924 66.4074 15.5599 66.37L20.7999 66.26C22.2199 66.26 23.6999 66.32 25.1399 66.26H25.1899C25.9299 66.26 26.6699 66.21 27.4099 66.19C27.4099 66.83 27.4599 67.47 27.5099 68.11C24.8432 68.2967 22.1532 68.4034 19.4399 68.43C17.9999 68.35 16.6199 68.33 15.2199 68.28ZM17.8199 52.51H20.7599C22.5199 52.51 24.2799 52.51 26.0299 52.51C26.0299 53.08 25.9699 53.66 25.9499 54.24C25.2492 54.2283 24.5483 54.2517 23.8499 54.31L21.0299 54.41L15.4299 54.56C15.4299 53.89 15.3799 53.23 15.3499 52.56C16.1599 52.58 16.9999 52.52 17.8199 52.51Z" fill="#F1FFE7"/>
<path d="M91.56 74.48C91.4 74.11 90.98 73.85 90.68 73.59L89.52 72.59L87.2 70.59C87.1159 70.507 87.0158 70.4421 86.9057 70.3991C86.7957 70.3561 86.6781 70.336 86.56 70.34C76.11 70.28 65.66 70.25 55.21 70.19C55.0768 70.1386 54.9332 70.12 54.7912 70.1358C54.6493 70.1516 54.5133 70.2014 54.3947 70.2808C54.276 70.3602 54.1782 70.467 54.1095 70.5922C54.0408 70.7174 54.0033 70.8572 54 71C54.04 73.5 54.07 75.9933 54.09 78.48C54.09 78.724 54.1869 78.958 54.3595 79.1305C54.532 79.303 54.766 79.4 55.01 79.4C65.56 79.74 76.12 79.65 86.67 79.31C86.8694 79.3101 87.0631 79.2431 87.22 79.12L87.32 79.05C88.63 77.98 89.96 76.92 91.32 75.85C91.4193 75.7761 91.4993 75.6793 91.5533 75.5679C91.6073 75.4565 91.6336 75.3337 91.63 75.21C91.6999 74.9666 91.6749 74.7057 91.56 74.48ZM55.92 77.57L55.86 72C65.9733 72.0533 76.09 72.1 86.21 72.14L88 73.68L88.93 74.49C89.07 74.61 89.29 74.76 89.5 74.92L86.35 77.47C76.2 77.78 66.06 77.87 55.92 77.57Z" fill="#F1FFE7"/>
<path d="M55.1901 15.3202C55.0548 15.2717 54.9098 15.2568 54.7674 15.2765C54.6251 15.2963 54.4896 15.3503 54.3727 15.4338C54.2558 15.5174 54.1608 15.628 54.0959 15.7562C54.031 15.8844 53.9981 16.0265 54.0001 16.1702C54.0001 18.6602 54.0701 21.1702 54.0901 23.6502C54.0927 23.8934 54.1904 24.1259 54.3624 24.2978C54.5344 24.4698 54.7669 24.5676 55.0101 24.5702C59.7301 24.5702 64.4501 24.5702 69.1801 24.4802C69.3973 24.4831 69.6078 24.4046 69.7701 24.2602H69.8301C71.1401 23.1902 72.4701 22.1402 73.8301 21.0702C73.9294 20.9963 74.0094 20.8995 74.0634 20.7881C74.1174 20.6767 74.1437 20.5539 74.1401 20.4302C74.2241 20.1975 74.2241 19.9428 74.1401 19.7102C73.9801 19.3402 73.5501 19.0802 73.2601 18.8202L72.1001 17.8202C71.3301 17.1502 70.5501 16.4802 69.7801 15.8202C69.6101 15.6588 69.3844 15.5693 69.1501 15.5702C64.4401 15.4302 59.8201 15.2402 55.1901 15.3202ZM71.4301 19.6702C71.5701 19.7902 71.7901 19.9502 72.0001 20.1102L68.8501 22.6502C64.5401 22.7202 60.2301 22.7702 55.9201 22.7402L55.8601 17.1502C60.1401 17.1502 64.4301 17.2602 68.7101 17.3002C69.3001 17.8302 69.9001 18.3502 70.4901 18.8602L71.4301 19.6702Z" fill="#F1FFE7"/>
<path d="M54.0901 34.59C54.0927 34.8332 54.1904 35.0657 54.3624 35.2377C54.5344 35.4097 54.7669 35.5074 55.0101 35.51C60.7901 35.57 66.5801 35.51 72.3601 35.42C72.5788 35.4212 72.7898 35.339 72.9501 35.19H73.0101C74.3201 34.08 75.6501 33 77.0001 32C77.0989 31.9235 77.1785 31.8248 77.2323 31.7119C77.2862 31.599 77.3128 31.4751 77.3101 31.35C77.3969 31.1213 77.3969 30.8687 77.3101 30.64C77.1501 30.27 76.7301 30.01 76.4301 29.75L75.2701 28.75L72.9501 26.75C72.8671 26.6683 72.7686 26.6041 72.6604 26.5612C72.5522 26.5182 72.4364 26.4974 72.3201 26.5C66.6401 26.5 60.9601 26.26 55.3201 26.35C55.1839 26.3013 55.038 26.2864 54.8949 26.3067C54.7517 26.327 54.6157 26.3818 54.4985 26.4665C54.3813 26.5512 54.2865 26.6632 54.2223 26.7927C54.1581 26.9223 54.1265 27.0655 54.1301 27.21C54.0834 29.6367 54.0701 32.0967 54.0901 34.59ZM71.8901 28.24L73.6701 29.8L74.6101 30.61C74.7501 30.73 74.9701 30.88 75.1801 31.04L72.0001 33.58C66.6301 33.67 61.2601 33.72 55.8901 33.67L55.8301 28.09C61.2001 28 66.5501 28.19 71.8901 28.24Z" fill="#F1FFE7"/>
<path d="M54.09 45.5199C54.09 45.7639 54.1869 45.9979 54.3595 46.1704C54.532 46.343 54.766 46.4399 55.01 46.4399C61.85 46.5199 68.7 46.4399 75.54 46.3499C75.7576 46.3548 75.9687 46.276 76.13 46.1299H76.19C77.5 45.0599 78.83 43.9999 80.19 42.9299C80.2893 42.856 80.3693 42.7592 80.4233 42.6478C80.4773 42.5364 80.5036 42.4136 80.5 42.2899C80.5868 42.0612 80.5868 41.8086 80.5 41.5799C80.34 41.2099 79.92 40.9499 79.62 40.6899L78.46 39.6899L76.14 37.6899C76.0571 37.6082 75.9586 37.544 75.8503 37.501C75.7421 37.4581 75.6264 37.4373 75.51 37.4399C68.77 37.3899 62.02 37.1699 55.28 37.2899C55.151 37.2261 55.0084 37.1946 54.8646 37.198C54.7207 37.2014 54.5798 37.2397 54.4539 37.3095C54.3281 37.3793 54.2211 37.4786 54.142 37.5988C54.0629 37.7191 54.0142 37.8567 54 37.9999C54.04 40.5266 54.07 43.0332 54.09 45.5199ZM75.09 39.1799L76.88 40.7399L77.81 41.5499C77.95 41.6699 78.17 41.8199 78.38 41.9799L75.23 44.5199C68.8033 44.6266 62.3733 44.6566 55.94 44.6099L55.86 38.9999C62.26 38.9399 68.67 39.1199 75.07 39.1799H75.09Z" fill="#F1FFE7"/>
<path d="M54.09 56.4599C54.09 56.7039 54.1869 56.9379 54.3595 57.1104C54.532 57.283 54.766 57.3799 55.01 57.3799C61.56 57.4499 68.12 57.3799 74.68 57.3799H78.68C78.8976 57.3848 79.1087 57.306 79.27 57.1599H79.33C80.64 56.0899 81.97 55.0399 83.33 53.9699C83.4293 53.896 83.5093 53.7992 83.5633 53.6878C83.6173 53.5764 83.6436 53.4536 83.64 53.3299C83.7294 53.0982 83.7294 52.8416 83.64 52.6099C83.48 52.2399 83.06 51.9799 82.76 51.7299L81.6 50.7299C80.83 50.0599 80.05 49.3899 79.28 48.7299C79.1116 48.5649 78.8858 48.4717 78.65 48.4699C72.3 48.4699 65.94 48.3199 59.58 48.3099C58.14 48.3099 56.69 48.3099 55.24 48.3099C55.1142 48.2545 54.9773 48.229 54.8399 48.2353C54.7026 48.2417 54.5686 48.2798 54.4485 48.3467C54.3284 48.4135 54.2254 48.5073 54.1475 48.6206C54.0697 48.7339 54.0192 48.8638 54 48.9999C54 51.4699 54.07 53.9999 54.09 56.4599ZM74.69 50.0799H78.25C78.84 50.6099 79.44 51.0799 80.04 51.6399L80.97 52.4499C81.11 52.5799 81.33 52.7299 81.54 52.8899L78.39 55.4299C72 55.5299 65.61 55.5299 59.21 55.5199H55.92L55.86 49.9999C62.13 49.8699 68.42 49.9999 74.69 50.0799Z" fill="#F1FFE7"/>
<path d="M86.7901 63.4102C86.6301 63.0402 86.2101 62.7802 85.9101 62.5202L84.7501 61.5202L82.4301 59.5202C82.3472 59.4385 82.2487 59.3743 82.1405 59.3313C82.0322 59.2884 81.9165 59.2676 81.8001 59.2702C74.5101 59.2702 67.2201 59.1202 59.9301 59.1102C58.3601 59.1102 56.7901 59.1102 55.2101 59.1102C55.0748 59.0618 54.9298 59.0468 54.7874 59.0666C54.6451 59.0864 54.5097 59.1404 54.3927 59.2239C54.2758 59.3074 54.1808 59.418 54.1159 59.5463C54.051 59.6745 54.0181 59.8165 54.0201 59.9602C54.0601 62.4469 54.0901 64.9402 54.1101 67.4402C54.1127 67.6834 54.2105 67.9159 54.3824 68.0879C54.5544 68.2599 54.7869 68.3576 55.0301 68.3602C62.5201 68.4402 70.0301 68.3602 77.5001 68.3602H81.9201C82.1389 68.3614 82.3498 68.2791 82.5101 68.1302H82.5701C83.8801 67.0602 85.2101 66.0102 86.5701 64.9402C86.6694 64.8663 86.7494 64.7696 86.8034 64.6581C86.8574 64.5467 86.8837 64.424 86.8801 64.3002C86.9352 64.1551 86.9558 63.9991 86.9402 63.8446C86.9245 63.6901 86.8732 63.5414 86.7901 63.4102ZM59.5901 66.4902H55.9201L55.8601 60.9102C63.0701 60.8002 70.2901 60.9102 77.5001 61.0302H81.4301L83.2201 62.5902L84.1501 63.4002C84.2901 63.5202 84.5101 63.6702 84.7201 63.8302L81.5701 66.4002C74.2501 66.5102 66.9201 66.4902 59.5901 66.4902Z" fill="#F1FFE7"/>
</svg>
