<svg width="440" height="462" viewBox="0 0 440 462" fill="none" xmlns="http://www.w3.org/2000/svg">
<path d="M183.17 161.45C183.17 161.37 183.14 161.28 183.11 161.17ZM24.4899 291.36C21.1699 291.36 18.4799 288.67 18.4799 285.35C18.4799 282.03 21.1699 279.34 24.4899 279.34H171.92C175.24 279.34 177.9 282.03 177.9 285.35C177.9 288.67 175.24 291.36 171.92 291.36H24.4899ZM24.4899 371.52C21.1699 371.52 18.4799 368.86 18.4799 365.54C18.4799 362.22 21.1699 359.53 24.4899 359.53H171.92C175.24 359.53 177.9 362.22 177.9 365.54C177.9 368.86 175.24 371.52 171.92 371.52H24.4899ZM24.4899 331.44C21.1699 331.44 18.4799 328.75 18.4799 325.43C18.4799 322.11 21.1699 319.45 24.4899 319.45H171.92C175.24 319.45 177.9 322.11 177.9 325.43C177.9 328.75 175.24 331.44 171.92 331.44H24.4899ZM113.89 188.18L119.45 165.96H61.7299L67.2899 188.18H113.89ZM132.94 161.42L124.46 195.29C123.95 198.07 121.51 200.17 118.56 200.17H62.6099C59.9199 200.17 57.4799 198.36 56.7999 195.63L48.3199 161.76C47.8099 159.92 48.0399 158.44 48.9399 156.83L80.8899 95.97C74.8199 93.56 76.5499 84.4 83.1299 84.4H141.16V78.48C141.16 75.16 143.85 72.47 147.17 72.47H168.29C171.61 72.47 174.27 75.16 174.27 78.48V84.4H232.32C238.56 84.4 240.6 92.85 235.1 95.71L267.27 156.97C268.01 158.27 268.26 159.86 267.89 161.42L259.41 195.29C258.87 198.07 256.43 200.17 253.51 200.17H197.53C194.87 200.17 192.4 198.36 191.72 195.63C190.56 190.98 183.16 162.24 182.99 159.97C182.99 158.75 183.27 157.87 183.9 156.8L215.62 96.42H174.26V225.2H191.78C202.01 225.2 210.38 233.56 210.38 243.8V256.39C210.38 259.71 207.69 262.4 204.37 262.4H111.08C107.76 262.4 105.07 259.71 105.07 256.39V243.8C105.07 233.57 113.43 225.2 123.67 225.2H141.16V96.42H100.51L132.31 156.97C133.08 158.27 133.34 159.86 132.94 161.42ZM162.28 225.2V96.42H153.15V225.2H162.28ZM248.85 188.18L254.41 165.96H196.67L202.23 188.18H248.85ZM191.79 237.19H123.67C120.04 237.19 117.07 240.17 117.07 243.79V250.37H198.37V243.79C198.36 240.16 195.39 237.19 191.79 237.19ZM238.5 127.97L225.55 103.28L198.9 153.96H252.16L238.5 127.97ZM103.57 127.97L90.5899 103.28L63.9699 153.96H117.2L103.57 127.97ZM237.4 340.45C229.04 325.88 234.06 307.37 248.6 299.01C263.17 290.65 281.65 295.64 290.04 310.21L297.24 322.65L341.91 277.98C353.82 266.07 373.12 266.07 385.02 277.98C396.92 289.89 396.93 309.16 385.02 321.07C380.37 325.75 374.16 332.32 367.08 339.86C346.67 361.6 319.15 390.94 305.91 398.54C291.34 406.9 272.86 401.91 264.47 387.34L237.4 340.45ZM245.99 320.53C244.74 325.09 245.25 330.11 247.78 334.5L274.85 381.39C279.92 390.21 291.21 393.21 299.96 388.16C311.58 381.5 338.45 352.87 358.38 331.67C365.84 323.73 372.38 316.76 376.55 312.59C388.14 301 379.92 281.04 363.48 281.04C358.75 281.04 354.01 282.85 350.41 286.45L294.68 342.15L279.68 316.16C271.55 302.04 250.27 304.68 245.99 320.53ZM406.46 269.28C388.06 243.65 361.05 227.89 332.25 223.16C270.62 212.98 211.32 254.43 200.98 317.24C196.87 342.16 200.98 368.46 214.08 391.68C231.91 422.92 261.33 442.93 295.07 448.49C323.93 453.25 354.57 446.99 380.19 428.62C405.84 410.25 421.58 383.24 426.34 354.41C431.1 325.58 424.82 294.93 406.46 269.28ZM334.17 211.34C366.03 216.58 395.91 233.99 416.2 262.31C436.5 290.6 443.38 324.47 438.14 356.34C432.87 388.2 415.46 418.08 387.17 438.37C327.27 481.29 243.4 463.85 205.44 400.75H6.17992C2.85992 400.75 0.169922 398.06 0.169922 394.74V69.86C0.169922 68.19 0.879923 66.66 1.97992 65.58C23.1299 44.69 44.2199 23.2 65.3099 2.23004C66.5599 0.980038 68.1699 0.420037 69.7899 0.470037C140.94 0.410037 212.12 0.240039 283.27 0.100039L309.97 0.0400391C313.26 0.0400391 315.95 2.70004 315.95 5.99004H315.98V209.66C322.07 209.78 328.13 210.34 334.17 211.34ZM199.07 388.73C188.24 365.37 185.12 339.75 189.15 315.31C198.59 258.08 245.93 214.4 303.95 210V12L75.5599 12.43V69.83C75.5599 73.15 72.8699 75.84 69.5499 75.84H12.1799V388.73H199.07ZM20.6299 63.88L63.5499 63.85V20.96L20.6299 63.88Z" fill="#F1FFE7"/>
</svg>
