<svg width="62" height="62" viewBox="0 0 62 62" fill="none" xmlns="http://www.w3.org/2000/svg">
<path d="M61 0H44C43.45 0 43 0.45 43 1V30H40C39.45 30 39 30.45 39 31C39 31.55 39.45 32 40 32V36H32C31.45 36 31 36.45 31 37C31 37.55 31.45 38 32 38V42H24C23.45 42 23 42.45 23 43C23 43.55 23.45 44 24 44V48H16C15.45 48 15 48.45 15 49C15 49.55 15.45 50 16 50H17V54H9C8.45 54 8 54.45 8 55C8 55.55 8.45 56 9 56V60H1C0.45 60 0 60.45 0 61C0 61.55 0.45 62 1 62H10C10.55 62 11 61.55 11 61V56H18C18.55 56 19 55.55 19 55V50H25C25.55 50 26 49.55 26 49V44H33C33.55 44 34 43.55 34 43V38H41C41.55 38 42 37.55 42 37V32H61C61.55 32 62 31.55 62 31V1C62 0.45 61.55 0 61 0ZM45 2H60V30H45V2Z" fill="#ECECEC"/>
<path d="M56 14C57.1046 14 58 13.5523 58 13C58 12.4477 57.1046 12 56 12C54.8954 12 54 12.4477 54 13C54 13.5523 54.8954 14 56 14Z" fill="#ECECEC"/>
</svg>
