<svg width="24" height="25" viewBox="0 0 24 25" fill="none" xmlns="http://www.w3.org/2000/svg">
<path fill-rule="evenodd" clip-rule="evenodd" d="M23.9776 12.5065C24.0537 13.1132 23.6236 13.6652 23.0166 13.7413C22.4106 13.8174 21.8572 13.3876 21.781 12.7809H17.7504V12.26H21.7947C21.8709 11.6533 22.4233 11.2235 23.0303 11.2996C23.6363 11.3747 24.0674 11.9277 23.9913 12.5344L23.9776 12.5065ZM17.226 12.5065C17.226 11.2514 16.7272 10.0488 15.8392 9.16137C14.9522 8.27493 13.7477 7.77652 12.4928 7.77652C11.2368 7.77652 10.0335 8.27493 9.1455 9.16137C8.25745 10.0489 7.75872 11.2515 7.75872 12.5065C7.75872 13.7616 8.25745 14.9643 9.1455 15.8517C10.0336 16.7381 11.2369 17.2365 12.4928 17.2365C13.7476 17.2365 14.952 16.7381 15.8392 15.8517C16.7272 14.9642 17.226 13.7616 17.226 12.5065ZM5.82813 12.5065C5.82921 10.7401 6.53171 9.04667 7.78121 7.79789C9.03071 6.54917 10.7254 5.84817 12.4928 5.8471V0.274399C12.4928 0.201514 12.4638 0.131843 12.4123 0.0803933C12.3609 0.0278712 12.2901 3.49636e-06 12.2182 3.49636e-06H11.1907C10.8486 -0.00106829 10.5547 0.244386 10.4957 0.580954L10.2276 2.0794C10.1793 2.34415 9.982 2.55853 9.72246 2.62819C8.9363 2.849 8.1791 3.16198 7.46802 3.5607C7.23207 3.69683 6.93926 3.68289 6.71832 3.52533L5.47741 2.67212C5.19642 2.47704 4.81458 2.51134 4.57434 2.75466L2.73496 4.59289H2.73388C2.49149 4.83406 2.45611 5.21456 2.65237 5.4954L3.51361 6.74412C3.67127 6.96493 3.68521 7.25754 3.55007 7.49336C3.14788 8.20292 2.83362 8.95968 2.61591 9.7464C2.5462 10.0058 2.33278 10.203 2.06678 10.2512L0.581316 10.5256C0.244533 10.5846 -0.00106731 10.8772 3.4985e-06 11.2191V13.8205C-0.00106896 14.1635 0.244541 14.4561 0.581316 14.5151L2.06999 14.7895C2.3349 14.8377 2.54941 15.0338 2.61912 15.2943C2.84007 16.08 3.15324 16.8356 3.55221 17.5473C3.67555 17.7756 3.66054 18.0543 3.5136 18.2687L2.64916 19.5174C2.45396 19.7982 2.48828 20.1788 2.73174 20.4199L4.57112 22.2582C4.81244 22.5015 5.19318 22.5358 5.4742 22.3407L6.7151 21.4789C6.93711 21.3235 7.22992 21.3096 7.46481 21.4436C8.17698 21.8466 8.93418 22.1628 9.72249 22.3847C9.98311 22.4532 10.1805 22.6676 10.2276 22.9334L10.5022 24.418C10.5601 24.7546 10.854 25.0011 11.1961 25H12.2311C12.304 25 12.3737 24.9711 12.4252 24.9196C12.4767 24.8682 12.5057 24.7985 12.5057 24.7256V19.1658C10.7371 19.169 9.03816 18.4691 7.78641 17.2193C6.5337 15.9706 5.82905 14.275 5.82798 12.5063L5.82813 12.5065ZM15.438 6.51921H17.8522C17.9724 6.51492 18.0764 6.43239 18.1075 6.31663L18.6813 3.80311C19.2369 3.79346 19.698 3.37115 19.756 2.81915C19.8128 2.26608 19.4482 1.75801 18.9065 1.63475C18.3649 1.51149 17.8157 1.81268 17.6292 2.33575C17.4425 2.8599 17.6753 3.43975 18.1729 3.68737L17.6452 5.9983H15.3286C15.2535 5.9983 15.1827 6.03153 15.1334 6.08834L13.7906 7.41636C13.9772 7.46566 14.1606 7.52461 14.3397 7.59214L15.438 6.51921ZM18.6781 21.2101L18.1043 18.6966C18.0732 18.5808 17.9703 18.4983 17.8491 18.494H15.4359L14.3376 17.421C14.1574 17.4886 13.974 17.5475 13.7885 17.5968L15.1313 18.9248C15.1795 18.9817 15.2514 19.0149 15.3265 19.0149H17.641L18.1687 21.3258H18.1676C17.67 21.5734 17.4372 22.1533 17.6238 22.6774C17.8105 23.2005 18.3585 23.5017 18.9012 23.3784C19.4428 23.2552 19.8075 22.7471 19.7507 22.194C19.6927 21.642 19.2316 21.2197 18.676 21.2101L18.6781 21.2101ZM21.6822 17.2892C21.5234 17.2892 21.3679 17.3235 21.2231 17.3879L19.801 15.5829C19.7505 15.5153 19.6712 15.4746 19.5875 15.4725H16.8419C16.7153 15.6547 16.5791 15.8283 16.4321 15.9944H19.4609L20.8144 17.7201C20.5002 18.1232 20.5055 18.6891 20.8273 19.0857C21.1491 19.4834 21.7025 19.6055 22.1615 19.3815C22.6206 19.1575 22.8651 18.6473 22.7503 18.1489C22.6366 17.6515 22.1926 17.2978 21.6821 17.2978L21.6822 17.2892ZM19.461 9.01868H16.4215C16.5674 9.18482 16.7047 9.35846 16.8302 9.54066H19.5758C19.6606 9.53852 19.7399 9.49779 19.7903 9.43026L21.2125 7.62526C21.3573 7.68957 21.5128 7.72387 21.6716 7.72387C22.1832 7.73137 22.6315 7.38409 22.7537 6.88781C22.876 6.39047 22.6379 5.87598 22.181 5.64554C21.723 5.41616 21.1686 5.53192 20.8414 5.92636C20.5154 6.31973 20.5036 6.88674 20.8146 7.29299L19.461 9.01868Z" fill="#ECECEC"/>
</svg>
