<svg width="36" height="45" viewBox="0 0 36 45" fill="none" xmlns="http://www.w3.org/2000/svg">
<path fill-rule="evenodd" clip-rule="evenodd" d="M3.50091 37.8398H1.00082C0.447615 37.8398 0 38.2976 0 38.8633V43.9765C0 44.5423 0.44763 45 1.00082 45H32.0006C32.2665 45 32.5206 44.8921 32.7082 44.7002C32.8959 44.5083 33.0015 44.2484 33.0015 43.9765V38.8632C33.0015 38.2975 32.5538 37.8398 32.0006 37.8398H29.5005V37.2601L31.9948 35.8988C34.4597 34.5535 36 31.9269 36 29.0683V8.52348C36 8.17566 35.826 7.84984 35.5387 7.66193L29.4988 3.70403V1.02345C29.4988 0.45774 29.0511 0 28.4979 0H4.49785C3.9466 0 3.49703 0.457755 3.49703 1.02345V37.8376L3.50091 37.8398ZM34.0023 13.345L29.5025 10.3966V34.9415L31.0546 34.094C32.8686 33.1046 34.0023 31.1716 34.0023 29.0687V13.345ZM13.0162 9.20721C12.5627 9.20721 12.1659 9.51905 12.0505 9.96682L9.53678 19.6098C9.45664 19.9176 9.52114 20.2435 9.71075 20.4953C9.90036 20.7472 10.1936 20.8951 10.5044 20.8951H13.8L12.6526 32.627C12.6076 33.0887 12.8715 33.5245 13.2976 33.6864C13.7218 33.8483 14.2007 33.6984 14.4646 33.3186L25.1508 17.8911C25.3678 17.5792 25.3951 17.1694 25.2231 16.8296C25.0511 16.4898 24.7091 16.276 24.3357 16.276H20.61L22.1269 10.4929C22.207 10.1851 22.1444 9.85726 21.9548 9.60539C21.7652 9.35352 21.472 9.2056 21.1612 9.2056H13.0216L13.0162 9.20721ZM29.5021 6.13486V7.96786L34.0019 10.9163V9.08327L29.5021 6.13486Z" fill="#ECECEC"/>
</svg>
