<svg width="60" height="86" viewBox="0 0 60 86" fill="none" xmlns="http://www.w3.org/2000/svg">
<path d="M58.125 0.8125H1.875C1.01172 0.8125 0.3125 1.51172 0.3125 2.375V83.625C0.3125 84.4883 1.01172 85.1875 1.875 85.1875H58.125C58.9883 85.1875 59.6875 84.4883 59.6875 83.625V2.375C59.6875 1.51172 58.9883 0.8125 58.125 0.8125ZM15.937 82.0625V69.5625H44.062V82.0625H15.937ZM56.562 82.0625H47.187V68.0005C47.187 67.1372 46.4878 66.438 45.6245 66.438H14.3745C13.5112 66.438 12.812 67.1372 12.812 68.0005V82.0625H3.437V3.9375H56.562V82.0625ZM9.687 11.7505C9.687 10.8872 10.3862 10.188 11.2495 10.188H14.3745C15.2378 10.188 15.937 10.8872 15.937 11.7505C15.937 12.6138 15.2378 13.313 14.3745 13.313H11.2495C10.3862 13.313 9.687 12.6138 9.687 11.7505ZM22.187 11.7505C22.187 10.8872 22.8862 10.188 23.7495 10.188H36.2495C37.1128 10.188 37.812 10.8872 37.812 11.7505C37.812 12.6138 37.1128 13.313 36.2495 13.313H23.7495C22.8862 13.313 22.187 12.6138 22.187 11.7505ZM44.062 11.7505C44.062 10.8872 44.7612 10.188 45.6245 10.188H48.7495C49.6128 10.188 50.312 10.8872 50.312 11.7505C50.312 12.6138 49.6128 13.313 48.7495 13.313H45.6245C44.7612 13.313 44.062 12.6138 44.062 11.7505ZM9.687 21.1255C9.687 20.2622 10.3862 19.563 11.2495 19.563H14.3745C15.2378 19.563 15.937 20.2622 15.937 21.1255C15.937 21.9888 15.2378 22.688 14.3745 22.688H11.2495C10.3862 22.688 9.687 21.9888 9.687 21.1255ZM22.187 21.1255C22.187 20.2622 22.8862 19.563 23.7495 19.563H36.2495C37.1128 19.563 37.812 20.2622 37.812 21.1255C37.812 21.9888 37.1128 22.688 36.2495 22.688H23.7495C22.8862 22.688 22.187 21.9888 22.187 21.1255ZM44.062 21.1255C44.062 20.2622 44.7612 19.563 45.6245 19.563H48.7495C49.6128 19.563 50.312 20.2622 50.312 21.1255C50.312 21.9888 49.6128 22.688 48.7495 22.688H45.6245C44.7612 22.688 44.062 21.9888 44.062 21.1255ZM9.687 30.5005C9.687 29.6372 10.3862 28.938 11.2495 28.938H14.3745C15.2378 28.938 15.937 29.6372 15.937 30.5005C15.937 31.3638 15.2378 32.063 14.3745 32.063H11.2495C10.3862 32.063 9.687 31.3638 9.687 30.5005ZM22.187 30.5005C22.187 29.6372 22.8862 28.938 23.7495 28.938H36.2495C37.1128 28.938 37.812 29.6372 37.812 30.5005C37.812 31.3638 37.1128 32.063 36.2495 32.063H23.7495C22.8862 32.063 22.187 31.3638 22.187 30.5005ZM44.062 30.5005C44.062 29.6372 44.7612 28.938 45.6245 28.938H48.7495C49.6128 28.938 50.312 29.6372 50.312 30.5005C50.312 31.3638 49.6128 32.063 48.7495 32.063H45.6245C44.7612 32.063 44.062 31.3638 44.062 30.5005ZM9.687 39.8755C9.687 39.0122 10.3862 38.313 11.2495 38.313H14.3745C15.2378 38.313 15.937 39.0122 15.937 39.8755C15.937 40.7388 15.2378 41.438 14.3745 41.438H11.2495C10.3862 41.438 9.687 40.7388 9.687 39.8755ZM22.187 39.8755C22.187 39.0122 22.8862 38.313 23.7495 38.313H36.2495C37.1128 38.313 37.812 39.0122 37.812 39.8755C37.812 40.7388 37.1128 41.438 36.2495 41.438H23.7495C22.8862 41.438 22.187 40.7388 22.187 39.8755ZM44.062 39.8755C44.062 39.0122 44.7612 38.313 45.6245 38.313H48.7495C49.6128 38.313 50.312 39.0122 50.312 39.8755C50.312 40.7388 49.6128 41.438 48.7495 41.438H45.6245C44.7612 41.438 44.062 40.7388 44.062 39.8755ZM9.687 49.2505C9.687 48.3872 10.3862 47.688 11.2495 47.688H14.3745C15.2378 47.688 15.937 48.3872 15.937 49.2505C15.937 50.1138 15.2378 50.813 14.3745 50.813H11.2495C10.3862 50.813 9.687 50.1138 9.687 49.2505ZM22.187 49.2505C22.187 48.3872 22.8862 47.688 23.7495 47.688H36.2495C37.1128 47.688 37.812 48.3872 37.812 49.2505C37.812 50.1138 37.1128 50.813 36.2495 50.813H23.7495C22.8862 50.813 22.187 50.1138 22.187 49.2505ZM44.062 49.2505C44.062 48.3872 44.7612 47.688 45.6245 47.688H48.7495C49.6128 47.688 50.312 48.3872 50.312 49.2505C50.312 50.1138 49.6128 50.813 48.7495 50.813H45.6245C44.7612 50.813 44.062 50.1138 44.062 49.2505ZM9.687 58.6255C9.687 57.7622 10.3862 57.063 11.2495 57.063H14.3745C15.2378 57.063 15.937 57.7622 15.937 58.6255C15.937 59.4888 15.2378 60.188 14.3745 60.188H11.2495C10.3862 60.188 9.687 59.4888 9.687 58.6255ZM22.187 58.6255C22.187 57.7622 22.8862 57.063 23.7495 57.063H36.2495C37.1128 57.063 37.812 57.7622 37.812 58.6255C37.812 59.4888 37.1128 60.188 36.2495 60.188H23.7495C22.8862 60.188 22.187 59.4888 22.187 58.6255ZM44.062 58.6255C44.062 57.7622 44.7612 57.063 45.6245 57.063H48.7495C49.6128 57.063 50.312 57.7622 50.312 58.6255C50.312 59.4888 49.6128 60.188 48.7495 60.188H45.6245C44.7612 60.188 44.062 59.4888 44.062 58.6255Z" fill="#F1FFE7"/>
</svg>
