<svg width="565" height="797" viewBox="0 0 565 797" fill="none" xmlns="http://www.w3.org/2000/svg">
<path d="M283 796.853L261.667 770.453C209.773 707.04 0.333291 420.8 0.333291 281.92C-2.84929 210.333 22.5364 140.413 70.9058 87.5428C119.275 34.6726 186.666 3.18241 258.253 -0.000205235C266.147 -0.355761 274.058 -0.355761 281.987 -0.000205235C353.574 -3.18279 423.493 22.2029 476.364 70.5723C529.234 118.942 560.724 186.333 563.907 257.92C564.262 265.92 564.262 273.92 563.907 281.92C563.907 399.946 421.56 607.84 314.413 753.973L283 796.853ZM281.987 52.5865C251.419 50.8633 220.831 55.615 192.226 66.5305C163.622 77.446 137.645 94.2793 115.995 115.928C94.3461 137.578 77.5128 163.555 66.5973 192.16C55.6818 220.764 50.9301 251.352 52.6533 281.92C52.6533 379.626 199.8 603.946 281.24 710.4C347.907 619.2 511.373 390.986 511.373 281.92C513.096 251.352 508.345 220.764 497.429 192.16C486.514 163.555 469.68 137.578 448.031 115.928C426.382 94.2793 400.405 77.446 371.8 66.5305C343.195 55.615 312.555 50.8633 281.987 52.5865Z" fill="#ECECEC"/>
</svg>
