<svg width="38" height="50" viewBox="0 0 38 50" fill="none" xmlns="http://www.w3.org/2000/svg">
<path d="M11.1846 48.845L17.8706 29.014H1.12158L26.4977 1.12354L19.8117 20.9545H36.5608L11.1846 48.845Z" fill="#ECECEC"/>
<path d="M12.2803 49.1741C12.5017 48.5157 12.723 47.863 12.9444 47.2047C13.4779 45.6268 14.0058 44.0546 14.5393 42.4768C15.1863 40.5584 15.8333 38.6457 16.4804 36.7273C17.0366 35.0756 17.5928 33.4297 18.149 31.7781C18.4215 30.9778 18.7223 30.1832 18.9607 29.3715C18.9663 29.3602 18.9663 29.3488 18.972 29.3375C19.2104 28.628 18.5804 27.9015 17.8766 27.9015C15.9866 27.9015 14.0966 27.9015 12.2066 27.9015C9.19843 27.9015 6.1903 27.9015 3.18216 27.9015C2.4954 27.9015 1.80864 27.9015 1.12755 27.9015C1.39431 28.5486 1.66107 29.1956 1.92783 29.837C2.77351 28.9118 3.61352 27.981 4.4592 27.0559C6.48543 24.831 8.51166 22.6004 10.5379 20.3755C12.9728 17.6966 15.4133 15.0177 17.8482 12.3444C19.9653 10.0173 22.0766 7.69597 24.1937 5.36893C25.2153 4.25081 26.2823 3.1554 27.2586 1.99755C27.2699 1.98052 27.2869 1.9635 27.304 1.95214C26.674 1.58322 26.0383 1.2143 25.4083 0.845379C25.1869 1.50376 24.9656 2.15647 24.7442 2.81485C24.2107 4.3927 23.6829 5.96488 23.1493 7.54273C22.5023 9.46112 21.8553 11.3738 21.2083 13.2922C20.652 14.9439 20.0958 16.5898 19.5396 18.2415C19.2672 19.0417 18.9663 19.8363 18.728 20.648C18.7223 20.6593 18.7223 20.6707 18.7166 20.682C18.4782 21.3915 19.1082 22.118 19.812 22.118C21.702 22.118 23.5921 22.118 25.4821 22.118C28.4902 22.118 31.4983 22.118 34.5065 22.118C35.1932 22.118 35.88 22.118 36.5611 22.118C36.2943 21.4709 36.0276 20.8239 35.7608 20.1826C34.9151 21.1077 34.0751 22.0385 33.2294 22.9637C31.2032 25.1885 29.177 27.4191 27.1507 29.644C24.7158 32.3229 22.2753 35.0019 19.8404 37.6751C17.7234 40.0022 15.612 42.3235 13.4949 44.6506C12.4733 45.7744 11.4347 46.8811 10.4301 48.022C10.413 48.039 10.4017 48.056 10.3847 48.0674C9.98735 48.5044 9.91924 49.2422 10.3847 49.6736C10.8217 50.0709 11.5652 50.1447 11.9909 49.6736C12.8366 48.7485 13.6766 47.8176 14.5223 46.8925C16.5485 44.6676 18.5747 42.437 20.6009 40.2122C23.0358 37.5332 25.4764 34.8543 27.9113 32.181C30.0283 29.854 32.1397 27.5326 34.2567 25.2056C35.2784 24.0818 36.3227 22.975 37.3216 21.8342C37.333 21.8172 37.35 21.8001 37.367 21.7888C38.0141 21.0736 37.5827 19.8534 36.5667 19.8534C34.6767 19.8534 32.7867 19.8534 30.8967 19.8534C27.8886 19.8534 24.8804 19.8534 21.8723 19.8534C21.1855 19.8534 20.4988 19.8534 19.8177 19.8534C20.1809 20.3301 20.5499 20.8126 20.9131 21.2893C21.1345 20.6309 21.3558 19.9782 21.5772 19.3198C22.1107 17.742 22.6385 16.1698 23.172 14.592C23.8191 12.6736 24.4661 10.7609 25.1131 8.84247C25.6694 7.19083 26.2256 5.54488 26.7818 3.89324C27.0486 3.09296 27.3721 2.29836 27.5934 1.48674C27.5991 1.47538 27.5991 1.46403 27.6048 1.45268C27.968 0.385646 26.4583 -0.477063 25.7091 0.345916C24.8634 1.27106 24.0234 2.20188 23.1777 3.12702C21.1515 5.3519 19.1253 7.58246 17.099 9.80734C14.6641 12.4863 12.2236 15.1652 9.7887 17.8385C7.67166 20.1655 5.56029 22.4869 3.44325 24.8139C2.42162 25.9377 1.37728 27.0445 0.378357 28.1853C0.367006 28.2023 0.349978 28.2194 0.332951 28.2307C-0.314081 28.9459 0.117274 30.1661 1.13323 30.1661C3.02324 30.1661 4.91326 30.1661 6.80327 30.1661C9.8114 30.1661 12.8195 30.1661 15.8277 30.1661C16.5144 30.1661 17.2012 30.1661 17.8823 30.1661C17.519 29.6894 17.1501 29.2069 16.7869 28.7302C16.5655 29.3886 16.3442 30.0413 16.1228 30.6997C15.5893 32.2775 15.0614 33.8497 14.5279 35.4275C13.8809 37.3459 13.2339 39.2586 12.5868 41.177C12.0306 42.8287 11.4744 44.4746 10.9182 46.1263C10.6457 46.9265 10.3449 47.7211 10.1065 48.5328C10.1009 48.5441 10.1009 48.5555 10.0952 48.5668C9.90789 49.1287 10.3109 49.8325 10.8898 49.9631C11.5084 50.1106 12.076 49.7758 12.2803 49.1741Z" fill="#ECECEC"/>
</svg>
