<svg width="66" height="64" viewBox="0 0 66 64" fill="none" xmlns="http://www.w3.org/2000/svg">
<path d="M61.2207 48.8594C60.1109 48.8594 59.1014 49.2553 58.2894 49.8925L39.5596 32.6835C40.2712 31.4836 40.6875 30.089 40.6875 28.5957C40.6875 27.1215 40.2823 25.7432 39.5875 24.5536L55.9666 11.1833C56.8028 11.9014 57.8755 12.3516 59.0615 12.3516C61.6973 12.3516 63.8408 10.208 63.8408 7.57227C63.8408 4.9375 61.6973 2.79395 59.0615 2.79395C56.4268 2.79395 54.2832 4.9375 54.2832 7.57227C54.2832 8.29797 54.4582 8.97888 54.7487 9.59552L38.3758 22.9607C37.1356 21.6984 35.4835 20.8468 33.6396 20.6168V10.3529C35.7961 9.89148 37.4189 7.9751 37.4189 5.68359C37.4189 3.04785 35.2754 0.904297 32.6396 0.904297C30.0049 0.904297 27.8613 3.04785 27.8613 5.68359C27.8613 7.97498 29.484 9.8913 31.6396 10.3528V20.6168C27.785 21.0977 24.7766 24.3116 24.61 28.2542L9.12689 30.4158C8.37646 28.7573 6.7146 27.5957 4.7793 27.5957C2.14355 27.5957 0 29.7393 0 32.375C0 35.0098 2.14355 37.1533 4.7793 37.1533C7.41406 37.1533 9.55762 35.0098 9.55762 32.375C9.55762 32.3751 9.55762 32.3749 9.55762 32.375L24.7658 30.2516C25.274 32.6716 26.8751 34.6887 29.0245 35.7757L22.005 53.6059C21.7838 53.5744 21.5638 53.5381 21.334 53.5381C18.6982 53.5381 16.5547 55.6816 16.5547 58.3164C16.5547 60.9521 18.6982 63.0957 21.334 63.0957C23.9688 63.0957 26.1123 60.9521 26.1123 58.3164C26.1123 56.6215 25.2192 55.1393 23.8851 54.2908L30.9083 36.451C31.4667 36.574 32.0448 36.6436 32.6396 36.6436C34.8626 36.6436 36.8776 35.7372 38.3355 34.275L57.0079 51.4314C56.6588 52.0948 56.4424 52.8383 56.4424 53.6387C56.4424 56.2734 58.5859 58.417 61.2207 58.417C63.8564 58.417 66 56.2734 66 53.6387C66 51.0029 63.8564 48.8594 61.2207 48.8594ZM59.0615 4.79395C60.5938 4.79395 61.8408 6.04004 61.8408 7.57227C61.8408 9.10449 60.5938 10.3516 59.0615 10.3516C57.5293 10.3516 56.2832 9.10449 56.2832 7.57227C56.2832 6.04004 57.5293 4.79395 59.0615 4.79395ZM4.7793 35.1533C3.24707 35.1533 2 33.9072 2 32.375C2 30.8428 3.24707 29.5957 4.7793 29.5957C6.31152 29.5957 7.55762 30.8428 7.55762 32.375C7.55762 33.9072 6.31152 35.1533 4.7793 35.1533ZM24.1123 58.3164C24.1123 59.8486 22.8662 61.0957 21.334 61.0957C19.8018 61.0957 18.5547 59.8486 18.5547 58.3164C18.5547 56.7842 19.8018 55.5381 21.334 55.5381C22.8662 55.5381 24.1123 56.7842 24.1123 58.3164ZM29.8613 5.68359C29.8613 4.15137 31.1074 2.9043 32.6396 2.9043C34.1719 2.9043 35.4189 4.15137 35.4189 5.68359C35.4189 7.21582 34.1719 8.46191 32.6396 8.46191C31.1074 8.46191 29.8613 7.21582 29.8613 5.68359ZM32.6396 34.6436C29.3057 34.6436 26.5928 31.9307 26.5928 28.5957C26.5928 25.2607 29.3057 22.5479 32.6396 22.5479C35.9746 22.5479 38.6875 25.2607 38.6875 28.5957C38.6875 31.9307 35.9746 34.6436 32.6396 34.6436ZM61.2207 56.417C59.6885 56.417 58.4424 55.1709 58.4424 53.6387C58.4424 53.0665 58.6167 52.5345 58.9142 52.092C58.9689 52.0527 59.0307 52.0272 59.0781 51.9756C59.1624 51.8838 59.2197 51.7781 59.2635 51.669C59.7661 51.1693 60.4576 50.8594 61.2207 50.8594C62.7529 50.8594 64 52.1064 64 53.6387C64 55.1709 62.7529 56.417 61.2207 56.417Z" fill="#1A1B41"/>
</svg>
