<svg width="24" height="24" viewBox="0 0 24 24" fill="none" xmlns="http://www.w3.org/2000/svg">
<g clip-path="url(#clip0_2263_6)">
<path d="M19.6558 1.13479C19.6558 0.501635 19.1672 0 18.534 0H5.4442C4.81052 0 4.34424 0.501635 4.34424 1.13479V24H9.33876V20.2224C9.33876 19.8507 9.60751 19.5471 9.97763 19.5471H14.0172C14.3879 19.5471 14.6608 19.8507 14.6608 20.2224V24H19.6548V1.13479H19.6558ZM11.0765 16.2234C11.0765 16.4401 10.9014 16.6158 10.6841 16.6158H8.31937C8.10312 16.6158 7.9269 16.4401 7.9269 16.2234V13.8586C7.9269 13.6419 8.10312 13.4657 8.31937 13.4657H10.6841C10.9014 13.4657 11.0765 13.6419 11.0765 13.8586V16.2234ZM11.0765 11.01C11.0765 11.2268 10.9014 11.4025 10.6841 11.4025H8.31937C8.10312 11.4025 7.9269 11.2268 7.9269 11.01V8.64528C7.9269 8.42851 8.10312 8.25281 8.31937 8.25281H10.6841C10.9014 8.25281 11.0765 8.42851 11.0765 8.64528V11.01ZM11.0765 5.68901C11.0765 5.90578 10.9014 6.08148 10.6841 6.08148H8.31937C8.10312 6.08148 7.9269 5.90578 7.9269 5.68901V3.32431C7.9269 3.10754 8.10312 2.93184 8.31937 2.93184H10.6841C10.9014 2.93184 11.0765 3.10754 11.0765 3.32431V5.68901ZM16.0726 16.2234C16.0726 16.4401 15.8959 16.6158 15.6796 16.6158H13.3149C13.0976 16.6158 12.9225 16.4401 12.9225 16.2234V13.8586C12.9225 13.6419 13.0976 13.4657 13.3149 13.4657H15.6796C15.8959 13.4657 16.0726 13.6419 16.0726 13.8586V16.2234ZM16.0726 11.01C16.0726 11.2268 15.8959 11.4025 15.6796 11.4025H13.3149C13.0976 11.4025 12.9225 11.2268 12.9225 11.01V8.64528C12.9225 8.42851 13.0976 8.25281 13.3149 8.25281H15.6796C15.8959 8.25281 16.0726 8.42851 16.0726 8.64528V11.01ZM16.0726 5.68901C16.0726 5.90578 15.8959 6.08148 15.6796 6.08148H13.3149C13.0976 6.08148 12.9225 5.90578 12.9225 5.68901V3.32431C12.9225 3.10754 13.0976 2.93184 13.3149 2.93184H15.6796C15.8959 2.93184 16.0726 3.10754 16.0726 3.32431V5.68901Z" fill="#F1FFE7"/>
</g>
<defs>
<clipPath id="clip0_2263_6">
<rect width="24" height="24" fill="white"/>
</clipPath>
</defs>
</svg>
