<svg width="38" height="39" viewBox="0 0 38 39" fill="none" xmlns="http://www.w3.org/2000/svg">
<path fill-rule="evenodd" clip-rule="evenodd" d="M3.23305 35.7314V18.7692H2.52979C1.46278 18.7692 0.51027 18.0946 0.149209 17.0855C-0.211853 16.0749 0.0966786 14.9452 0.919844 14.2625L17.4236 0.58112C18.3599 -0.195061 19.7125 -0.193703 20.6475 0.585188L37.0839 14.2666C37.9044 14.9493 38.2115 16.0777 37.8505 17.0868C37.4881 18.096 36.5369 18.7692 35.4699 18.7692H34.834V35.7314C34.834 37.1361 33.701 38.2754 32.3039 38.2754H5.76318C4.36609 38.2754 3.23305 37.1361 3.23305 35.7314ZM5.76318 35.7314H32.3039V16.2253H35.4699L19.0335 2.54392L2.52979 16.2253H5.76318V35.7314Z" fill="#F1FFE7"/>
<path fill-rule="evenodd" clip-rule="evenodd" d="M18.9999 9.91309C19.3041 9.91309 19.5507 10.2024 19.5507 10.5593V35.7017C19.5507 36.0586 19.3041 36.3479 18.9999 36.3479C18.6958 36.3479 18.4492 36.0586 18.4492 35.7017V10.5593C18.4492 10.2024 18.6958 9.91309 18.9999 9.91309Z" fill="url(#paint0_linear_2245_4)"/>
<path fill-rule="evenodd" clip-rule="evenodd" d="M22.8677 26.6581C22.995 26.5161 23.1782 26.4348 23.3707 26.4348H26.5901C26.9605 26.4348 27.2608 26.7301 27.2608 27.0943C27.2608 27.4585 26.9605 27.7538 26.5901 27.7538H23.6734L19.6229 32.2695C19.3779 32.5427 18.9541 32.5688 18.6763 32.3279C18.3985 32.087 18.3719 31.6702 18.6169 31.3971L22.8677 26.6581Z" fill="url(#paint1_linear_2245_4)"/>
<path fill-rule="evenodd" clip-rule="evenodd" d="M25.6672 16.6818C25.9324 16.9158 25.9578 17.3205 25.7239 17.5858L19.5698 24.5657C19.3359 24.831 18.9313 24.8564 18.666 24.6225C18.4008 24.3886 18.3754 23.9839 18.6093 23.7186L24.7634 16.7386C24.9973 16.4733 25.4019 16.4479 25.6672 16.6818Z" fill="url(#paint2_linear_2245_4)"/>
<path fill-rule="evenodd" clip-rule="evenodd" d="M11.7818 19.4389C11.5169 19.6778 11.4915 20.0912 11.7251 20.3621L18.4316 28.1409C18.6652 28.4118 19.0694 28.4378 19.3342 28.1988C19.5991 27.9599 19.6245 27.5466 19.3909 27.2756L12.6844 19.4969C12.4508 19.2259 12.0467 19.2 11.7818 19.4389Z" fill="url(#paint3_linear_2245_4)"/>
<path fill-rule="evenodd" clip-rule="evenodd" d="M11.1526 17.0723C12.1405 17.0723 12.9425 17.8747 12.9425 18.8621C12.9425 19.8496 12.1405 20.652 11.1526 20.652C10.1648 20.652 9.36279 19.8496 9.36279 18.8621C9.36279 17.8747 10.1648 17.0723 11.1526 17.0723ZM11.1526 18.2012C10.7877 18.2012 10.4915 18.4973 10.4915 18.8621C10.4915 19.227 10.7877 19.5231 11.1526 19.5231C11.5176 19.5231 11.8138 19.227 11.8138 18.8621C11.8138 18.4973 11.5176 18.2012 11.1526 18.2012Z" fill="#7BF6FF"/>
<path fill-rule="evenodd" clip-rule="evenodd" d="M18.9998 7.15942C20.0636 7.15942 20.9273 8.02354 20.9273 9.08696C20.9273 10.1504 20.0636 11.0145 18.9998 11.0145C17.936 11.0145 17.0723 10.1504 17.0723 9.08696C17.0723 8.02354 17.936 7.15942 18.9998 7.15942ZM18.9998 8.37517C18.6067 8.37517 18.2877 8.69405 18.2877 9.08696C18.2877 9.47987 18.6067 9.79875 18.9998 9.79875C19.3929 9.79875 19.7119 9.47987 19.7119 9.08696C19.7119 8.69405 19.3929 8.37517 18.9998 8.37517Z" fill="#67FF6C"/>
<path fill-rule="evenodd" clip-rule="evenodd" d="M26.1595 14.3186C27.2233 14.3186 28.087 15.121 28.087 16.1085C28.087 17.0959 27.2233 17.8983 26.1595 17.8983C25.0957 17.8983 24.2319 17.0959 24.2319 16.1085C24.2319 15.121 25.0957 14.3186 26.1595 14.3186ZM26.1595 15.4475C25.7664 15.4475 25.4474 15.7436 25.4474 16.1085C25.4474 16.4733 25.7664 16.7694 26.1595 16.7694C26.5525 16.7694 26.8715 16.4733 26.8715 16.1085C26.8715 15.7436 26.5525 15.4475 26.1595 15.4475Z" fill="#FF7474"/>
<path fill-rule="evenodd" clip-rule="evenodd" d="M27.9149 25.3333C28.9027 25.3333 29.7047 26.1974 29.7047 27.2608C29.7047 28.3242 28.9027 29.1883 27.9149 29.1883C26.927 29.1883 26.125 28.3242 26.125 27.2608C26.125 26.1974 26.927 25.3333 27.9149 25.3333ZM27.9149 26.549C27.5499 26.549 27.2537 26.8679 27.2537 27.2608C27.2537 27.6537 27.5499 27.9726 27.9149 27.9726C28.2798 27.9726 28.5761 27.6537 28.5761 27.2608C28.5761 26.8679 28.2798 26.549 27.9149 26.549Z" fill="#FFFA6A"/>
<defs>
<linearGradient id="paint0_linear_2245_4" x1="19.022" y1="10.5593" x2="19.022" y2="35.7017" gradientUnits="userSpaceOnUse">
<stop stop-color="#67FF6C"/>
<stop offset="0.43" stop-color="white"/>
</linearGradient>
<linearGradient id="paint1_linear_2245_4" x1="25.3332" y1="26.5208" x2="19.7915" y2="31.2708" gradientUnits="userSpaceOnUse">
<stop stop-color="#FFFA6A"/>
<stop offset="1" stop-color="white"/>
</linearGradient>
<linearGradient id="paint2_linear_2245_4" x1="24.7395" y1="17.6146" x2="19.5936" y2="23.3542" gradientUnits="userSpaceOnUse">
<stop stop-color="#FF7474"/>
<stop offset="1" stop-color="white"/>
</linearGradient>
<linearGradient id="paint3_linear_2245_4" x1="12.4689" y1="19.9896" x2="18.2085" y2="26.9167" gradientUnits="userSpaceOnUse">
<stop stop-color="#7BF6FF"/>
<stop offset="1" stop-color="white"/>
</linearGradient>
</defs>
</svg>
