<svg width="7" height="7" viewBox="0 0 7 7" fill="none" xmlns="http://www.w3.org/2000/svg">
<path d="M5.12283 1.45226C5.05319 1.44542 4.98368 1.46645 4.9295 1.51074C4.87533 1.55503 4.84091 1.61897 4.83377 1.68858C4.83039 1.72322 4.83387 1.75818 4.84402 1.79146C4.85418 1.82474 4.87081 1.85569 4.89294 1.88254C4.91508 1.90939 4.94229 1.93162 4.97302 1.94794C5.00376 1.96426 5.03741 1.97435 5.07205 1.97765L5.7283 2.04205C5.76294 2.04543 5.79789 2.04194 5.83118 2.03179C5.86446 2.02163 5.8954 2.00501 5.92226 1.98288C5.94911 1.96075 5.97134 1.93354 5.98765 1.9028C6.00397 1.87207 6.01407 1.83842 6.01736 1.80377C6.02074 1.76914 6.01725 1.73418 6.00709 1.7009C5.99694 1.66762 5.98032 1.63666 5.95819 1.60981C5.93606 1.58296 5.90885 1.56074 5.87811 1.54442C5.84738 1.5281 5.81372 1.51801 5.77908 1.51471L5.12283 1.45226Z" fill="#1A1B41"/>
<path d="M2.83953 0.0831168C2.43029 0.133617 2.0251 0.264727 1.64617 0.483507C1.22658 0.725757 0.881719 1.05044 0.622729 1.42491C0.60277 1.45348 0.588653 1.48571 0.581187 1.51975C0.57372 1.5538 0.573056 1.58898 0.579226 1.62328C0.585396 1.65758 0.598283 1.69032 0.617144 1.71962C0.636006 1.74893 0.660471 1.77423 0.689135 1.79405C0.717825 1.81392 0.750162 1.82791 0.784281 1.83522C0.818401 1.84254 0.853624 1.84301 0.887934 1.83666C0.922244 1.8303 0.954961 1.81723 0.984194 1.79817C1.01343 1.77912 1.03861 1.75447 1.05828 1.72565C1.27393 1.41387 1.55882 1.14512 1.90985 0.942454C3.17789 0.210354 4.79297 0.643156 5.52507 1.9112C5.56035 1.97175 5.61821 2.01583 5.68595 2.03377C5.75369 2.05171 5.82578 2.04205 5.8864 2.0069C5.94695 1.97162 5.99103 1.91376 6.00897 1.84603C6.02692 1.77829 6.01725 1.70621 5.9821 1.64559C5.32578 0.508796 4.06727 -0.0683732 2.83953 0.0831168ZM0.562182 2.04991C0.495875 2.02718 0.423255 2.0317 0.36027 2.06246C0.297285 2.09322 0.249086 2.14771 0.226245 2.21398C0.212445 2.25468 0.199244 2.29608 0.187144 2.33702C0.167473 2.40436 0.175351 2.47675 0.209048 2.53829C0.242744 2.59982 0.299498 2.64545 0.366831 2.66515C0.433911 2.68489 0.506077 2.67729 0.567561 2.64398C0.629045 2.61068 0.674851 2.55439 0.694956 2.48741C0.705056 2.45301 0.716752 2.41741 0.728152 2.3839C0.750192 2.31759 0.745104 2.24525 0.713999 2.18268C0.682895 2.12011 0.628351 2.07238 0.562182 2.04991ZM0.319995 2.98937C0.25014 2.99012 0.183417 3.01848 0.134387 3.06824C0.085356 3.118 0.0579981 3.18513 0.0582758 3.25499C0.0583958 3.27229 0.0572858 3.29408 0.0582758 3.31938C0.0596493 3.35415 0.067863 3.38831 0.0824534 3.41989C0.0970438 3.45148 0.117718 3.47988 0.143298 3.50347C0.168878 3.52705 0.198859 3.54536 0.231524 3.55734C0.264189 3.56933 0.298903 3.57475 0.333666 3.57331C0.403531 3.57053 0.469454 3.54021 0.517031 3.48897C0.564609 3.43773 0.589968 3.36975 0.587573 3.29987C0.587123 3.28837 0.587713 3.27066 0.587573 3.25106C0.587197 3.2163 0.579977 3.18196 0.566325 3.15C0.552673 3.11803 0.532855 3.08906 0.508006 3.06476C0.483157 3.04046 0.453764 3.02129 0.421504 3.00835C0.389243 2.99541 0.354751 2.98897 0.319995 2.98937Z" fill="#1A1B41"/>
<path d="M6.00561 0.835081C5.97201 0.82607 5.93697 0.823773 5.90248 0.828322C5.86799 0.832871 5.83474 0.844178 5.80462 0.861594C5.77451 0.879009 5.74812 0.902191 5.72697 0.929816C5.70583 0.95744 5.69034 0.988964 5.68139 1.02258L5.4978 1.71008C5.48879 1.74368 5.48649 1.77873 5.49104 1.81322C5.49559 1.8477 5.50691 1.88096 5.52432 1.91107C5.54174 1.94118 5.56492 1.96758 5.59254 1.98872C5.62017 2.00987 5.65168 2.02535 5.6853 2.0343C5.7189 2.04331 5.75395 2.04561 5.78844 2.04106C5.82292 2.03651 5.85618 2.0252 5.88629 2.00778C5.9164 1.99036 5.9428 1.96718 5.96394 1.93956C5.98509 1.91193 6.00057 1.88042 6.00952 1.8468L6.19311 1.1593C6.20213 1.1257 6.20442 1.09066 6.19987 1.05617C6.19532 1.02168 6.18402 0.988418 6.16661 0.958304C6.14919 0.928189 6.12601 0.901812 6.09839 0.880667C6.07076 0.859522 6.03923 0.844029 6.00561 0.835081Z" fill="#1A1B41"/>
<path d="M0.738065 4.42489C0.703431 4.42152 0.668472 4.42501 0.63519 4.43516C0.601907 4.44532 0.570953 4.46193 0.544102 4.48407C0.517252 4.5062 0.49503 4.53341 0.478711 4.56414C0.462392 4.59488 0.452297 4.62853 0.449002 4.66317C0.445625 4.69781 0.449118 4.73276 0.459271 4.76605C0.469425 4.79933 0.486042 4.83029 0.508176 4.85714C0.530309 4.884 0.55752 4.90621 0.588254 4.92253C0.618988 4.93885 0.652642 4.94894 0.687283 4.95224L1.34353 5.01474C1.37817 5.01811 1.41313 5.01462 1.44641 5.00447C1.47969 4.99431 1.51064 4.9777 1.5375 4.95556C1.56435 4.93343 1.58657 4.90622 1.60289 4.87548C1.61921 4.84475 1.6293 4.8111 1.6326 4.77646C1.63887 4.70683 1.61732 4.63755 1.57267 4.58375C1.52803 4.52996 1.46391 4.49601 1.39431 4.48935L0.738065 4.42489Z" fill="#1A1B41"/>
<path d="M6.1324 2.89366C6.06254 2.89644 5.99661 2.92676 5.94904 2.978C5.90146 3.02923 5.8761 3.09722 5.8785 3.1671C5.87894 3.1786 5.87836 3.1943 5.8785 3.214C5.87861 3.24893 5.88565 3.28347 5.89919 3.31566C5.91272 3.34785 5.93249 3.37705 5.95737 3.40157C5.98224 3.42608 6.01173 3.44542 6.04412 3.45848C6.0765 3.47154 6.11115 3.47806 6.14607 3.47766C6.21593 3.47691 6.28265 3.44857 6.33168 3.3988C6.38071 3.34904 6.40807 3.2819 6.40779 3.21204C6.40767 3.19474 6.40878 3.17294 6.40779 3.14764C6.40642 3.11288 6.3982 3.07872 6.38361 3.04713C6.36902 3.01555 6.34834 2.98715 6.32276 2.96356C6.29718 2.93998 6.26719 2.92167 6.23453 2.90968C6.20186 2.8977 6.16717 2.89221 6.1324 2.89366ZM6.0992 3.80186C6.03212 3.78212 5.95996 3.78973 5.89847 3.82303C5.83698 3.85633 5.79118 3.91263 5.77107 3.9796C5.76097 4.014 5.74927 4.04949 5.73787 4.08311C5.71583 4.14943 5.72093 4.22176 5.75203 4.28433C5.78314 4.3469 5.83772 4.39463 5.90389 4.4171C5.97019 4.43983 6.04281 4.43532 6.10579 4.40456C6.16877 4.3738 6.21698 4.3193 6.23982 4.25304C6.25362 4.21234 6.26682 4.17094 6.27892 4.12999C6.29859 4.06265 6.2907 3.99026 6.25701 3.92873C6.22331 3.8672 6.16653 3.82156 6.0992 3.80186ZM0.78084 4.43272C0.713428 4.41525 0.641847 4.42506 0.581621 4.46002C0.551472 4.47732 0.52503 4.5004 0.503801 4.52792C0.482573 4.55545 0.466976 4.5869 0.457903 4.62045C0.44883 4.65401 0.446457 4.68902 0.450922 4.7235C0.455386 4.75797 0.466597 4.79123 0.483919 4.82137C1.35902 6.33707 3.30415 6.85856 4.81986 5.98347C5.23945 5.74121 5.58429 5.41653 5.84329 5.04205C5.86325 5.01348 5.87738 4.98126 5.88484 4.94722C5.89231 4.91318 5.89298 4.87799 5.88681 4.84369C5.88064 4.80939 5.86776 4.77665 5.84889 4.74735C5.83003 4.71804 5.80557 4.69274 5.7769 4.67291C5.74833 4.65295 5.7161 4.63884 5.68205 4.63138C5.64801 4.62391 5.61284 4.62324 5.57854 4.62941C5.54424 4.63558 5.51149 4.64847 5.48218 4.66733C5.45287 4.68619 5.42759 4.71065 5.40776 4.73932C5.19212 5.05111 4.90723 5.3218 4.5562 5.52448C3.28816 6.25659 1.67502 5.82377 0.942919 4.55573C0.925357 4.52553 0.901994 4.4991 0.87417 4.47798C0.846347 4.45686 0.814645 4.44152 0.78084 4.43272Z" fill="#1A1B41"/>
<path d="M0.780999 4.43274C0.747398 4.42373 0.712354 4.42143 0.677864 4.42598C0.643375 4.43053 0.610117 4.44184 0.580002 4.45926C0.549887 4.47667 0.523502 4.49986 0.502358 4.52748C0.481213 4.5551 0.465727 4.58662 0.45678 4.62024L0.273186 5.30774C0.264176 5.34134 0.261884 5.37638 0.266434 5.41087C0.270984 5.44536 0.28229 5.47861 0.299706 5.50873C0.317121 5.53884 0.340304 5.56523 0.367928 5.58638C0.395551 5.60752 0.42707 5.62301 0.460686 5.63196C0.494287 5.64097 0.529339 5.64327 0.563828 5.63872C0.598317 5.63417 0.631568 5.62285 0.661682 5.60544C0.691797 5.58802 0.718182 5.56484 0.739327 5.53721C0.760471 5.50959 0.775965 5.47807 0.784912 5.44446L0.968499 4.75696C0.977509 4.72336 0.979808 4.68831 0.975258 4.65382C0.970708 4.61933 0.959402 4.58608 0.941986 4.55597C0.924571 4.52585 0.901388 4.49946 0.873764 4.47832C0.846141 4.45717 0.814615 4.44169 0.780999 4.43274Z" fill="#1A1B41"/>
<path d="M3.23413 1.38196C2.21439 1.38196 1.38062 2.21378 1.38062 3.23353C1.38062 4.25327 2.21439 5.08509 3.23413 5.08509C4.25388 5.08509 5.08569 4.25327 5.08569 3.23353C5.08569 2.21378 4.25388 1.38196 3.23413 1.38196ZM3.23413 1.91126C3.96789 1.91126 4.5564 2.49977 4.5564 3.23353C4.5564 3.96729 3.96789 4.55579 3.23413 4.55579C2.50037 4.55579 1.90992 3.96729 1.90992 3.23353C1.90992 2.49977 2.50037 1.91126 3.23413 1.91126Z" fill="#1A1B41"/>
<path d="M3.23413 2.44055C3.19937 2.44042 3.16493 2.44714 3.13277 2.46031C3.10061 2.47349 3.07136 2.49288 3.04669 2.51737C3.02203 2.54185 3.00243 2.57095 2.98901 2.60301C2.9756 2.63508 2.96863 2.66947 2.96851 2.70423V3.23352C2.96863 3.26828 2.9756 3.30267 2.98901 3.33473C3.00243 3.3668 3.02203 3.39591 3.04669 3.4204C3.07136 3.44488 3.10061 3.46426 3.13277 3.47743C3.16493 3.49061 3.19937 3.49733 3.23413 3.49719C3.30399 3.49696 3.37091 3.46911 3.4203 3.41971C3.4697 3.37031 3.49756 3.30338 3.4978 3.23352V2.70423C3.49756 2.63437 3.4697 2.56743 3.4203 2.51804C3.37091 2.46864 3.30399 2.44079 3.23413 2.44055Z" fill="#1A1B41"/>
<path d="M3.60759 3.6075L3.2334 3.23334Z" fill="#1A1B41"/>
<path d="M3.04666 3.04599C3.02197 3.07057 3.00237 3.0998 2.989 3.13197C2.97563 3.16415 2.96875 3.19865 2.96875 3.23349C2.96875 3.26833 2.97563 3.30283 2.989 3.33501C3.00237 3.36718 3.02197 3.39641 3.04666 3.42099L3.41971 3.79404C3.44429 3.81873 3.47351 3.83832 3.50569 3.85168C3.53787 3.86505 3.57236 3.87193 3.60721 3.87193C3.64205 3.87193 3.67655 3.86505 3.70872 3.85168C3.7409 3.83832 3.77012 3.81873 3.79471 3.79404C3.84398 3.74446 3.87163 3.67741 3.87163 3.60751C3.87163 3.53762 3.84398 3.47056 3.79471 3.42099L3.41971 3.04599C3.37014 2.99671 3.30308 2.96906 3.23318 2.96906C3.16329 2.96906 3.09623 2.99671 3.04666 3.04599Z" fill="#1A1B41"/>
</svg>
