<svg width="96" height="97" viewBox="0 0 96 97" fill="none" xmlns="http://www.w3.org/2000/svg">
<path fill-rule="evenodd" clip-rule="evenodd" d="M8.16771 90.2689V47.417H6.39106C3.69544 47.417 1.2891 45.7128 0.376948 43.1633C-0.535207 40.6104 0.244241 37.7563 2.32382 36.0316L44.0175 1.46809C46.3829 -0.492787 49.8001 -0.489355 52.1622 1.47837L93.6856 36.0419C95.7584 37.7666 96.5344 40.6172 95.6223 43.1667C94.7067 45.7162 92.3038 47.417 89.6082 47.417H88.0017V90.2689C88.0017 93.8176 85.1393 96.6957 81.6098 96.6957H14.5596C11.0301 96.6957 8.16771 93.8176 8.16771 90.2689ZM14.5596 90.2689H81.6098V40.9902H89.6082L48.0847 6.42675L6.39106 40.9902H14.5596V90.2689Z" fill="#F1FFE7"/>
<path fill-rule="evenodd" clip-rule="evenodd" d="M48.0002 25.0435C48.7686 25.0435 49.3915 25.7743 49.3915 26.6759V90.1936C49.3915 91.0952 48.7686 91.8261 48.0002 91.8261C47.2318 91.8261 46.6089 91.0952 46.6089 90.1936V26.6759C46.6089 25.7743 47.2318 25.0435 48.0002 25.0435Z" fill="url(#paint0_linear_2206_170)"/>
<path fill-rule="evenodd" clip-rule="evenodd" d="M57.7714 67.3467C58.093 66.9881 58.5558 66.7827 59.0421 66.7827H67.1754C68.1112 66.7827 68.8698 67.5286 68.8698 68.4488C68.8698 69.3689 68.1112 70.1149 67.1754 70.1149H59.8069L49.5739 81.523C48.9549 82.2131 47.8843 82.2791 47.1825 81.6705C46.4807 81.0618 46.4136 80.009 47.0326 79.3189L57.7714 67.3467Z" fill="url(#paint1_linear_2206_170)"/>
<path fill-rule="evenodd" clip-rule="evenodd" d="M64.8438 42.1435C65.5138 42.7345 65.578 43.7569 64.9871 44.4271L49.4398 62.0607C48.8489 62.7309 47.8267 62.7951 47.1566 62.2041C46.4866 61.6131 46.4224 60.5907 47.0133 59.9205L62.5606 42.2869C63.1515 41.6167 64.1737 41.5525 64.8438 42.1435Z" fill="url(#paint2_linear_2206_170)"/>
<path fill-rule="evenodd" clip-rule="evenodd" d="M29.7642 49.1087C29.095 49.7123 29.0309 50.7565 29.6211 51.441L46.5638 71.0926C47.154 71.777 48.1749 71.8426 48.8441 71.239C49.5133 70.6354 49.5774 69.5911 48.9872 68.9066L32.0445 49.2551C31.4543 48.5706 30.4334 48.505 29.7642 49.1087Z" fill="url(#paint3_linear_2206_170)"/>
<path fill-rule="evenodd" clip-rule="evenodd" d="M28.1741 43.1304C30.6696 43.1304 32.6958 45.1575 32.6958 47.6521C32.6958 50.1467 30.6696 52.1738 28.1741 52.1738C25.6785 52.1738 23.6523 50.1467 23.6523 47.6521C23.6523 45.1575 25.6785 43.1304 28.1741 43.1304ZM28.1741 45.9823C27.252 45.9823 26.5037 46.7304 26.5037 47.6521C26.5037 48.5738 27.252 49.3219 28.1741 49.3219C29.0961 49.3219 29.8445 48.5738 29.8445 47.6521C29.8445 46.7304 29.0961 45.9823 28.1741 45.9823Z" fill="#7BF6FF"/>
<path fill-rule="evenodd" clip-rule="evenodd" d="M47.9999 18.0869C50.6875 18.0869 52.8695 20.27 52.8695 22.9565C52.8695 25.643 50.6875 27.826 47.9999 27.826C45.3124 27.826 43.1304 25.643 43.1304 22.9565C43.1304 20.27 45.3124 18.0869 47.9999 18.0869ZM47.9999 21.1583C47.007 21.1583 46.2011 21.9639 46.2011 22.9565C46.2011 23.9491 47.007 24.7547 47.9999 24.7547C48.9929 24.7547 49.7988 23.9491 49.7988 22.9565C49.7988 21.9639 48.9929 21.1583 47.9999 21.1583Z" fill="#67FF6C"/>
<path fill-rule="evenodd" clip-rule="evenodd" d="M66.0869 36.1738C68.7744 36.1738 70.9564 38.2009 70.9564 40.6956C70.9564 43.1902 68.7744 45.2173 66.0869 45.2173C63.3993 45.2173 61.2173 43.1902 61.2173 40.6956C61.2173 38.2009 63.3993 36.1738 66.0869 36.1738ZM66.0869 39.0258C65.0939 39.0258 64.288 39.7739 64.288 40.6956C64.288 41.6173 65.0939 42.3653 66.0869 42.3653C67.0798 42.3653 67.8857 41.6173 67.8857 40.6956C67.8857 39.7739 67.0798 39.0258 66.0869 39.0258Z" fill="#FF7474"/>
<path fill-rule="evenodd" clip-rule="evenodd" d="M70.5217 64C73.0173 64 75.0435 66.183 75.0435 68.8696C75.0435 71.5561 73.0173 73.7391 70.5217 73.7391C68.0262 73.7391 66 71.5561 66 68.8696C66 66.183 68.0262 64 70.5217 64ZM70.5217 67.0714C69.5997 67.0714 68.8513 67.877 68.8513 68.8696C68.8513 69.8622 69.5997 70.6678 70.5217 70.6678C71.4438 70.6678 72.1921 69.8622 72.1921 68.8696C72.1921 67.877 71.4438 67.0714 70.5217 67.0714Z" fill="#FFFA6A"/>
<defs>
<linearGradient id="paint0_linear_2206_170" x1="48.0558" y1="26.6759" x2="48.0558" y2="90.1936" gradientUnits="userSpaceOnUse">
<stop stop-color="#67FF6C"/>
<stop offset="0.43" stop-color="white"/>
</linearGradient>
<linearGradient id="paint1_linear_2206_170" x1="64" y1="67" x2="50" y2="79" gradientUnits="userSpaceOnUse">
<stop stop-color="#FFFA6A"/>
<stop offset="1" stop-color="white"/>
</linearGradient>
<linearGradient id="paint2_linear_2206_170" x1="62.5" y1="44.5" x2="49.5" y2="59" gradientUnits="userSpaceOnUse">
<stop stop-color="#FF7474"/>
<stop offset="1" stop-color="white"/>
</linearGradient>
<linearGradient id="paint3_linear_2206_170" x1="31.5" y1="50.5" x2="46" y2="68" gradientUnits="userSpaceOnUse">
<stop stop-color="#7BF6FF"/>
<stop offset="1" stop-color="white"/>
</linearGradient>
</defs>
</svg>
