<svg width="348" height="219" viewBox="0 0 348 219" fill="none" xmlns="http://www.w3.org/2000/svg">
<path fill-rule="evenodd" clip-rule="evenodd" d="M134.168 90.2689V47.417H132.391C129.695 47.417 127.289 45.7128 126.377 43.1633C125.465 40.6104 126.244 37.7563 128.324 36.0316L170.017 1.46809C172.383 -0.492787 175.8 -0.489355 178.162 1.47837L219.686 36.0419C221.758 37.7666 222.534 40.6172 221.622 43.1667C220.707 45.7162 218.304 47.417 215.608 47.417H214.002V90.2689C214.002 93.8176 211.139 96.6957 207.61 96.6957H140.56C137.03 96.6957 134.168 93.8176 134.168 90.2689ZM140.56 90.2689H207.61V40.9902H215.608L174.085 6.42675L132.391 40.9902H140.56V90.2689Z" fill="#F1FFE7"/>
<path fill-rule="evenodd" clip-rule="evenodd" d="M174 25.0435C174.769 25.0435 175.391 25.7743 175.391 26.6759V90.1936C175.391 91.0952 174.769 91.8261 174 91.8261C173.232 91.8261 172.609 91.0952 172.609 90.1936V26.6759C172.609 25.7743 173.232 25.0435 174 25.0435Z" fill="url(#paint0_linear_2221_203)"/>
<path fill-rule="evenodd" clip-rule="evenodd" d="M183.771 67.3467C184.093 66.9881 184.556 66.7827 185.042 66.7827H193.175C194.111 66.7827 194.87 67.5286 194.87 68.4488C194.87 69.3689 194.111 70.1149 193.175 70.1149H185.807L175.574 81.523C174.955 82.2131 173.884 82.2791 173.182 81.6705C172.481 81.0618 172.414 80.009 173.033 79.3189L183.771 67.3467Z" fill="url(#paint1_linear_2221_203)"/>
<path fill-rule="evenodd" clip-rule="evenodd" d="M190.844 42.1435C191.514 42.7345 191.578 43.7569 190.987 44.4271L175.44 62.0607C174.849 62.7309 173.827 62.7951 173.157 62.2041C172.487 61.6131 172.422 60.5907 173.013 59.9205L188.561 42.2869C189.151 41.6167 190.174 41.5525 190.844 42.1435Z" fill="url(#paint2_linear_2221_203)"/>
<path fill-rule="evenodd" clip-rule="evenodd" d="M155.764 49.1087C155.095 49.7123 155.031 50.7565 155.621 51.441L172.564 71.0926C173.154 71.777 174.175 71.8426 174.844 71.239C175.513 70.6354 175.577 69.5911 174.987 68.9066L158.044 49.2551C157.454 48.5706 156.433 48.505 155.764 49.1087Z" fill="url(#paint3_linear_2221_203)"/>
<path fill-rule="evenodd" clip-rule="evenodd" d="M154.174 43.1304C156.67 43.1304 158.696 45.1575 158.696 47.6521C158.696 50.1467 156.67 52.1738 154.174 52.1738C151.679 52.1738 149.652 50.1467 149.652 47.6521C149.652 45.1575 151.679 43.1304 154.174 43.1304ZM154.174 45.9823C153.252 45.9823 152.504 46.7304 152.504 47.6521C152.504 48.5738 153.252 49.3219 154.174 49.3219C155.096 49.3219 155.844 48.5738 155.844 47.6521C155.844 46.7304 155.096 45.9823 154.174 45.9823Z" fill="#7BF6FF"/>
<path fill-rule="evenodd" clip-rule="evenodd" d="M174 18.0869C176.687 18.0869 178.87 20.27 178.87 22.9565C178.87 25.643 176.687 27.826 174 27.826C171.312 27.826 169.13 25.643 169.13 22.9565C169.13 20.27 171.312 18.0869 174 18.0869ZM174 21.1583C173.007 21.1583 172.201 21.9639 172.201 22.9565C172.201 23.9491 173.007 24.7547 174 24.7547C174.993 24.7547 175.799 23.9491 175.799 22.9565C175.799 21.9639 174.993 21.1583 174 21.1583Z" fill="#67FF6C"/>
<path fill-rule="evenodd" clip-rule="evenodd" d="M192.087 36.1738C194.774 36.1738 196.956 38.2009 196.956 40.6956C196.956 43.1902 194.774 45.2173 192.087 45.2173C189.399 45.2173 187.217 43.1902 187.217 40.6956C187.217 38.2009 189.399 36.1738 192.087 36.1738ZM192.087 39.0258C191.094 39.0258 190.288 39.7739 190.288 40.6956C190.288 41.6173 191.094 42.3653 192.087 42.3653C193.08 42.3653 193.886 41.6173 193.886 40.6956C193.886 39.7739 193.08 39.0258 192.087 39.0258Z" fill="#FF7474"/>
<path fill-rule="evenodd" clip-rule="evenodd" d="M196.522 64C199.017 64 201.043 66.183 201.043 68.8696C201.043 71.5561 199.017 73.7391 196.522 73.7391C194.026 73.7391 192 71.5561 192 68.8696C192 66.183 194.026 64 196.522 64ZM196.522 67.0714C195.6 67.0714 194.851 67.877 194.851 68.8696C194.851 69.8622 195.6 70.6678 196.522 70.6678C197.444 70.6678 198.192 69.8622 198.192 68.8696C198.192 67.877 197.444 67.0714 196.522 67.0714Z" fill="#FFFA6A"/>
<path d="M91.45 168L83.75 154.4H80.45V168H73.45V133.1H86.55C89.25 133.1 91.55 133.583 93.45 134.55C95.35 135.483 96.7667 136.767 97.7 138.4C98.6667 140 99.15 141.8 99.15 143.8C99.15 146.1 98.4833 148.183 97.15 150.05C95.8167 151.883 93.8333 153.15 91.2 153.85L99.55 168H91.45ZM80.45 149.15H86.3C88.2 149.15 89.6167 148.7 90.55 147.8C91.4833 146.867 91.95 145.583 91.95 143.95C91.95 142.35 91.4833 141.117 90.55 140.25C89.6167 139.35 88.2 138.9 86.3 138.9H80.45V149.15ZM131.231 153.55C131.231 154.55 131.165 155.45 131.031 156.25H110.781C110.948 158.25 111.648 159.817 112.881 160.95C114.115 162.083 115.631 162.65 117.431 162.65C120.031 162.65 121.881 161.533 122.981 159.3H130.531C129.731 161.967 128.198 164.167 125.931 165.9C123.665 167.6 120.881 168.45 117.581 168.45C114.915 168.45 112.515 167.867 110.381 166.7C108.281 165.5 106.631 163.817 105.431 161.65C104.265 159.483 103.681 156.983 103.681 154.15C103.681 151.283 104.265 148.767 105.431 146.6C106.598 144.433 108.231 142.767 110.331 141.6C112.431 140.433 114.848 139.85 117.581 139.85C120.215 139.85 122.565 140.417 124.631 141.55C126.731 142.683 128.348 144.3 129.481 146.4C130.648 148.467 131.231 150.85 131.231 153.55ZM123.981 151.55C123.948 149.75 123.298 148.317 122.031 147.25C120.765 146.15 119.215 145.6 117.381 145.6C115.648 145.6 114.181 146.133 112.981 147.2C111.815 148.233 111.098 149.683 110.831 151.55H123.981ZM146.941 168.45C144.674 168.45 142.641 168.05 140.841 167.25C139.041 166.417 137.607 165.3 136.541 163.9C135.507 162.5 134.941 160.95 134.841 159.25H141.891C142.024 160.317 142.541 161.2 143.441 161.9C144.374 162.6 145.524 162.95 146.891 162.95C148.224 162.95 149.257 162.683 149.991 162.15C150.757 161.617 151.141 160.933 151.141 160.1C151.141 159.2 150.674 158.533 149.741 158.1C148.841 157.633 147.391 157.133 145.391 156.6C143.324 156.1 141.624 155.583 140.291 155.05C138.991 154.517 137.857 153.7 136.891 152.6C135.957 151.5 135.491 150.017 135.491 148.15C135.491 146.617 135.924 145.217 136.791 143.95C137.691 142.683 138.957 141.683 140.591 140.95C142.257 140.217 144.207 139.85 146.441 139.85C149.741 139.85 152.374 140.683 154.341 142.35C156.307 143.983 157.391 146.2 157.591 149H150.891C150.791 147.9 150.324 147.033 149.491 146.4C148.691 145.733 147.607 145.4 146.241 145.4C144.974 145.4 143.991 145.633 143.291 146.1C142.624 146.567 142.291 147.217 142.291 148.05C142.291 148.983 142.757 149.7 143.691 150.2C144.624 150.667 146.074 151.15 148.041 151.65C150.041 152.15 151.691 152.667 152.991 153.2C154.291 153.733 155.407 154.567 156.341 155.7C157.307 156.8 157.807 158.267 157.841 160.1C157.841 161.7 157.391 163.133 156.491 164.4C155.624 165.667 154.357 166.667 152.691 167.4C151.057 168.1 149.141 168.45 146.941 168.45ZM167.137 137C165.903 137 164.87 136.617 164.037 135.85C163.237 135.05 162.837 134.067 162.837 132.9C162.837 131.733 163.237 130.767 164.037 130C164.87 129.2 165.903 128.8 167.137 128.8C168.37 128.8 169.387 129.2 170.187 130C171.02 130.767 171.437 131.733 171.437 132.9C171.437 134.067 171.02 135.05 170.187 135.85C169.387 136.617 168.37 137 167.137 137ZM170.587 140.3V168H163.587V140.3H170.587ZM206.453 133.1V168H199.453V153.15H184.503V168H177.503V133.1H184.503V147.45H199.453V133.1H206.453ZM239.493 140.3V168H232.443V164.5C231.543 165.7 230.359 166.65 228.893 167.35C227.459 168.017 225.893 168.35 224.193 168.35C222.026 168.35 220.109 167.9 218.443 167C216.776 166.067 215.459 164.717 214.493 162.95C213.559 161.15 213.093 159.017 213.093 156.55V140.3H220.093V155.55C220.093 157.75 220.643 159.45 221.743 160.65C222.843 161.817 224.343 162.4 226.243 162.4C228.176 162.4 229.693 161.817 230.793 160.65C231.893 159.45 232.443 157.75 232.443 155.55V140.3H239.493ZM253.399 144.35C254.299 143.017 255.533 141.933 257.099 141.1C258.699 140.267 260.516 139.85 262.549 139.85C264.916 139.85 267.049 140.433 268.949 141.6C270.883 142.767 272.399 144.433 273.499 146.6C274.633 148.733 275.199 151.217 275.199 154.05C275.199 156.883 274.633 159.4 273.499 161.6C272.399 163.767 270.883 165.45 268.949 166.65C267.049 167.85 264.916 168.45 262.549 168.45C260.483 168.45 258.666 168.05 257.099 167.25C255.566 166.417 254.333 165.35 253.399 164.05V168H246.399V131H253.399V144.35ZM268.049 154.05C268.049 152.383 267.699 150.95 266.999 149.75C266.333 148.517 265.433 147.583 264.299 146.95C263.199 146.317 261.999 146 260.699 146C259.433 146 258.233 146.333 257.099 147C255.999 147.633 255.099 148.567 254.399 149.8C253.733 151.033 253.399 152.483 253.399 154.15C253.399 155.817 253.733 157.267 254.399 158.5C255.099 159.733 255.999 160.683 257.099 161.35C258.233 161.983 259.433 162.3 260.699 162.3C261.999 162.3 263.199 161.967 264.299 161.3C265.433 160.633 266.333 159.683 266.999 158.45C267.699 157.217 268.049 155.75 268.049 154.05Z" fill="#F1FFE7"/>
<path d="M2.7 189.418V202H1.44V189.418H2.7ZM6.81328 188.68V202H5.55328V188.68H6.81328ZM14.03 197.086C14.03 196.066 14.234 195.178 14.642 194.422C15.05 193.654 15.614 193.066 16.334 192.658C17.054 192.238 17.876 192.028 18.8 192.028C20.012 192.028 21.008 192.328 21.788 192.928C22.58 193.528 23.09 194.344 23.318 195.376H21.968C21.8 194.668 21.434 194.116 20.87 193.72C20.318 193.312 19.628 193.108 18.8 193.108C18.14 193.108 17.546 193.258 17.018 193.558C16.49 193.858 16.07 194.308 15.758 194.908C15.458 195.496 15.308 196.222 15.308 197.086C15.308 197.95 15.458 198.682 15.758 199.282C16.07 199.882 16.49 200.332 17.018 200.632C17.546 200.932 18.14 201.082 18.8 201.082C19.628 201.082 20.318 200.884 20.87 200.488C21.434 200.08 21.8 199.516 21.968 198.796H23.318C23.09 199.804 22.58 200.614 21.788 201.226C20.996 201.838 20 202.144 18.8 202.144C17.876 202.144 17.054 201.94 16.334 201.532C15.614 201.112 15.05 200.524 14.642 199.768C14.234 199 14.03 198.106 14.03 197.086ZM34.1591 192.172V202H32.8991V200.272C32.6111 200.884 32.1671 201.352 31.5671 201.676C30.9671 202 30.2951 202.162 29.5511 202.162C28.3751 202.162 27.4151 201.802 26.6711 201.082C25.9271 200.35 25.5551 199.294 25.5551 197.914V192.172H26.7971V197.77C26.7971 198.838 27.0611 199.654 27.5891 200.218C28.1291 200.782 28.8611 201.064 29.7851 201.064C30.7331 201.064 31.4891 200.764 32.0531 200.164C32.6171 199.564 32.8991 198.682 32.8991 197.518V192.172H34.1591ZM41.3377 202.144C40.4137 202.144 39.5797 201.94 38.8357 201.532C38.1037 201.112 37.5217 200.524 37.0897 199.768C36.6697 199 36.4597 198.106 36.4597 197.086C36.4597 196.066 36.6757 195.178 37.1077 194.422C37.5397 193.654 38.1277 193.066 38.8717 192.658C39.6157 192.238 40.4497 192.028 41.3737 192.028C42.2977 192.028 43.1317 192.238 43.8757 192.658C44.6317 193.066 45.2197 193.654 45.6397 194.422C46.0717 195.178 46.2877 196.066 46.2877 197.086C46.2877 198.094 46.0717 198.982 45.6397 199.75C45.2077 200.518 44.6137 201.112 43.8577 201.532C43.1017 201.94 42.2617 202.144 41.3377 202.144ZM41.3377 201.046C41.9857 201.046 42.5857 200.902 43.1377 200.614C43.6897 200.314 44.1337 199.87 44.4697 199.282C44.8177 198.682 44.9917 197.95 44.9917 197.086C44.9917 196.222 44.8237 195.496 44.4877 194.908C44.1517 194.308 43.7077 193.864 43.1557 193.576C42.6037 193.276 42.0037 193.126 41.3557 193.126C40.7077 193.126 40.1077 193.276 39.5557 193.576C39.0037 193.864 38.5597 194.308 38.2237 194.908C37.8997 195.496 37.7377 196.222 37.7377 197.086C37.7377 197.95 37.8997 198.682 38.2237 199.282C38.5597 199.87 38.9977 200.314 39.5377 200.614C40.0897 200.902 40.6897 201.046 41.3377 201.046ZM49.8445 193.918C50.1205 193.306 50.5405 192.832 51.1045 192.496C51.6805 192.16 52.3825 191.992 53.2105 191.992V193.306H52.8685C51.9565 193.306 51.2245 193.552 50.6725 194.044C50.1205 194.536 49.8445 195.358 49.8445 196.51V202H48.5845V192.172H49.8445V193.918ZM63.998 196.582C63.998 197.014 63.986 197.344 63.962 197.572H55.808C55.844 198.316 56.024 198.952 56.348 199.48C56.672 200.008 57.098 200.41 57.626 200.686C58.154 200.95 58.73 201.082 59.354 201.082C60.17 201.082 60.854 200.884 61.406 200.488C61.97 200.092 62.342 199.558 62.522 198.886H63.854C63.614 199.846 63.098 200.632 62.306 201.244C61.526 201.844 60.542 202.144 59.354 202.144C58.43 202.144 57.602 201.94 56.87 201.532C56.138 201.112 55.562 200.524 55.142 199.768C54.734 199 54.53 198.106 54.53 197.086C54.53 196.066 54.734 195.172 55.142 194.404C55.55 193.636 56.12 193.048 56.852 192.64C57.584 192.232 58.418 192.028 59.354 192.028C60.29 192.028 61.106 192.232 61.802 192.64C62.51 193.048 63.05 193.6 63.422 194.296C63.806 194.98 63.998 195.742 63.998 196.582ZM62.72 196.546C62.732 195.814 62.582 195.19 62.27 194.674C61.97 194.158 61.556 193.768 61.028 193.504C60.5 193.24 59.924 193.108 59.3 193.108C58.364 193.108 57.566 193.408 56.906 194.008C56.246 194.608 55.88 195.454 55.808 196.546H62.72ZM71.8727 190.318C71.6207 190.318 71.4047 190.228 71.2247 190.048C71.0447 189.868 70.9547 189.646 70.9547 189.382C70.9547 189.118 71.0447 188.902 71.2247 188.734C71.4047 188.554 71.6207 188.464 71.8727 188.464C72.1247 188.464 72.3407 188.554 72.5207 188.734C72.7007 188.902 72.7907 189.118 72.7907 189.382C72.7907 189.646 72.7007 189.868 72.5207 190.048C72.3407 190.228 72.1247 190.318 71.8727 190.318ZM72.5027 192.172V202H71.2427V192.172H72.5027ZM79.964 191.992C81.14 191.992 82.1 192.358 82.844 193.09C83.588 193.81 83.96 194.86 83.96 196.24V202H82.718V196.384C82.718 195.316 82.448 194.5 81.908 193.936C81.38 193.372 80.654 193.09 79.73 193.09C78.782 193.09 78.026 193.39 77.462 193.99C76.898 194.59 76.616 195.472 76.616 196.636V202H75.356V192.172H76.616V193.846C76.928 193.246 77.378 192.79 77.966 192.478C78.554 192.154 79.22 191.992 79.964 191.992ZM88.3846 193.234V199.336C88.3846 199.936 88.4986 200.35 88.7266 200.578C88.9546 200.806 89.3566 200.92 89.9326 200.92H91.0846V202H89.7346C88.8466 202 88.1866 201.796 87.7546 201.388C87.3226 200.968 87.1066 200.284 87.1066 199.336V193.234H85.7386V192.172H87.1066V189.706H88.3846V192.172H91.0846V193.234H88.3846ZM102.055 196.582C102.055 197.014 102.043 197.344 102.019 197.572H93.8647C93.9007 198.316 94.0807 198.952 94.4047 199.48C94.7287 200.008 95.1547 200.41 95.6827 200.686C96.2107 200.95 96.7867 201.082 97.4107 201.082C98.2267 201.082 98.9107 200.884 99.4627 200.488C100.027 200.092 100.399 199.558 100.579 198.886H101.911C101.671 199.846 101.155 200.632 100.363 201.244C99.5827 201.844 98.5987 202.144 97.4107 202.144C96.4867 202.144 95.6587 201.94 94.9267 201.532C94.1947 201.112 93.6187 200.524 93.1987 199.768C92.7907 199 92.5867 198.106 92.5867 197.086C92.5867 196.066 92.7907 195.172 93.1987 194.404C93.6067 193.636 94.1767 193.048 94.9087 192.64C95.6407 192.232 96.4747 192.028 97.4107 192.028C98.3467 192.028 99.1627 192.232 99.8587 192.64C100.567 193.048 101.107 193.6 101.479 194.296C101.863 194.98 102.055 195.742 102.055 196.582ZM100.777 196.546C100.789 195.814 100.639 195.19 100.327 194.674C100.027 194.158 99.6127 193.768 99.0847 193.504C98.5567 193.24 97.9807 193.108 97.3567 193.108C96.4207 193.108 95.6227 193.408 94.9627 194.008C94.3027 194.608 93.9367 195.454 93.8647 196.546H100.777ZM105.62 188.68V202H104.36V188.68H105.62ZM109.733 188.68V202H108.473V188.68H109.733ZM113.216 190.318C112.964 190.318 112.748 190.228 112.568 190.048C112.388 189.868 112.298 189.646 112.298 189.382C112.298 189.118 112.388 188.902 112.568 188.734C112.748 188.554 112.964 188.464 113.216 188.464C113.468 188.464 113.684 188.554 113.864 188.734C114.044 188.902 114.134 189.118 114.134 189.382C114.134 189.646 114.044 189.868 113.864 190.048C113.684 190.228 113.468 190.318 113.216 190.318ZM113.846 192.172V202H112.586V192.172H113.846ZM120.822 192.028C121.746 192.028 122.55 192.244 123.234 192.676C123.918 193.108 124.41 193.654 124.71 194.314V192.172H125.97V202.252C125.97 203.152 125.772 203.95 125.376 204.646C124.992 205.342 124.452 205.876 123.756 206.248C123.06 206.632 122.268 206.824 121.38 206.824C120.12 206.824 119.07 206.524 118.23 205.924C117.402 205.324 116.886 204.508 116.682 203.476H117.924C118.14 204.16 118.548 204.706 119.148 205.114C119.76 205.522 120.504 205.726 121.38 205.726C122.016 205.726 122.586 205.588 123.09 205.312C123.594 205.048 123.99 204.652 124.278 204.124C124.566 203.596 124.71 202.972 124.71 202.252V199.822C124.398 200.494 123.9 201.052 123.216 201.496C122.544 201.928 121.746 202.144 120.822 202.144C119.922 202.144 119.112 201.934 118.392 201.514C117.684 201.094 117.126 200.5 116.718 199.732C116.322 198.964 116.124 198.076 116.124 197.068C116.124 196.06 116.322 195.178 116.718 194.422C117.126 193.654 117.684 193.066 118.392 192.658C119.112 192.238 119.922 192.028 120.822 192.028ZM124.71 197.086C124.71 196.294 124.548 195.598 124.224 194.998C123.9 194.398 123.456 193.936 122.892 193.612C122.34 193.288 121.728 193.126 121.056 193.126C120.36 193.126 119.736 193.282 119.184 193.594C118.632 193.906 118.194 194.362 117.87 194.962C117.558 195.55 117.402 196.252 117.402 197.068C117.402 197.872 117.558 198.58 117.87 199.192C118.194 199.792 118.632 200.254 119.184 200.578C119.736 200.89 120.36 201.046 121.056 201.046C121.728 201.046 122.34 200.884 122.892 200.56C123.456 200.236 123.9 199.774 124.224 199.174C124.548 198.574 124.71 197.878 124.71 197.086ZM137.738 196.582C137.738 197.014 137.726 197.344 137.702 197.572H129.548C129.584 198.316 129.764 198.952 130.088 199.48C130.412 200.008 130.838 200.41 131.366 200.686C131.894 200.95 132.47 201.082 133.094 201.082C133.91 201.082 134.594 200.884 135.146 200.488C135.71 200.092 136.082 199.558 136.262 198.886H137.594C137.354 199.846 136.838 200.632 136.046 201.244C135.266 201.844 134.282 202.144 133.094 202.144C132.17 202.144 131.342 201.94 130.61 201.532C129.878 201.112 129.302 200.524 128.882 199.768C128.474 199 128.27 198.106 128.27 197.086C128.27 196.066 128.474 195.172 128.882 194.404C129.29 193.636 129.86 193.048 130.592 192.64C131.324 192.232 132.158 192.028 133.094 192.028C134.03 192.028 134.846 192.232 135.542 192.64C136.25 193.048 136.79 193.6 137.162 194.296C137.546 194.98 137.738 195.742 137.738 196.582ZM136.46 196.546C136.472 195.814 136.322 195.19 136.01 194.674C135.71 194.158 135.296 193.768 134.768 193.504C134.24 193.24 133.664 193.108 133.04 193.108C132.104 193.108 131.306 193.408 130.646 194.008C129.986 194.608 129.62 195.454 129.548 196.546H136.46ZM144.652 191.992C145.828 191.992 146.788 192.358 147.532 193.09C148.276 193.81 148.648 194.86 148.648 196.24V202H147.406V196.384C147.406 195.316 147.136 194.5 146.596 193.936C146.068 193.372 145.342 193.09 144.418 193.09C143.47 193.09 142.714 193.39 142.15 193.99C141.586 194.59 141.304 195.472 141.304 196.636V202H140.044V192.172H141.304V193.846C141.616 193.246 142.066 192.79 142.654 192.478C143.242 192.154 143.908 191.992 144.652 191.992ZM153.072 193.234V199.336C153.072 199.936 153.186 200.35 153.414 200.578C153.642 200.806 154.044 200.92 154.62 200.92H155.772V202H154.422C153.534 202 152.874 201.796 152.442 201.388C152.01 200.968 151.794 200.284 151.794 199.336V193.234H150.426V192.172H151.794V189.706H153.072V192.172H155.772V193.234H153.072ZM166.742 196.582C166.742 197.014 166.73 197.344 166.706 197.572H158.552C158.588 198.316 158.768 198.952 159.092 199.48C159.416 200.008 159.842 200.41 160.37 200.686C160.898 200.95 161.474 201.082 162.098 201.082C162.914 201.082 163.598 200.884 164.15 200.488C164.714 200.092 165.086 199.558 165.266 198.886H166.598C166.358 199.846 165.842 200.632 165.05 201.244C164.27 201.844 163.286 202.144 162.098 202.144C161.174 202.144 160.346 201.94 159.614 201.532C158.882 201.112 158.306 200.524 157.886 199.768C157.478 199 157.274 198.106 157.274 197.086C157.274 196.066 157.478 195.172 157.886 194.404C158.294 193.636 158.864 193.048 159.596 192.64C160.328 192.232 161.162 192.028 162.098 192.028C163.034 192.028 163.85 192.232 164.546 192.64C165.254 193.048 165.794 193.6 166.166 194.296C166.55 194.98 166.742 195.742 166.742 196.582ZM165.464 196.546C165.476 195.814 165.326 195.19 165.014 194.674C164.714 194.158 164.3 193.768 163.772 193.504C163.244 193.24 162.668 193.108 162.044 193.108C161.108 193.108 160.31 193.408 159.65 194.008C158.99 194.608 158.624 195.454 158.552 196.546H165.464ZM173.411 197.068C173.411 196.06 173.615 195.178 174.023 194.422C174.431 193.654 174.989 193.066 175.697 192.658C176.417 192.238 177.227 192.028 178.127 192.028C178.991 192.028 179.771 192.238 180.467 192.658C181.163 193.078 181.673 193.624 181.997 194.296V188.68H183.257V202H181.997V199.804C181.697 200.488 181.205 201.052 180.521 201.496C179.837 201.928 179.033 202.144 178.109 202.144C177.209 202.144 176.399 201.934 175.679 201.514C174.971 201.094 174.413 200.5 174.005 199.732C173.609 198.964 173.411 198.076 173.411 197.068ZM181.997 197.086C181.997 196.294 181.835 195.598 181.511 194.998C181.187 194.398 180.743 193.936 180.179 193.612C179.627 193.288 179.015 193.126 178.343 193.126C177.647 193.126 177.023 193.282 176.471 193.594C175.919 193.906 175.481 194.362 175.157 194.962C174.845 195.55 174.689 196.252 174.689 197.068C174.689 197.872 174.845 198.58 175.157 199.192C175.481 199.792 175.919 200.254 176.471 200.578C177.023 200.89 177.647 201.046 178.343 201.046C179.015 201.046 179.627 200.884 180.179 200.56C180.743 200.236 181.187 199.774 181.511 199.174C181.835 198.574 181.997 197.878 181.997 197.086ZM195.025 196.582C195.025 197.014 195.013 197.344 194.989 197.572H186.835C186.871 198.316 187.051 198.952 187.375 199.48C187.699 200.008 188.125 200.41 188.653 200.686C189.181 200.95 189.757 201.082 190.381 201.082C191.197 201.082 191.881 200.884 192.433 200.488C192.997 200.092 193.369 199.558 193.549 198.886H194.881C194.641 199.846 194.125 200.632 193.333 201.244C192.553 201.844 191.569 202.144 190.381 202.144C189.457 202.144 188.629 201.94 187.897 201.532C187.165 201.112 186.589 200.524 186.169 199.768C185.761 199 185.557 198.106 185.557 197.086C185.557 196.066 185.761 195.172 186.169 194.404C186.577 193.636 187.147 193.048 187.879 192.64C188.611 192.232 189.445 192.028 190.381 192.028C191.317 192.028 192.133 192.232 192.829 192.64C193.537 193.048 194.077 193.6 194.449 194.296C194.833 194.98 195.025 195.742 195.025 196.582ZM193.747 196.546C193.759 195.814 193.609 195.19 193.297 194.674C192.997 194.158 192.583 193.768 192.055 193.504C191.527 193.24 190.951 193.108 190.327 193.108C189.391 193.108 188.593 193.408 187.933 194.008C187.273 194.608 186.907 195.454 186.835 196.546H193.747ZM198.591 188.68V202H197.331V188.68H198.591ZM208.021 193.234V199.336C208.021 199.936 208.135 200.35 208.363 200.578C208.591 200.806 208.993 200.92 209.569 200.92H210.721V202H209.371C208.483 202 207.823 201.796 207.391 201.388C206.959 200.968 206.743 200.284 206.743 199.336V193.234H205.375V192.172H206.743V189.706H208.021V192.172H210.721V193.234H208.021ZM221.313 192.172V202H220.053V200.272C219.765 200.884 219.321 201.352 218.721 201.676C218.121 202 217.449 202.162 216.705 202.162C215.529 202.162 214.569 201.802 213.825 201.082C213.081 200.35 212.709 199.294 212.709 197.914V192.172H213.951V197.77C213.951 198.838 214.215 199.654 214.743 200.218C215.283 200.782 216.015 201.064 216.939 201.064C217.887 201.064 218.643 200.764 219.207 200.164C219.771 199.564 220.053 198.682 220.053 197.518V192.172H221.313ZM228.492 202.144C227.568 202.144 226.734 201.94 225.99 201.532C225.258 201.112 224.676 200.524 224.244 199.768C223.824 199 223.614 198.106 223.614 197.086C223.614 196.066 223.83 195.178 224.262 194.422C224.694 193.654 225.282 193.066 226.026 192.658C226.77 192.238 227.604 192.028 228.528 192.028C229.452 192.028 230.286 192.238 231.03 192.658C231.786 193.066 232.374 193.654 232.794 194.422C233.226 195.178 233.442 196.066 233.442 197.086C233.442 198.094 233.226 198.982 232.794 199.75C232.362 200.518 231.768 201.112 231.012 201.532C230.256 201.94 229.416 202.144 228.492 202.144ZM228.492 201.046C229.14 201.046 229.74 200.902 230.292 200.614C230.844 200.314 231.288 199.87 231.624 199.282C231.972 198.682 232.146 197.95 232.146 197.086C232.146 196.222 231.978 195.496 231.642 194.908C231.306 194.308 230.862 193.864 230.31 193.576C229.758 193.276 229.158 193.126 228.51 193.126C227.862 193.126 227.262 193.276 226.71 193.576C226.158 193.864 225.714 194.308 225.378 194.908C225.054 195.496 224.892 196.222 224.892 197.086C224.892 197.95 225.054 198.682 225.378 199.282C225.714 199.87 226.152 200.314 226.692 200.614C227.244 200.902 227.844 201.046 228.492 201.046ZM240.102 197.086C240.102 196.066 240.306 195.178 240.714 194.422C241.122 193.654 241.686 193.066 242.406 192.658C243.126 192.238 243.948 192.028 244.872 192.028C246.084 192.028 247.08 192.328 247.86 192.928C248.652 193.528 249.162 194.344 249.39 195.376H248.04C247.872 194.668 247.506 194.116 246.942 193.72C246.39 193.312 245.7 193.108 244.872 193.108C244.212 193.108 243.618 193.258 243.09 193.558C242.562 193.858 242.142 194.308 241.83 194.908C241.53 195.496 241.38 196.222 241.38 197.086C241.38 197.95 241.53 198.682 241.83 199.282C242.142 199.882 242.562 200.332 243.09 200.632C243.618 200.932 244.212 201.082 244.872 201.082C245.7 201.082 246.39 200.884 246.942 200.488C247.506 200.08 247.872 199.516 248.04 198.796H249.39C249.162 199.804 248.652 200.614 247.86 201.226C247.068 201.838 246.072 202.144 244.872 202.144C243.948 202.144 243.126 201.94 242.406 201.532C241.686 201.112 241.122 200.524 240.714 199.768C240.306 199 240.102 198.106 240.102 197.086ZM256.019 202.144C255.095 202.144 254.261 201.94 253.517 201.532C252.785 201.112 252.203 200.524 251.771 199.768C251.351 199 251.141 198.106 251.141 197.086C251.141 196.066 251.357 195.178 251.789 194.422C252.221 193.654 252.809 193.066 253.553 192.658C254.297 192.238 255.131 192.028 256.055 192.028C256.979 192.028 257.813 192.238 258.557 192.658C259.313 193.066 259.901 193.654 260.321 194.422C260.753 195.178 260.969 196.066 260.969 197.086C260.969 198.094 260.753 198.982 260.321 199.75C259.889 200.518 259.295 201.112 258.539 201.532C257.783 201.94 256.943 202.144 256.019 202.144ZM256.019 201.046C256.667 201.046 257.267 200.902 257.819 200.614C258.371 200.314 258.815 199.87 259.151 199.282C259.499 198.682 259.673 197.95 259.673 197.086C259.673 196.222 259.505 195.496 259.169 194.908C258.833 194.308 258.389 193.864 257.837 193.576C257.285 193.276 256.685 193.126 256.037 193.126C255.389 193.126 254.789 193.276 254.237 193.576C253.685 193.864 253.241 194.308 252.905 194.908C252.581 195.496 252.419 196.222 252.419 197.086C252.419 197.95 252.581 198.682 252.905 199.282C253.241 199.87 253.679 200.314 254.219 200.614C254.771 200.902 255.371 201.046 256.019 201.046ZM267.874 191.992C269.05 191.992 270.01 192.358 270.754 193.09C271.498 193.81 271.87 194.86 271.87 196.24V202H270.628V196.384C270.628 195.316 270.358 194.5 269.818 193.936C269.29 193.372 268.564 193.09 267.64 193.09C266.692 193.09 265.936 193.39 265.372 193.99C264.808 194.59 264.526 195.472 264.526 196.636V202H263.266V192.172H264.526V193.846C264.838 193.246 265.288 192.79 265.876 192.478C266.464 192.154 267.13 191.992 267.874 191.992ZM274.081 197.068C274.081 196.06 274.285 195.178 274.693 194.422C275.101 193.654 275.659 193.066 276.367 192.658C277.087 192.238 277.897 192.028 278.797 192.028C279.661 192.028 280.441 192.238 281.137 192.658C281.833 193.078 282.343 193.624 282.667 194.296V188.68H283.927V202H282.667V199.804C282.367 200.488 281.875 201.052 281.191 201.496C280.507 201.928 279.703 202.144 278.779 202.144C277.879 202.144 277.069 201.934 276.349 201.514C275.641 201.094 275.083 200.5 274.675 199.732C274.279 198.964 274.081 198.076 274.081 197.068ZM282.667 197.086C282.667 196.294 282.505 195.598 282.181 194.998C281.857 194.398 281.413 193.936 280.849 193.612C280.297 193.288 279.685 193.126 279.013 193.126C278.317 193.126 277.693 193.282 277.141 193.594C276.589 193.906 276.151 194.362 275.827 194.962C275.515 195.55 275.359 196.252 275.359 197.068C275.359 197.872 275.515 198.58 275.827 199.192C276.151 199.792 276.589 200.254 277.141 200.578C277.693 200.89 278.317 201.046 279.013 201.046C279.685 201.046 280.297 200.884 280.849 200.56C281.413 200.236 281.857 199.774 282.181 199.174C282.505 198.574 282.667 197.878 282.667 197.086ZM291.105 202.144C290.181 202.144 289.347 201.94 288.603 201.532C287.871 201.112 287.289 200.524 286.857 199.768C286.437 199 286.227 198.106 286.227 197.086C286.227 196.066 286.443 195.178 286.875 194.422C287.307 193.654 287.895 193.066 288.639 192.658C289.383 192.238 290.217 192.028 291.141 192.028C292.065 192.028 292.899 192.238 293.643 192.658C294.399 193.066 294.987 193.654 295.407 194.422C295.839 195.178 296.055 196.066 296.055 197.086C296.055 198.094 295.839 198.982 295.407 199.75C294.975 200.518 294.381 201.112 293.625 201.532C292.869 201.94 292.029 202.144 291.105 202.144ZM291.105 201.046C291.753 201.046 292.353 200.902 292.905 200.614C293.457 200.314 293.901 199.87 294.237 199.282C294.585 198.682 294.759 197.95 294.759 197.086C294.759 196.222 294.591 195.496 294.255 194.908C293.919 194.308 293.475 193.864 292.923 193.576C292.371 193.276 291.771 193.126 291.123 193.126C290.475 193.126 289.875 193.276 289.323 193.576C288.771 193.864 288.327 194.308 287.991 194.908C287.667 195.496 287.505 196.222 287.505 197.086C287.505 197.95 287.667 198.682 287.991 199.282C288.327 199.87 288.765 200.314 289.305 200.614C289.857 200.902 290.457 201.046 291.105 201.046ZM310.052 191.992C311.204 191.992 312.14 192.358 312.86 193.09C313.592 193.81 313.958 194.86 313.958 196.24V202H312.716V196.384C312.716 195.316 312.458 194.5 311.942 193.936C311.426 193.372 310.724 193.09 309.836 193.09C308.912 193.09 308.174 193.396 307.622 194.008C307.07 194.62 306.794 195.508 306.794 196.672V202H305.552V196.384C305.552 195.316 305.294 194.5 304.778 193.936C304.262 193.372 303.554 193.09 302.654 193.09C301.73 193.09 300.992 193.396 300.44 194.008C299.888 194.62 299.612 195.508 299.612 196.672V202H298.352V192.172H299.612V193.864C299.924 193.252 300.368 192.79 300.944 192.478C301.52 192.154 302.162 191.992 302.87 191.992C303.722 191.992 304.466 192.196 305.102 192.604C305.75 193.012 306.218 193.612 306.506 194.404C306.77 193.624 307.22 193.03 307.856 192.622C308.504 192.202 309.236 191.992 310.052 191.992ZM317.386 190.318C317.134 190.318 316.918 190.228 316.738 190.048C316.558 189.868 316.468 189.646 316.468 189.382C316.468 189.118 316.558 188.902 316.738 188.734C316.918 188.554 317.134 188.464 317.386 188.464C317.638 188.464 317.854 188.554 318.034 188.734C318.214 188.902 318.304 189.118 318.304 189.382C318.304 189.646 318.214 189.868 318.034 190.048C317.854 190.228 317.638 190.318 317.386 190.318ZM318.016 192.172V202H316.756V192.172H318.016ZM325.478 191.992C326.654 191.992 327.614 192.358 328.358 193.09C329.102 193.81 329.474 194.86 329.474 196.24V202H328.232V196.384C328.232 195.316 327.962 194.5 327.422 193.936C326.894 193.372 326.168 193.09 325.244 193.09C324.296 193.09 323.54 193.39 322.976 193.99C322.412 194.59 322.13 195.472 322.13 196.636V202H320.87V192.172H322.13V193.846C322.442 193.246 322.892 192.79 323.48 192.478C324.068 192.154 324.734 191.992 325.478 191.992ZM332.89 190.318C332.638 190.318 332.422 190.228 332.242 190.048C332.062 189.868 331.972 189.646 331.972 189.382C331.972 189.118 332.062 188.902 332.242 188.734C332.422 188.554 332.638 188.464 332.89 188.464C333.142 188.464 333.358 188.554 333.538 188.734C333.718 188.902 333.808 189.118 333.808 189.382C333.808 189.646 333.718 189.868 333.538 190.048C333.358 190.228 333.142 190.318 332.89 190.318ZM333.52 192.172V202H332.26V192.172H333.52ZM340.676 202.144C339.752 202.144 338.918 201.94 338.174 201.532C337.442 201.112 336.86 200.524 336.428 199.768C336.008 199 335.798 198.106 335.798 197.086C335.798 196.066 336.014 195.178 336.446 194.422C336.878 193.654 337.466 193.066 338.21 192.658C338.954 192.238 339.788 192.028 340.712 192.028C341.636 192.028 342.47 192.238 343.214 192.658C343.97 193.066 344.558 193.654 344.978 194.422C345.41 195.178 345.626 196.066 345.626 197.086C345.626 198.094 345.41 198.982 344.978 199.75C344.546 200.518 343.952 201.112 343.196 201.532C342.44 201.94 341.6 202.144 340.676 202.144ZM340.676 201.046C341.324 201.046 341.924 200.902 342.476 200.614C343.028 200.314 343.472 199.87 343.808 199.282C344.156 198.682 344.33 197.95 344.33 197.086C344.33 196.222 344.162 195.496 343.826 194.908C343.49 194.308 343.046 193.864 342.494 193.576C341.942 193.276 341.342 193.126 340.694 193.126C340.046 193.126 339.446 193.276 338.894 193.576C338.342 193.864 337.898 194.308 337.562 194.908C337.238 195.496 337.076 196.222 337.076 197.086C337.076 197.95 337.238 198.682 337.562 199.282C337.898 199.87 338.336 200.314 338.876 200.614C339.428 200.902 340.028 201.046 340.676 201.046Z" fill="#D8D8D8"/>
<defs>
<linearGradient id="paint0_linear_2221_203" x1="174.056" y1="26.6759" x2="174.056" y2="90.1936" gradientUnits="userSpaceOnUse">
<stop stop-color="#67FF6C"/>
<stop offset="0.43" stop-color="white"/>
</linearGradient>
<linearGradient id="paint1_linear_2221_203" x1="190" y1="67" x2="176" y2="79" gradientUnits="userSpaceOnUse">
<stop stop-color="#FFFA6A"/>
<stop offset="1" stop-color="white"/>
</linearGradient>
<linearGradient id="paint2_linear_2221_203" x1="188.5" y1="44.5" x2="175.5" y2="59" gradientUnits="userSpaceOnUse">
<stop stop-color="#FF7474"/>
<stop offset="1" stop-color="white"/>
</linearGradient>
<linearGradient id="paint3_linear_2221_203" x1="157.5" y1="50.5" x2="172" y2="68" gradientUnits="userSpaceOnUse">
<stop stop-color="#7BF6FF"/>
<stop offset="1" stop-color="white"/>
</linearGradient>
</defs>
</svg>
