<svg width="358" height="221" viewBox="0 0 358 221" fill="none" xmlns="http://www.w3.org/2000/svg">
<path fill-rule="evenodd" clip-rule="evenodd" d="M129.168 90.2689V47.417H127.391C124.695 47.417 122.289 45.7128 121.377 43.1633C120.465 40.6104 121.244 37.7563 123.324 36.0316L165.017 1.46809C167.383 -0.492787 170.8 -0.489355 173.162 1.47837L214.686 36.0419C216.758 37.7666 217.534 40.6172 216.622 43.1667C215.707 45.7162 213.304 47.417 210.608 47.417H209.002V90.2689C209.002 93.8176 206.139 96.6957 202.61 96.6957H135.56C132.03 96.6957 129.168 93.8176 129.168 90.2689ZM135.56 90.2689H202.61V40.9902H210.608L169.085 6.42675L127.391 40.9902H135.56V90.2689Z" fill="#F1FFE7"/>
<path fill-rule="evenodd" clip-rule="evenodd" d="M169 25.0435C169.769 25.0435 170.391 25.7743 170.391 26.6759V90.1936C170.391 91.0952 169.769 91.8261 169 91.8261C168.232 91.8261 167.609 91.0952 167.609 90.1936V26.6759C167.609 25.7743 168.232 25.0435 169 25.0435Z" fill="url(#paint0_linear_2221_203)"/>
<path fill-rule="evenodd" clip-rule="evenodd" d="M178.771 67.3467C179.093 66.9881 179.556 66.7827 180.042 66.7827H188.175C189.111 66.7827 189.87 67.5286 189.87 68.4488C189.87 69.3689 189.111 70.1149 188.175 70.1149H180.807L170.574 81.523C169.955 82.2131 168.884 82.2791 168.182 81.6705C167.481 81.0618 167.414 80.009 168.033 79.3189L178.771 67.3467Z" fill="url(#paint1_linear_2221_203)"/>
<path fill-rule="evenodd" clip-rule="evenodd" d="M185.844 42.1435C186.514 42.7345 186.578 43.7569 185.987 44.4271L170.44 62.0607C169.849 62.7309 168.827 62.7951 168.157 62.2041C167.487 61.6131 167.422 60.5907 168.013 59.9205L183.561 42.2869C184.151 41.6167 185.174 41.5525 185.844 42.1435Z" fill="url(#paint2_linear_2221_203)"/>
<path fill-rule="evenodd" clip-rule="evenodd" d="M150.764 49.1087C150.095 49.7123 150.031 50.7565 150.621 51.441L167.564 71.0926C168.154 71.777 169.175 71.8426 169.844 71.239C170.513 70.6354 170.577 69.5911 169.987 68.9066L153.044 49.2551C152.454 48.5706 151.433 48.505 150.764 49.1087Z" fill="url(#paint3_linear_2221_203)"/>
<path fill-rule="evenodd" clip-rule="evenodd" d="M149.174 43.1304C151.67 43.1304 153.696 45.1575 153.696 47.6521C153.696 50.1467 151.67 52.1738 149.174 52.1738C146.679 52.1738 144.652 50.1467 144.652 47.6521C144.652 45.1575 146.679 43.1304 149.174 43.1304ZM149.174 45.9823C148.252 45.9823 147.504 46.7304 147.504 47.6521C147.504 48.5738 148.252 49.3219 149.174 49.3219C150.096 49.3219 150.844 48.5738 150.844 47.6521C150.844 46.7304 150.096 45.9823 149.174 45.9823Z" fill="#7BF6FF"/>
<path fill-rule="evenodd" clip-rule="evenodd" d="M169 18.0869C171.687 18.0869 173.87 20.27 173.87 22.9565C173.87 25.643 171.687 27.826 169 27.826C166.312 27.826 164.13 25.643 164.13 22.9565C164.13 20.27 166.312 18.0869 169 18.0869ZM169 21.1583C168.007 21.1583 167.201 21.9639 167.201 22.9565C167.201 23.9491 168.007 24.7547 169 24.7547C169.993 24.7547 170.799 23.9491 170.799 22.9565C170.799 21.9639 169.993 21.1583 169 21.1583Z" fill="#67FF6C"/>
<path fill-rule="evenodd" clip-rule="evenodd" d="M187.087 36.1738C189.774 36.1738 191.956 38.2009 191.956 40.6956C191.956 43.1902 189.774 45.2173 187.087 45.2173C184.399 45.2173 182.217 43.1902 182.217 40.6956C182.217 38.2009 184.399 36.1738 187.087 36.1738ZM187.087 39.0258C186.094 39.0258 185.288 39.7739 185.288 40.6956C185.288 41.6173 186.094 42.3653 187.087 42.3653C188.08 42.3653 188.886 41.6173 188.886 40.6956C188.886 39.7739 188.08 39.0258 187.087 39.0258Z" fill="#FF7474"/>
<path fill-rule="evenodd" clip-rule="evenodd" d="M191.522 64C194.017 64 196.043 66.183 196.043 68.8696C196.043 71.5561 194.017 73.7391 191.522 73.7391C189.026 73.7391 187 71.5561 187 68.8696C187 66.183 189.026 64 191.522 64ZM191.522 67.0714C190.6 67.0714 189.851 67.877 189.851 68.8696C189.851 69.8622 190.6 70.6678 191.522 70.6678C192.444 70.6678 193.192 69.8622 193.192 68.8696C193.192 67.877 192.444 67.0714 191.522 67.0714Z" fill="#FFFA6A"/>
<path d="M81.45 169L73.75 155.4H70.45V169H63.45V134.1H76.55C79.25 134.1 81.55 134.583 83.45 135.55C85.35 136.483 86.7667 137.767 87.7 139.4C88.6667 141 89.15 142.8 89.15 144.8C89.15 147.1 88.4833 149.183 87.15 151.05C85.8167 152.883 83.8333 154.15 81.2 154.85L89.55 169H81.45ZM70.45 150.15H76.3C78.2 150.15 79.6167 149.7 80.55 148.8C81.4833 147.867 81.95 146.583 81.95 144.95C81.95 143.35 81.4833 142.117 80.55 141.25C79.6167 140.35 78.2 139.9 76.3 139.9H70.45V150.15ZM121.231 154.55C121.231 155.55 121.165 156.45 121.031 157.25H100.781C100.948 159.25 101.648 160.817 102.881 161.95C104.115 163.083 105.631 163.65 107.431 163.65C110.031 163.65 111.881 162.533 112.981 160.3H120.531C119.731 162.967 118.198 165.167 115.931 166.9C113.665 168.6 110.881 169.45 107.581 169.45C104.915 169.45 102.515 168.867 100.381 167.7C98.2813 166.5 96.6313 164.817 95.4313 162.65C94.2646 160.483 93.6812 157.983 93.6812 155.15C93.6812 152.283 94.2646 149.767 95.4313 147.6C96.5979 145.433 98.2313 143.767 100.331 142.6C102.431 141.433 104.848 140.85 107.581 140.85C110.215 140.85 112.565 141.417 114.631 142.55C116.731 143.683 118.348 145.3 119.481 147.4C120.648 149.467 121.231 151.85 121.231 154.55ZM113.981 152.55C113.948 150.75 113.298 149.317 112.031 148.25C110.765 147.15 109.215 146.6 107.381 146.6C105.648 146.6 104.181 147.133 102.981 148.2C101.815 149.233 101.098 150.683 100.831 152.55H113.981ZM136.941 169.45C134.674 169.45 132.641 169.05 130.841 168.25C129.041 167.417 127.607 166.3 126.541 164.9C125.507 163.5 124.941 161.95 124.841 160.25H131.891C132.024 161.317 132.541 162.2 133.441 162.9C134.374 163.6 135.524 163.95 136.891 163.95C138.224 163.95 139.257 163.683 139.991 163.15C140.757 162.617 141.141 161.933 141.141 161.1C141.141 160.2 140.674 159.533 139.741 159.1C138.841 158.633 137.391 158.133 135.391 157.6C133.324 157.1 131.624 156.583 130.291 156.05C128.991 155.517 127.857 154.7 126.891 153.6C125.957 152.5 125.491 151.017 125.491 149.15C125.491 147.617 125.924 146.217 126.791 144.95C127.691 143.683 128.957 142.683 130.591 141.95C132.257 141.217 134.207 140.85 136.441 140.85C139.741 140.85 142.374 141.683 144.341 143.35C146.307 144.983 147.391 147.2 147.591 150H140.891C140.791 148.9 140.324 148.033 139.491 147.4C138.691 146.733 137.607 146.4 136.241 146.4C134.974 146.4 133.991 146.633 133.291 147.1C132.624 147.567 132.291 148.217 132.291 149.05C132.291 149.983 132.757 150.7 133.691 151.2C134.624 151.667 136.074 152.15 138.041 152.65C140.041 153.15 141.691 153.667 142.991 154.2C144.291 154.733 145.407 155.567 146.341 156.7C147.307 157.8 147.807 159.267 147.841 161.1C147.841 162.7 147.391 164.133 146.491 165.4C145.624 166.667 144.357 167.667 142.691 168.4C141.057 169.1 139.141 169.45 136.941 169.45ZM157.137 138C155.903 138 154.87 137.617 154.037 136.85C153.237 136.05 152.837 135.067 152.837 133.9C152.837 132.733 153.237 131.767 154.037 131C154.87 130.2 155.903 129.8 157.137 129.8C158.37 129.8 159.387 130.2 160.187 131C161.02 131.767 161.437 132.733 161.437 133.9C161.437 135.067 161.02 136.05 160.187 136.85C159.387 137.617 158.37 138 157.137 138ZM160.587 141.3V169H153.587V141.3H160.587ZM196.453 134.1V169H189.453V154.15H174.503V169H167.503V134.1H174.503V148.45H189.453V134.1H196.453ZM229.493 141.3V169H222.443V165.5C221.543 166.7 220.359 167.65 218.893 168.35C217.459 169.017 215.893 169.35 214.193 169.35C212.026 169.35 210.109 168.9 208.443 168C206.776 167.067 205.459 165.717 204.493 163.95C203.559 162.15 203.093 160.017 203.093 157.55V141.3H210.093V156.55C210.093 158.75 210.643 160.45 211.743 161.65C212.843 162.817 214.343 163.4 216.243 163.4C218.176 163.4 219.693 162.817 220.793 161.65C221.893 160.45 222.443 158.75 222.443 156.55V141.3H229.493ZM243.399 145.35C244.299 144.017 245.533 142.933 247.099 142.1C248.699 141.267 250.516 140.85 252.549 140.85C254.916 140.85 257.049 141.433 258.949 142.6C260.883 143.767 262.399 145.433 263.499 147.6C264.633 149.733 265.199 152.217 265.199 155.05C265.199 157.883 264.633 160.4 263.499 162.6C262.399 164.767 260.883 166.45 258.949 167.65C257.049 168.85 254.916 169.45 252.549 169.45C250.483 169.45 248.666 169.05 247.099 168.25C245.566 167.417 244.333 166.35 243.399 165.05V169H236.399V132H243.399V145.35ZM258.049 155.05C258.049 153.383 257.699 151.95 256.999 150.75C256.333 149.517 255.433 148.583 254.299 147.95C253.199 147.317 251.999 147 250.699 147C249.433 147 248.233 147.333 247.099 148C245.999 148.633 245.099 149.567 244.399 150.8C243.733 152.033 243.399 153.483 243.399 155.15C243.399 156.817 243.733 158.267 244.399 159.5C245.099 160.733 245.999 161.683 247.099 162.35C248.233 162.983 249.433 163.3 250.699 163.3C251.999 163.3 253.199 162.967 254.299 162.3C255.433 161.633 256.333 160.683 256.999 159.45C257.699 158.217 258.049 156.75 258.049 155.05Z" fill="#F1FFE7"/>
<path d="M2.7 191.418V204H1.44V191.418H2.7ZM6.81328 190.68V204H5.55328V190.68H6.81328ZM14.03 199.086C14.03 198.066 14.234 197.178 14.642 196.422C15.05 195.654 15.614 195.066 16.334 194.658C17.054 194.238 17.876 194.028 18.8 194.028C20.012 194.028 21.008 194.328 21.788 194.928C22.58 195.528 23.09 196.344 23.318 197.376H21.968C21.8 196.668 21.434 196.116 20.87 195.72C20.318 195.312 19.628 195.108 18.8 195.108C18.14 195.108 17.546 195.258 17.018 195.558C16.49 195.858 16.07 196.308 15.758 196.908C15.458 197.496 15.308 198.222 15.308 199.086C15.308 199.95 15.458 200.682 15.758 201.282C16.07 201.882 16.49 202.332 17.018 202.632C17.546 202.932 18.14 203.082 18.8 203.082C19.628 203.082 20.318 202.884 20.87 202.488C21.434 202.08 21.8 201.516 21.968 200.796H23.318C23.09 201.804 22.58 202.614 21.788 203.226C20.996 203.838 20 204.144 18.8 204.144C17.876 204.144 17.054 203.94 16.334 203.532C15.614 203.112 15.05 202.524 14.642 201.768C14.234 201 14.03 200.106 14.03 199.086ZM34.1591 194.172V204H32.8991V202.272C32.6111 202.884 32.1671 203.352 31.5671 203.676C30.9671 204 30.2951 204.162 29.5511 204.162C28.3751 204.162 27.4151 203.802 26.6711 203.082C25.9271 202.35 25.5551 201.294 25.5551 199.914V194.172H26.7971V199.77C26.7971 200.838 27.0611 201.654 27.5891 202.218C28.1291 202.782 28.8611 203.064 29.7851 203.064C30.7331 203.064 31.4891 202.764 32.0531 202.164C32.6171 201.564 32.8991 200.682 32.8991 199.518V194.172H34.1591ZM41.3377 204.144C40.4137 204.144 39.5797 203.94 38.8357 203.532C38.1037 203.112 37.5217 202.524 37.0897 201.768C36.6697 201 36.4597 200.106 36.4597 199.086C36.4597 198.066 36.6757 197.178 37.1077 196.422C37.5397 195.654 38.1277 195.066 38.8717 194.658C39.6157 194.238 40.4497 194.028 41.3737 194.028C42.2977 194.028 43.1317 194.238 43.8757 194.658C44.6317 195.066 45.2197 195.654 45.6397 196.422C46.0717 197.178 46.2877 198.066 46.2877 199.086C46.2877 200.094 46.0717 200.982 45.6397 201.75C45.2077 202.518 44.6137 203.112 43.8577 203.532C43.1017 203.94 42.2617 204.144 41.3377 204.144ZM41.3377 203.046C41.9857 203.046 42.5857 202.902 43.1377 202.614C43.6897 202.314 44.1337 201.87 44.4697 201.282C44.8177 200.682 44.9917 199.95 44.9917 199.086C44.9917 198.222 44.8237 197.496 44.4877 196.908C44.1517 196.308 43.7077 195.864 43.1557 195.576C42.6037 195.276 42.0037 195.126 41.3557 195.126C40.7077 195.126 40.1077 195.276 39.5557 195.576C39.0037 195.864 38.5597 196.308 38.2237 196.908C37.8997 197.496 37.7377 198.222 37.7377 199.086C37.7377 199.95 37.8997 200.682 38.2237 201.282C38.5597 201.87 38.9977 202.314 39.5377 202.614C40.0897 202.902 40.6897 203.046 41.3377 203.046ZM49.8445 195.918C50.1205 195.306 50.5405 194.832 51.1045 194.496C51.6805 194.16 52.3825 193.992 53.2105 193.992V195.306H52.8685C51.9565 195.306 51.2245 195.552 50.6725 196.044C50.1205 196.536 49.8445 197.358 49.8445 198.51V204H48.5845V194.172H49.8445V195.918ZM63.998 198.582C63.998 199.014 63.986 199.344 63.962 199.572H55.808C55.844 200.316 56.024 200.952 56.348 201.48C56.672 202.008 57.098 202.41 57.626 202.686C58.154 202.95 58.73 203.082 59.354 203.082C60.17 203.082 60.854 202.884 61.406 202.488C61.97 202.092 62.342 201.558 62.522 200.886H63.854C63.614 201.846 63.098 202.632 62.306 203.244C61.526 203.844 60.542 204.144 59.354 204.144C58.43 204.144 57.602 203.94 56.87 203.532C56.138 203.112 55.562 202.524 55.142 201.768C54.734 201 54.53 200.106 54.53 199.086C54.53 198.066 54.734 197.172 55.142 196.404C55.55 195.636 56.12 195.048 56.852 194.64C57.584 194.232 58.418 194.028 59.354 194.028C60.29 194.028 61.106 194.232 61.802 194.64C62.51 195.048 63.05 195.6 63.422 196.296C63.806 196.98 63.998 197.742 63.998 198.582ZM62.72 198.546C62.732 197.814 62.582 197.19 62.27 196.674C61.97 196.158 61.556 195.768 61.028 195.504C60.5 195.24 59.924 195.108 59.3 195.108C58.364 195.108 57.566 195.408 56.906 196.008C56.246 196.608 55.88 197.454 55.808 198.546H62.72ZM71.8727 192.318C71.6207 192.318 71.4047 192.228 71.2247 192.048C71.0447 191.868 70.9547 191.646 70.9547 191.382C70.9547 191.118 71.0447 190.902 71.2247 190.734C71.4047 190.554 71.6207 190.464 71.8727 190.464C72.1247 190.464 72.3407 190.554 72.5207 190.734C72.7007 190.902 72.7907 191.118 72.7907 191.382C72.7907 191.646 72.7007 191.868 72.5207 192.048C72.3407 192.228 72.1247 192.318 71.8727 192.318ZM72.5027 194.172V204H71.2427V194.172H72.5027ZM79.964 193.992C81.14 193.992 82.1 194.358 82.844 195.09C83.588 195.81 83.96 196.86 83.96 198.24V204H82.718V198.384C82.718 197.316 82.448 196.5 81.908 195.936C81.38 195.372 80.654 195.09 79.73 195.09C78.782 195.09 78.026 195.39 77.462 195.99C76.898 196.59 76.616 197.472 76.616 198.636V204H75.356V194.172H76.616V195.846C76.928 195.246 77.378 194.79 77.966 194.478C78.554 194.154 79.22 193.992 79.964 193.992ZM88.3846 195.234V201.336C88.3846 201.936 88.4986 202.35 88.7266 202.578C88.9546 202.806 89.3566 202.92 89.9326 202.92H91.0846V204H89.7346C88.8466 204 88.1866 203.796 87.7546 203.388C87.3226 202.968 87.1066 202.284 87.1066 201.336V195.234H85.7386V194.172H87.1066V191.706H88.3846V194.172H91.0846V195.234H88.3846ZM102.055 198.582C102.055 199.014 102.043 199.344 102.019 199.572H93.8647C93.9007 200.316 94.0807 200.952 94.4047 201.48C94.7287 202.008 95.1547 202.41 95.6827 202.686C96.2107 202.95 96.7867 203.082 97.4107 203.082C98.2267 203.082 98.9107 202.884 99.4627 202.488C100.027 202.092 100.399 201.558 100.579 200.886H101.911C101.671 201.846 101.155 202.632 100.363 203.244C99.5827 203.844 98.5987 204.144 97.4107 204.144C96.4867 204.144 95.6587 203.94 94.9267 203.532C94.1947 203.112 93.6187 202.524 93.1987 201.768C92.7907 201 92.5867 200.106 92.5867 199.086C92.5867 198.066 92.7907 197.172 93.1987 196.404C93.6067 195.636 94.1767 195.048 94.9087 194.64C95.6407 194.232 96.4747 194.028 97.4107 194.028C98.3467 194.028 99.1627 194.232 99.8587 194.64C100.567 195.048 101.107 195.6 101.479 196.296C101.863 196.98 102.055 197.742 102.055 198.582ZM100.777 198.546C100.789 197.814 100.639 197.19 100.327 196.674C100.027 196.158 99.6127 195.768 99.0847 195.504C98.5567 195.24 97.9807 195.108 97.3567 195.108C96.4207 195.108 95.6227 195.408 94.9627 196.008C94.3027 196.608 93.9367 197.454 93.8647 198.546H100.777ZM105.62 190.68V204H104.36V190.68H105.62ZM109.733 190.68V204H108.473V190.68H109.733ZM113.216 192.318C112.964 192.318 112.748 192.228 112.568 192.048C112.388 191.868 112.298 191.646 112.298 191.382C112.298 191.118 112.388 190.902 112.568 190.734C112.748 190.554 112.964 190.464 113.216 190.464C113.468 190.464 113.684 190.554 113.864 190.734C114.044 190.902 114.134 191.118 114.134 191.382C114.134 191.646 114.044 191.868 113.864 192.048C113.684 192.228 113.468 192.318 113.216 192.318ZM113.846 194.172V204H112.586V194.172H113.846ZM120.822 194.028C121.746 194.028 122.55 194.244 123.234 194.676C123.918 195.108 124.41 195.654 124.71 196.314V194.172H125.97V204.252C125.97 205.152 125.772 205.95 125.376 206.646C124.992 207.342 124.452 207.876 123.756 208.248C123.06 208.632 122.268 208.824 121.38 208.824C120.12 208.824 119.07 208.524 118.23 207.924C117.402 207.324 116.886 206.508 116.682 205.476H117.924C118.14 206.16 118.548 206.706 119.148 207.114C119.76 207.522 120.504 207.726 121.38 207.726C122.016 207.726 122.586 207.588 123.09 207.312C123.594 207.048 123.99 206.652 124.278 206.124C124.566 205.596 124.71 204.972 124.71 204.252V201.822C124.398 202.494 123.9 203.052 123.216 203.496C122.544 203.928 121.746 204.144 120.822 204.144C119.922 204.144 119.112 203.934 118.392 203.514C117.684 203.094 117.126 202.5 116.718 201.732C116.322 200.964 116.124 200.076 116.124 199.068C116.124 198.06 116.322 197.178 116.718 196.422C117.126 195.654 117.684 195.066 118.392 194.658C119.112 194.238 119.922 194.028 120.822 194.028ZM124.71 199.086C124.71 198.294 124.548 197.598 124.224 196.998C123.9 196.398 123.456 195.936 122.892 195.612C122.34 195.288 121.728 195.126 121.056 195.126C120.36 195.126 119.736 195.282 119.184 195.594C118.632 195.906 118.194 196.362 117.87 196.962C117.558 197.55 117.402 198.252 117.402 199.068C117.402 199.872 117.558 200.58 117.87 201.192C118.194 201.792 118.632 202.254 119.184 202.578C119.736 202.89 120.36 203.046 121.056 203.046C121.728 203.046 122.34 202.884 122.892 202.56C123.456 202.236 123.9 201.774 124.224 201.174C124.548 200.574 124.71 199.878 124.71 199.086ZM137.738 198.582C137.738 199.014 137.726 199.344 137.702 199.572H129.548C129.584 200.316 129.764 200.952 130.088 201.48C130.412 202.008 130.838 202.41 131.366 202.686C131.894 202.95 132.47 203.082 133.094 203.082C133.91 203.082 134.594 202.884 135.146 202.488C135.71 202.092 136.082 201.558 136.262 200.886H137.594C137.354 201.846 136.838 202.632 136.046 203.244C135.266 203.844 134.282 204.144 133.094 204.144C132.17 204.144 131.342 203.94 130.61 203.532C129.878 203.112 129.302 202.524 128.882 201.768C128.474 201 128.27 200.106 128.27 199.086C128.27 198.066 128.474 197.172 128.882 196.404C129.29 195.636 129.86 195.048 130.592 194.64C131.324 194.232 132.158 194.028 133.094 194.028C134.03 194.028 134.846 194.232 135.542 194.64C136.25 195.048 136.79 195.6 137.162 196.296C137.546 196.98 137.738 197.742 137.738 198.582ZM136.46 198.546C136.472 197.814 136.322 197.19 136.01 196.674C135.71 196.158 135.296 195.768 134.768 195.504C134.24 195.24 133.664 195.108 133.04 195.108C132.104 195.108 131.306 195.408 130.646 196.008C129.986 196.608 129.62 197.454 129.548 198.546H136.46ZM144.652 193.992C145.828 193.992 146.788 194.358 147.532 195.09C148.276 195.81 148.648 196.86 148.648 198.24V204H147.406V198.384C147.406 197.316 147.136 196.5 146.596 195.936C146.068 195.372 145.342 195.09 144.418 195.09C143.47 195.09 142.714 195.39 142.15 195.99C141.586 196.59 141.304 197.472 141.304 198.636V204H140.044V194.172H141.304V195.846C141.616 195.246 142.066 194.79 142.654 194.478C143.242 194.154 143.908 193.992 144.652 193.992ZM153.072 195.234V201.336C153.072 201.936 153.186 202.35 153.414 202.578C153.642 202.806 154.044 202.92 154.62 202.92H155.772V204H154.422C153.534 204 152.874 203.796 152.442 203.388C152.01 202.968 151.794 202.284 151.794 201.336V195.234H150.426V194.172H151.794V191.706H153.072V194.172H155.772V195.234H153.072ZM166.742 198.582C166.742 199.014 166.73 199.344 166.706 199.572H158.552C158.588 200.316 158.768 200.952 159.092 201.48C159.416 202.008 159.842 202.41 160.37 202.686C160.898 202.95 161.474 203.082 162.098 203.082C162.914 203.082 163.598 202.884 164.15 202.488C164.714 202.092 165.086 201.558 165.266 200.886H166.598C166.358 201.846 165.842 202.632 165.05 203.244C164.27 203.844 163.286 204.144 162.098 204.144C161.174 204.144 160.346 203.94 159.614 203.532C158.882 203.112 158.306 202.524 157.886 201.768C157.478 201 157.274 200.106 157.274 199.086C157.274 198.066 157.478 197.172 157.886 196.404C158.294 195.636 158.864 195.048 159.596 194.64C160.328 194.232 161.162 194.028 162.098 194.028C163.034 194.028 163.85 194.232 164.546 194.64C165.254 195.048 165.794 195.6 166.166 196.296C166.55 196.98 166.742 197.742 166.742 198.582ZM165.464 198.546C165.476 197.814 165.326 197.19 165.014 196.674C164.714 196.158 164.3 195.768 163.772 195.504C163.244 195.24 162.668 195.108 162.044 195.108C161.108 195.108 160.31 195.408 159.65 196.008C158.99 196.608 158.624 197.454 158.552 198.546H165.464ZM173.411 199.068C173.411 198.06 173.615 197.178 174.023 196.422C174.431 195.654 174.989 195.066 175.697 194.658C176.417 194.238 177.227 194.028 178.127 194.028C178.991 194.028 179.771 194.238 180.467 194.658C181.163 195.078 181.673 195.624 181.997 196.296V190.68H183.257V204H181.997V201.804C181.697 202.488 181.205 203.052 180.521 203.496C179.837 203.928 179.033 204.144 178.109 204.144C177.209 204.144 176.399 203.934 175.679 203.514C174.971 203.094 174.413 202.5 174.005 201.732C173.609 200.964 173.411 200.076 173.411 199.068ZM181.997 199.086C181.997 198.294 181.835 197.598 181.511 196.998C181.187 196.398 180.743 195.936 180.179 195.612C179.627 195.288 179.015 195.126 178.343 195.126C177.647 195.126 177.023 195.282 176.471 195.594C175.919 195.906 175.481 196.362 175.157 196.962C174.845 197.55 174.689 198.252 174.689 199.068C174.689 199.872 174.845 200.58 175.157 201.192C175.481 201.792 175.919 202.254 176.471 202.578C177.023 202.89 177.647 203.046 178.343 203.046C179.015 203.046 179.627 202.884 180.179 202.56C180.743 202.236 181.187 201.774 181.511 201.174C181.835 200.574 181.997 199.878 181.997 199.086ZM195.025 198.582C195.025 199.014 195.013 199.344 194.989 199.572H186.835C186.871 200.316 187.051 200.952 187.375 201.48C187.699 202.008 188.125 202.41 188.653 202.686C189.181 202.95 189.757 203.082 190.381 203.082C191.197 203.082 191.881 202.884 192.433 202.488C192.997 202.092 193.369 201.558 193.549 200.886H194.881C194.641 201.846 194.125 202.632 193.333 203.244C192.553 203.844 191.569 204.144 190.381 204.144C189.457 204.144 188.629 203.94 187.897 203.532C187.165 203.112 186.589 202.524 186.169 201.768C185.761 201 185.557 200.106 185.557 199.086C185.557 198.066 185.761 197.172 186.169 196.404C186.577 195.636 187.147 195.048 187.879 194.64C188.611 194.232 189.445 194.028 190.381 194.028C191.317 194.028 192.133 194.232 192.829 194.64C193.537 195.048 194.077 195.6 194.449 196.296C194.833 196.98 195.025 197.742 195.025 198.582ZM193.747 198.546C193.759 197.814 193.609 197.19 193.297 196.674C192.997 196.158 192.583 195.768 192.055 195.504C191.527 195.24 190.951 195.108 190.327 195.108C189.391 195.108 188.593 195.408 187.933 196.008C187.273 196.608 186.907 197.454 186.835 198.546H193.747ZM198.591 190.68V204H197.331V190.68H198.591ZM208.021 195.234V201.336C208.021 201.936 208.135 202.35 208.363 202.578C208.591 202.806 208.993 202.92 209.569 202.92H210.721V204H209.371C208.483 204 207.823 203.796 207.391 203.388C206.959 202.968 206.743 202.284 206.743 201.336V195.234H205.375V194.172H206.743V191.706H208.021V194.172H210.721V195.234H208.021ZM221.313 194.172V204H220.053V202.272C219.765 202.884 219.321 203.352 218.721 203.676C218.121 204 217.449 204.162 216.705 204.162C215.529 204.162 214.569 203.802 213.825 203.082C213.081 202.35 212.709 201.294 212.709 199.914V194.172H213.951V199.77C213.951 200.838 214.215 201.654 214.743 202.218C215.283 202.782 216.015 203.064 216.939 203.064C217.887 203.064 218.643 202.764 219.207 202.164C219.771 201.564 220.053 200.682 220.053 199.518V194.172H221.313ZM228.492 204.144C227.568 204.144 226.734 203.94 225.99 203.532C225.258 203.112 224.676 202.524 224.244 201.768C223.824 201 223.614 200.106 223.614 199.086C223.614 198.066 223.83 197.178 224.262 196.422C224.694 195.654 225.282 195.066 226.026 194.658C226.77 194.238 227.604 194.028 228.528 194.028C229.452 194.028 230.286 194.238 231.03 194.658C231.786 195.066 232.374 195.654 232.794 196.422C233.226 197.178 233.442 198.066 233.442 199.086C233.442 200.094 233.226 200.982 232.794 201.75C232.362 202.518 231.768 203.112 231.012 203.532C230.256 203.94 229.416 204.144 228.492 204.144ZM228.492 203.046C229.14 203.046 229.74 202.902 230.292 202.614C230.844 202.314 231.288 201.87 231.624 201.282C231.972 200.682 232.146 199.95 232.146 199.086C232.146 198.222 231.978 197.496 231.642 196.908C231.306 196.308 230.862 195.864 230.31 195.576C229.758 195.276 229.158 195.126 228.51 195.126C227.862 195.126 227.262 195.276 226.71 195.576C226.158 195.864 225.714 196.308 225.378 196.908C225.054 197.496 224.892 198.222 224.892 199.086C224.892 199.95 225.054 200.682 225.378 201.282C225.714 201.87 226.152 202.314 226.692 202.614C227.244 202.902 227.844 203.046 228.492 203.046ZM240.102 199.086C240.102 198.066 240.306 197.178 240.714 196.422C241.122 195.654 241.686 195.066 242.406 194.658C243.126 194.238 243.948 194.028 244.872 194.028C246.084 194.028 247.08 194.328 247.86 194.928C248.652 195.528 249.162 196.344 249.39 197.376H248.04C247.872 196.668 247.506 196.116 246.942 195.72C246.39 195.312 245.7 195.108 244.872 195.108C244.212 195.108 243.618 195.258 243.09 195.558C242.562 195.858 242.142 196.308 241.83 196.908C241.53 197.496 241.38 198.222 241.38 199.086C241.38 199.95 241.53 200.682 241.83 201.282C242.142 201.882 242.562 202.332 243.09 202.632C243.618 202.932 244.212 203.082 244.872 203.082C245.7 203.082 246.39 202.884 246.942 202.488C247.506 202.08 247.872 201.516 248.04 200.796H249.39C249.162 201.804 248.652 202.614 247.86 203.226C247.068 203.838 246.072 204.144 244.872 204.144C243.948 204.144 243.126 203.94 242.406 203.532C241.686 203.112 241.122 202.524 240.714 201.768C240.306 201 240.102 200.106 240.102 199.086ZM256.019 204.144C255.095 204.144 254.261 203.94 253.517 203.532C252.785 203.112 252.203 202.524 251.771 201.768C251.351 201 251.141 200.106 251.141 199.086C251.141 198.066 251.357 197.178 251.789 196.422C252.221 195.654 252.809 195.066 253.553 194.658C254.297 194.238 255.131 194.028 256.055 194.028C256.979 194.028 257.813 194.238 258.557 194.658C259.313 195.066 259.901 195.654 260.321 196.422C260.753 197.178 260.969 198.066 260.969 199.086C260.969 200.094 260.753 200.982 260.321 201.75C259.889 202.518 259.295 203.112 258.539 203.532C257.783 203.94 256.943 204.144 256.019 204.144ZM256.019 203.046C256.667 203.046 257.267 202.902 257.819 202.614C258.371 202.314 258.815 201.87 259.151 201.282C259.499 200.682 259.673 199.95 259.673 199.086C259.673 198.222 259.505 197.496 259.169 196.908C258.833 196.308 258.389 195.864 257.837 195.576C257.285 195.276 256.685 195.126 256.037 195.126C255.389 195.126 254.789 195.276 254.237 195.576C253.685 195.864 253.241 196.308 252.905 196.908C252.581 197.496 252.419 198.222 252.419 199.086C252.419 199.95 252.581 200.682 252.905 201.282C253.241 201.87 253.679 202.314 254.219 202.614C254.771 202.902 255.371 203.046 256.019 203.046ZM267.874 193.992C269.05 193.992 270.01 194.358 270.754 195.09C271.498 195.81 271.87 196.86 271.87 198.24V204H270.628V198.384C270.628 197.316 270.358 196.5 269.818 195.936C269.29 195.372 268.564 195.09 267.64 195.09C266.692 195.09 265.936 195.39 265.372 195.99C264.808 196.59 264.526 197.472 264.526 198.636V204H263.266V194.172H264.526V195.846C264.838 195.246 265.288 194.79 265.876 194.478C266.464 194.154 267.13 193.992 267.874 193.992ZM274.081 199.068C274.081 198.06 274.285 197.178 274.693 196.422C275.101 195.654 275.659 195.066 276.367 194.658C277.087 194.238 277.897 194.028 278.797 194.028C279.661 194.028 280.441 194.238 281.137 194.658C281.833 195.078 282.343 195.624 282.667 196.296V190.68H283.927V204H282.667V201.804C282.367 202.488 281.875 203.052 281.191 203.496C280.507 203.928 279.703 204.144 278.779 204.144C277.879 204.144 277.069 203.934 276.349 203.514C275.641 203.094 275.083 202.5 274.675 201.732C274.279 200.964 274.081 200.076 274.081 199.068ZM282.667 199.086C282.667 198.294 282.505 197.598 282.181 196.998C281.857 196.398 281.413 195.936 280.849 195.612C280.297 195.288 279.685 195.126 279.013 195.126C278.317 195.126 277.693 195.282 277.141 195.594C276.589 195.906 276.151 196.362 275.827 196.962C275.515 197.55 275.359 198.252 275.359 199.068C275.359 199.872 275.515 200.58 275.827 201.192C276.151 201.792 276.589 202.254 277.141 202.578C277.693 202.89 278.317 203.046 279.013 203.046C279.685 203.046 280.297 202.884 280.849 202.56C281.413 202.236 281.857 201.774 282.181 201.174C282.505 200.574 282.667 199.878 282.667 199.086ZM291.105 204.144C290.181 204.144 289.347 203.94 288.603 203.532C287.871 203.112 287.289 202.524 286.857 201.768C286.437 201 286.227 200.106 286.227 199.086C286.227 198.066 286.443 197.178 286.875 196.422C287.307 195.654 287.895 195.066 288.639 194.658C289.383 194.238 290.217 194.028 291.141 194.028C292.065 194.028 292.899 194.238 293.643 194.658C294.399 195.066 294.987 195.654 295.407 196.422C295.839 197.178 296.055 198.066 296.055 199.086C296.055 200.094 295.839 200.982 295.407 201.75C294.975 202.518 294.381 203.112 293.625 203.532C292.869 203.94 292.029 204.144 291.105 204.144ZM291.105 203.046C291.753 203.046 292.353 202.902 292.905 202.614C293.457 202.314 293.901 201.87 294.237 201.282C294.585 200.682 294.759 199.95 294.759 199.086C294.759 198.222 294.591 197.496 294.255 196.908C293.919 196.308 293.475 195.864 292.923 195.576C292.371 195.276 291.771 195.126 291.123 195.126C290.475 195.126 289.875 195.276 289.323 195.576C288.771 195.864 288.327 196.308 287.991 196.908C287.667 197.496 287.505 198.222 287.505 199.086C287.505 199.95 287.667 200.682 287.991 201.282C288.327 201.87 288.765 202.314 289.305 202.614C289.857 202.902 290.457 203.046 291.105 203.046ZM310.052 193.992C311.204 193.992 312.14 194.358 312.86 195.09C313.592 195.81 313.958 196.86 313.958 198.24V204H312.716V198.384C312.716 197.316 312.458 196.5 311.942 195.936C311.426 195.372 310.724 195.09 309.836 195.09C308.912 195.09 308.174 195.396 307.622 196.008C307.07 196.62 306.794 197.508 306.794 198.672V204H305.552V198.384C305.552 197.316 305.294 196.5 304.778 195.936C304.262 195.372 303.554 195.09 302.654 195.09C301.73 195.09 300.992 195.396 300.44 196.008C299.888 196.62 299.612 197.508 299.612 198.672V204H298.352V194.172H299.612V195.864C299.924 195.252 300.368 194.79 300.944 194.478C301.52 194.154 302.162 193.992 302.87 193.992C303.722 193.992 304.466 194.196 305.102 194.604C305.75 195.012 306.218 195.612 306.506 196.404C306.77 195.624 307.22 195.03 307.856 194.622C308.504 194.202 309.236 193.992 310.052 193.992ZM317.386 192.318C317.134 192.318 316.918 192.228 316.738 192.048C316.558 191.868 316.468 191.646 316.468 191.382C316.468 191.118 316.558 190.902 316.738 190.734C316.918 190.554 317.134 190.464 317.386 190.464C317.638 190.464 317.854 190.554 318.034 190.734C318.214 190.902 318.304 191.118 318.304 191.382C318.304 191.646 318.214 191.868 318.034 192.048C317.854 192.228 317.638 192.318 317.386 192.318ZM318.016 194.172V204H316.756V194.172H318.016ZM325.478 193.992C326.654 193.992 327.614 194.358 328.358 195.09C329.102 195.81 329.474 196.86 329.474 198.24V204H328.232V198.384C328.232 197.316 327.962 196.5 327.422 195.936C326.894 195.372 326.168 195.09 325.244 195.09C324.296 195.09 323.54 195.39 322.976 195.99C322.412 196.59 322.13 197.472 322.13 198.636V204H320.87V194.172H322.13V195.846C322.442 195.246 322.892 194.79 323.48 194.478C324.068 194.154 324.734 193.992 325.478 193.992ZM332.89 192.318C332.638 192.318 332.422 192.228 332.242 192.048C332.062 191.868 331.972 191.646 331.972 191.382C331.972 191.118 332.062 190.902 332.242 190.734C332.422 190.554 332.638 190.464 332.89 190.464C333.142 190.464 333.358 190.554 333.538 190.734C333.718 190.902 333.808 191.118 333.808 191.382C333.808 191.646 333.718 191.868 333.538 192.048C333.358 192.228 333.142 192.318 332.89 192.318ZM333.52 194.172V204H332.26V194.172H333.52ZM340.676 204.144C339.752 204.144 338.918 203.94 338.174 203.532C337.442 203.112 336.86 202.524 336.428 201.768C336.008 201 335.798 200.106 335.798 199.086C335.798 198.066 336.014 197.178 336.446 196.422C336.878 195.654 337.466 195.066 338.21 194.658C338.954 194.238 339.788 194.028 340.712 194.028C341.636 194.028 342.47 194.238 343.214 194.658C343.97 195.066 344.558 195.654 344.978 196.422C345.41 197.178 345.626 198.066 345.626 199.086C345.626 200.094 345.41 200.982 344.978 201.75C344.546 202.518 343.952 203.112 343.196 203.532C342.44 203.94 341.6 204.144 340.676 204.144ZM340.676 203.046C341.324 203.046 341.924 202.902 342.476 202.614C343.028 202.314 343.472 201.87 343.808 201.282C344.156 200.682 344.33 199.95 344.33 199.086C344.33 198.222 344.162 197.496 343.826 196.908C343.49 196.308 343.046 195.864 342.494 195.576C341.942 195.276 341.342 195.126 340.694 195.126C340.046 195.126 339.446 195.276 338.894 195.576C338.342 195.864 337.898 196.308 337.562 196.908C337.238 197.496 337.076 198.222 337.076 199.086C337.076 199.95 337.238 200.682 337.562 201.282C337.898 201.87 338.336 202.314 338.876 202.614C339.428 202.902 340.028 203.046 340.676 203.046Z" fill="#D8D8D8"/>
<defs>
<linearGradient id="paint0_linear_2221_203" x1="169.056" y1="26.6759" x2="169.056" y2="90.1936" gradientUnits="userSpaceOnUse">
<stop stop-color="#67FF6C"/>
<stop offset="0.43" stop-color="white"/>
</linearGradient>
<linearGradient id="paint1_linear_2221_203" x1="185" y1="67" x2="171" y2="79" gradientUnits="userSpaceOnUse">
<stop stop-color="#FFFA6A"/>
<stop offset="1" stop-color="white"/>
</linearGradient>
<linearGradient id="paint2_linear_2221_203" x1="183.5" y1="44.5" x2="170.5" y2="59" gradientUnits="userSpaceOnUse">
<stop stop-color="#FF7474"/>
<stop offset="1" stop-color="white"/>
</linearGradient>
<linearGradient id="paint3_linear_2221_203" x1="152.5" y1="50.5" x2="167" y2="68" gradientUnits="userSpaceOnUse">
<stop stop-color="#7BF6FF"/>
<stop offset="1" stop-color="white"/>
</linearGradient>
</defs>
</svg>
